<svg width="352" height="387" viewBox="0 0 352 387" fill="none" xmlns="http://www.w3.org/2000/svg">
<path d="M163.62 172.582H153.38L135.756 0H181.244L163.62 172.582Z" fill="url(#paint0_linear_523_184)"/>
<path d="M153.38 214.418H163.62L181.244 387H135.756L153.38 214.418Z" fill="url(#paint1_linear_523_184)"/>
<path d="M179.418 198.62V188.379L352 170.756V216.243L179.418 198.62Z" fill="url(#paint2_linear_523_184)"/>
<path d="M137.582 188.379V198.62L-35 216.243V170.756L137.582 188.379Z" fill="url(#paint3_linear_523_184)"/>
<path d="M176.877 182.347L169.653 175.044L279.204 40.5664L311.434 72.7966L176.877 182.347Z" fill="url(#paint4_linear_523_184)"/>
<path d="M140.043 204.654L147.346 211.878L37.7956 346.435L5.56543 314.205L140.043 204.654Z" fill="url(#paint5_linear_523_184)"/>
<path d="M169.653 211.878L176.877 204.654L311.434 314.205L279.204 346.435L169.653 211.878Z" fill="url(#paint6_linear_523_184)"/>
<path d="M147.346 175.044L140.043 182.347L5.56543 72.7966L37.7956 40.5664L147.346 175.044Z" fill="url(#paint7_linear_523_184)"/>
<defs>
<linearGradient id="paint0_linear_523_184" x1="158.49" y1="210.012" x2="158.49" y2="34.3885" gradientUnits="userSpaceOnUse">
<stop stop-color="white"/>
<stop offset="0.9952" stop-color="#3AC1B0" stop-opacity="0"/>
</linearGradient>
<linearGradient id="paint1_linear_523_184" x1="158.49" y1="176.969" x2="158.49" y2="352.592" gradientUnits="userSpaceOnUse">
<stop stop-color="white"/>
<stop offset="0.9952" stop-color="#3AC1B0" stop-opacity="0"/>
</linearGradient>
<linearGradient id="paint2_linear_523_184" x1="141.969" y1="193.49" x2="317.592" y2="193.49" gradientUnits="userSpaceOnUse">
<stop stop-color="white"/>
<stop offset="0.9952" stop-color="#3AC1B0" stop-opacity="0"/>
</linearGradient>
<linearGradient id="paint3_linear_523_184" x1="175.012" y1="193.49" x2="-0.611531" y2="193.49" gradientUnits="userSpaceOnUse">
<stop stop-color="white"/>
<stop offset="0.9952" stop-color="#3AC1B0" stop-opacity="0"/>
</linearGradient>
<linearGradient id="paint4_linear_523_184" x1="146.807" y1="205.174" x2="270.992" y2="80.9892" gradientUnits="userSpaceOnUse">
<stop stop-color="white"/>
<stop offset="0.9952" stop-color="#3AC1B0" stop-opacity="0"/>
</linearGradient>
<linearGradient id="paint5_linear_523_184" x1="170.173" y1="181.808" x2="45.9882" y2="305.993" gradientUnits="userSpaceOnUse">
<stop stop-color="white"/>
<stop offset="0.9952" stop-color="#3AC1B0" stop-opacity="0"/>
</linearGradient>
<linearGradient id="paint6_linear_523_184" x1="146.807" y1="181.808" x2="270.992" y2="305.993" gradientUnits="userSpaceOnUse">
<stop stop-color="white"/>
<stop offset="0.9952" stop-color="#3AC1B0" stop-opacity="0"/>
</linearGradient>
<linearGradient id="paint7_linear_523_184" x1="170.173" y1="205.174" x2="45.9882" y2="80.9892" gradientUnits="userSpaceOnUse">
<stop stop-color="white"/>
<stop offset="0.9952" stop-color="#3AC1B0" stop-opacity="0"/>
</linearGradient>
</defs>
</svg>
