<svg width="50" height="35" viewBox="0 0 50 43" fill="none" xmlns="http://www.w3.org/2000/svg">
<g id="solanaLogoMark 1" clip-path="url(#clip0_68_90)">
<path id="Vector" d="M49.7426 33.9024L41.4885 42.4144C41.3091 42.5993 41.092 42.7467 40.8507 42.8474C40.6095 42.9482 40.3493 43.0001 40.0863 43H0.958233C0.77153 43 0.588896 42.9475 0.432773 42.8491C0.276648 42.7506 0.153832 42.6105 0.0794139 42.4458C0.00499619 42.2812 -0.0177812 42.0993 0.0138803 41.9223C0.0455418 41.7454 0.130263 41.5812 0.257635 41.4499L8.51787 32.938C8.69683 32.7536 8.91322 32.6065 9.15366 32.5058C9.39416 32.405 9.65356 32.3528 9.91589 32.3524H49.0418C49.2285 32.3524 49.4111 32.4049 49.5673 32.5033C49.7233 32.6017 49.846 32.7419 49.9208 32.9065C49.995 33.0712 50.0178 33.2531 49.9861 33.4301C49.9545 33.607 49.8698 33.7712 49.7426 33.9024ZM41.4885 16.7618C41.3091 16.5769 41.092 16.4295 40.8507 16.3287C40.6095 16.228 40.3493 16.1761 40.0863 16.1762H0.958233C0.77153 16.1762 0.588896 16.2286 0.432773 16.3271C0.276648 16.4256 0.153832 16.5657 0.0794139 16.7303C0.00499619 16.895 -0.0177812 17.077 0.0138803 17.2539C0.0455418 17.4308 0.130263 17.595 0.257635 17.7263L8.51787 26.2382C8.69683 26.4226 8.91322 26.5697 9.15366 26.6705C9.39416 26.7712 9.65356 26.8234 9.91589 26.8238H49.0418C49.2285 26.8238 49.4111 26.7714 49.5673 26.6729C49.7233 26.5744 49.846 26.4343 49.9208 26.2697C49.995 26.105 50.0178 25.923 49.9861 25.7461C49.9545 25.5692 49.8698 25.405 49.7426 25.2737L41.4885 16.7618ZM0.958233 10.6476H40.0863C40.3493 10.6477 40.6095 10.5958 40.8507 10.4951C41.092 10.3943 41.3091 10.2469 41.4885 10.062L49.7426 1.55005C49.8698 1.41879 49.9545 1.25461 49.9861 1.07769C50.0178 0.900762 49.995 0.718799 49.9208 0.554153C49.846 0.389507 49.7233 0.249349 49.5673 0.150902C49.4111 0.0524546 49.2285 6.06271e-06 49.0418 0H9.91589C9.65356 0.000429217 9.39416 0.0526256 9.15366 0.153358C8.91322 0.25409 8.69683 0.401213 8.51787 0.585621L0.259764 9.09758C0.132515 9.22868 0.0478316 9.39272 0.0160983 9.56941C-0.0156351 9.74615 0.00696159 9.92797 0.0811168 10.0925C0.155272 10.2571 0.277763 10.3973 0.433566 10.4959C0.589371 10.5945 0.771713 10.6472 0.958233 10.6476Z" fill="white"/>
</g>
<defs>
<clipPath id="clip0_68_90">
<rect width="50" height="43" fill="white"/>
</clipPath>
</defs>
</svg>
