<svg width="50" height="35" viewBox="0 0 50 50" fill="none" xmlns="http://www.w3.org/2000/svg">
<g id="star-137 1">
<path id="Vector" d="M14.1097 30.3962L10.9336 43.6973C10.8053 44.2305 11.0113 44.7879 11.4513 45.1122C11.893 45.4354 12.4833 45.4668 12.9565 45.1861L24.9012 38.093L36.8405 45.1861C37.056 45.3141 37.2971 45.3781 37.537 45.3781C37.8221 45.3781 38.1054 45.2895 38.3457 45.1136C38.7859 44.7891 38.9918 44.2318 38.8634 43.6988L35.6874 30.3974L46.2305 21.4623C46.6521 21.1066 46.8167 20.5314 46.6479 20.0065C46.4802 19.4816 46.0112 19.1093 45.4618 19.0645L31.5553 17.9165L26.1528 5.30666C25.9386 4.80475 25.4452 4.48047 24.8998 4.48047C24.3544 4.48047 23.8612 4.80475 23.6472 5.30666L18.2405 17.9165L4.33819 19.0629C3.78861 19.1081 3.31958 19.4802 3.15189 20.0052C2.98286 20.5301 3.14789 21.1054 3.56921 21.461L14.1097 30.3962ZM19.2819 20.5655C19.785 20.5246 20.2241 20.2083 20.4229 19.7432L24.8998 9.3021L29.3715 19.7419C29.5703 20.2067 30.0092 20.5233 30.5122 20.5639L41.9555 21.5075L33.2839 28.8568C32.8912 29.1884 32.7196 29.713 32.8394 30.2135L35.4624 41.1944L25.598 35.3336C25.1699 35.0775 24.6339 35.0775 24.2059 35.3336L14.3363 41.1958L16.9589 30.2135C17.0788 29.713 16.9073 29.1883 16.5146 28.8568L7.84551 21.5075L19.2819 20.5655Z" fill="white"/>
</g>
</svg>
