<svg width="40" height="41" viewBox="0 0 40 41" fill="none" xmlns="http://www.w3.org/2000/svg">
<g id="Facebook" clip-path="url(#clip0_523_67)">
<g id="Layer 2">
<g id="Layer 1">
<path id="Vector" d="M40 8.56666V32.6816L32.4687 40.5H8.82728L0 32.5184V8.56666L8.34085 0.5H31.6626L40 8.56666Z" fill="url(#paint0_linear_523_67)"/>
<path id="Vector_2" d="M39.1701 9.36523V31.8648L34.9351 29.355V11.824L39.1701 9.36523Z" fill="#3164DE"/>
<path id="Vector_3" d="M11.2936 5.96159L5.06513 11.8245L0.830078 9.36577L8.82736 1.83984L11.2936 5.96159Z" fill="#78A1FC"/>
<path id="Vector_4" d="M31.1794 1.83984L28.7098 5.96159H11.2933L8.82715 1.83984H31.1794Z" fill="#1B3579"/>
<path id="Vector_5" d="M39.17 9.36577L34.935 11.8245L28.71 5.96159L31.1796 1.83984L39.17 9.36577Z" fill="#78A1FC"/>
<path id="Vector_6" d="M39.17 31.8652L31.9517 39.1599L29.312 35.0382L34.9349 29.3555L39.17 31.8652Z" fill="#9EBFEA"/>
<path id="Vector_7" d="M31.9518 39.1608H9.29004L11.6542 35.0391H29.3122L31.9518 39.1608Z" fill="#2B4C90"/>
<path id="Vector_8" d="M11.6541 35.0381L9.28998 39.1598L0.830078 31.7121L5.06513 29.2363L11.6541 35.0381Z" fill="#3D63A7"/>
<path id="Vector_9" d="M5.06513 11.824V29.236L0.830078 31.7118V9.36523L5.06513 11.824Z" fill="#527BBD"/>
<path id="Vector_10" d="M34.9348 11.8239V29.3549L29.3119 35.0376H11.6539L5.06494 29.2359V11.8239L11.2934 5.96094H28.7098L34.9348 11.8239Z" fill="#C3DAF7"/>
<path id="Vector_11" d="M34.6118 12.0145V29.1612L29.1113 34.7215H11.8377L5.38818 29.0456V12.0145L11.4839 6.27734H28.5194L34.6118 12.0145Z" stroke="white" stroke-miterlimit="10"/>
<path id="Vector_12" d="M6.76108 8.51823C7.74022 7.68335 8.30074 6.73315 8.01303 6.3959C7.72532 6.05864 6.69834 6.46204 5.71919 7.29692C4.74004 8.13179 4.17952 9.08199 4.46723 9.41925C4.75494 9.7565 5.78193 9.3531 6.76108 8.51823Z" fill="white"/>
</g>
</g>
<path id="Vector_13" d="M28.3303 11.6206C26.7535 10.7739 25.0888 10.1733 23.3789 9.83398C23.1449 10.3246 22.9332 10.8293 22.7446 11.3461C20.9232 11.0242 19.071 11.0242 17.2496 11.3461C17.061 10.8294 16.8492 10.3246 16.6153 9.83398C14.9043 10.1762 13.2386 10.7782 11.6602 11.625C8.52664 17.0624 7.67719 22.3648 8.10192 27.5918C9.937 29.182 11.991 30.3914 14.1746 31.1673C14.6663 30.3917 15.1013 29.5689 15.4752 28.7077C14.7651 28.3966 14.0798 28.0129 13.4271 27.5608C13.5988 27.4147 13.7668 27.2642 13.9292 27.1181C15.8284 28.1656 17.9012 28.7087 20 28.7087C22.0987 28.7087 24.1715 28.1656 26.0707 27.1181C26.235 27.2752 26.403 27.4258 26.5729 27.5608C25.9189 28.0136 25.2323 28.3981 24.5209 28.7099C24.8943 29.5708 25.3294 30.3929 25.8216 31.1673C28.007 30.3945 30.0626 29.1857 31.898 27.5941C32.3963 21.5323 31.0467 16.2787 28.3303 11.6206ZM16.0132 24.3772C14.8296 24.3772 13.8518 23.1175 13.8518 21.5678C13.8518 20.018 14.7956 18.7472 16.0094 18.7472C17.2232 18.7472 18.1934 20.018 18.1727 21.5678C18.1519 23.1175 17.2194 24.3772 16.0132 24.3772ZM23.9867 24.3772C22.8013 24.3772 21.8272 23.1175 21.8272 21.5678C21.8272 20.018 22.7711 18.7472 23.9867 18.7472C25.2024 18.7472 26.1651 20.018 26.1444 21.5678C26.1236 23.1175 25.193 24.3772 23.9867 24.3772Z" fill="#12154B"/>
</g>
<defs>
<linearGradient id="paint0_linear_523_67" x1="0" y1="20.5" x2="40" y2="20.5" gradientUnits="userSpaceOnUse">
<stop stop-color="#FFD64C"/>
<stop offset="0.29" stop-color="#FCD74E"/>
<stop offset="0.61" stop-color="#F69E1C"/>
<stop offset="1" stop-color="#F7650F"/>
</linearGradient>
<clipPath id="clip0_523_67">
<rect width="40" height="40" fill="white" transform="translate(0 0.5)"/>
</clipPath>
</defs>
</svg>
