<svg width="521" height="359" viewBox="0 0 521 359" fill="none" xmlns="http://www.w3.org/2000/svg">
<g opacity="0.5" clip-path="url(#clip0_523_134)">
<path d="M0 363.059C21.4355 363.417 42.8526 363.152 64.1725 361.957C85.4508 360.808 106.655 358.577 127.707 355.271C148.657 351.984 169.362 347.246 189.665 341.095C209.893 334.967 229.54 327.058 248.386 317.457C267.223 307.829 285.08 296.372 301.707 283.252C318.352 269.996 333.74 255.221 347.671 239.115C361.69 222.889 374.442 205.593 385.812 187.39C397.251 169.076 407.622 150.111 416.865 130.584L427.393 135.401C418.636 155.709 408.704 175.488 397.653 194.63C386.533 213.892 373.952 232.262 360.021 249.572C345.974 266.993 330.35 283.066 313.354 297.586C296.227 312.115 277.733 324.924 258.128 335.837C238.542 346.795 217.902 355.778 196.771 363.087C175.646 370.312 154.048 376.059 132.132 380.289C110.326 384.506 88.3222 387.612 66.207 389.588C44.1472 391.606 22.0551 392.652 0 393.061V363.059Z" fill="#44AAFC"/>
<path d="M234.788 114.274L228.314 117.562L228.892 118.663C222.313 125.814 221.254 137.419 226.118 147.095C231.139 157.058 241.64 163.367 251.687 162.093L252.247 163.158L257.971 160.248C268.772 155.04 273.368 140.832 266.622 127.437C259.876 114.042 245.552 109.002 234.788 114.274Z" fill="#FA902C"/>
<path d="M248.224 162.585C238.112 165.872 226.544 159.865 221.351 149.567C216.159 139.268 218.313 126.58 227.108 120.68C237.155 113.943 251.835 118.397 258.456 131.541C265.078 144.685 259.774 158.833 248.224 162.585Z" fill="#FA902C"/>
<path d="M251.835 160.744C241.723 164.031 230.155 158.029 224.962 147.726C219.77 137.423 221.906 124.706 230.719 118.83C240.766 112.088 251.849 117.951 258.461 131.095C265.073 144.239 263.385 156.992 251.835 160.744Z" fill="#FAC02C"/>
<path d="M228.028 122.498C237.201 116.505 250.443 120.666 256.417 132.517C262.391 144.369 257.721 157.234 247.299 160.753C238.075 163.873 227.417 158.429 222.632 148.93C217.846 139.431 219.904 127.808 228.028 122.498ZM226.178 118.839C216.718 125.348 214.48 139.036 220.084 150.167C225.688 161.297 238.117 167.834 249.14 164.417C261.873 160.442 267.838 144.996 260.542 130.509C253.245 116.021 237.123 111.307 226.178 118.839Z" fill="#FAE22C"/>
<path d="M249.838 136.907C248.432 136.651 246.985 136.772 245.644 137.256L245.496 136.963C246.107 136.456 246.629 135.852 247.045 135.173C248.196 133.285 248.247 130.923 247.184 128.985C246.213 127.055 244.821 125.93 243.022 125.623C241.871 125.442 240.692 125.549 239.592 125.939L237.03 120.857L234.894 121.945L236.24 127.599L234.066 128.873L231.713 124.196L229.577 125.284L231.056 130.63L226.127 133.513L228.356 137.935L229.498 137.312C230.206 137.019 231.019 137.358 231.311 138.069C231.311 138.074 231.315 138.079 231.315 138.083L236.138 147.652C236.517 148.414 236.304 149.261 235.675 149.544L234.483 150.065L236.711 154.487L242.015 152.357L245.473 156.816L247.609 155.728L245.256 151.055L247.568 150.125L251.364 154.663L253.5 153.575L250.952 148.521C252.006 147.866 252.908 146.987 253.592 145.946C254.623 144.337 254.605 142.445 253.528 140.306C252.547 138.293 251.304 137.163 249.838 136.907ZM237.765 132.825C238.154 132.574 238.639 132.523 239.074 132.685C239.559 132.955 239.943 133.383 240.151 133.899L240.678 134.936C240.97 135.415 241.085 135.977 241.016 136.531C240.896 136.986 240.572 137.353 240.142 137.535L238.796 138.214L236.443 133.541L237.765 132.825ZM242.902 146.378L240.433 141.473L241.973 140.738C242.384 140.506 242.879 140.473 243.314 140.655C243.804 140.934 244.183 141.366 244.4 141.887L245.025 143.165C245.316 143.635 245.436 144.197 245.358 144.746C245.214 145.188 244.872 145.532 244.433 145.676L242.902 146.378Z" fill="#FA902C"/>
<path d="M247.702 137.995C246.296 137.739 244.849 137.86 243.508 138.344L243.36 138.051C243.97 137.544 244.493 136.94 244.909 136.261C246.06 134.373 246.111 132.011 245.048 130.072C244.077 128.143 242.685 127.018 240.886 126.711C239.735 126.53 238.556 126.637 237.455 127.027L234.894 121.945L231.713 123.945L234.103 128.687L231.93 129.961L229.577 125.284L226.613 127.143L228.925 131.718L224 134.601L226.224 139.023L227.367 138.4C228.074 138.107 228.888 138.446 229.179 139.157C229.179 139.162 229.184 139.167 229.184 139.171L234.006 148.74C234.385 149.502 234.173 150.349 233.544 150.632L232.351 151.153L234.58 155.574L239.883 153.445L242.195 158.025L245.482 156.816L243.124 152.139L245.464 151.209L247.854 155.956L251.391 154.658L248.844 149.6C249.903 148.944 250.809 148.066 251.498 147.024C252.529 145.415 252.51 143.523 251.433 141.384C250.411 139.381 249.186 138.251 247.702 137.995ZM235.629 133.913C236.018 133.662 236.503 133.611 236.938 133.773C237.423 134.043 237.807 134.471 238.015 134.987L238.542 136.033C238.833 136.512 238.949 137.074 238.88 137.628C238.759 138.083 238.436 138.451 238.006 138.632L236.66 139.311L234.307 134.634L235.629 133.913ZM240.771 147.489L238.297 142.584L239.837 141.849C240.248 141.617 240.743 141.584 241.178 141.766C241.668 142.045 242.047 142.477 242.264 142.998L242.907 144.276C243.198 144.746 243.318 145.309 243.24 145.857C243.096 146.299 242.754 146.643 242.315 146.787L240.771 147.489Z" fill="#FAF02C"/>
<path d="M143.113 282.168L139.858 278.601L139.257 279.173C133.51 276.216 125.913 277.625 120.619 282.512C115.163 287.547 113.036 295.455 115.653 301.714L115.098 302.248L117.97 305.391C123.236 311.436 133.135 311.826 140.464 305.061C147.792 298.296 148.417 288.165 143.113 282.168Z" fill="#FA902C"/>
<path d="M114.705 299.524C110.784 293.597 112.536 285.051 118.182 279.839C123.827 274.627 132.303 273.739 137.648 278.351C143.765 283.633 143.561 293.908 136.367 300.547C129.172 307.187 119.181 306.317 114.705 299.524Z" fill="#FA902C"/>
<path d="M116.527 301.539C112.611 295.606 114.358 287.06 120.004 281.853C125.65 276.646 134.125 275.753 139.475 280.365C145.582 285.633 143.839 293.849 136.645 300.479C129.45 307.109 121.007 308.317 116.527 301.539Z" fill="#FAC02C"/>
<path d="M136.649 279.29C142.124 284.125 141.855 293.419 135.368 299.408C128.881 305.396 119.833 304.703 115.708 298.617C112.056 293.224 113.609 285.367 118.811 280.568C124.012 275.77 131.799 274.989 136.649 279.29ZM138.651 277.43C132.793 272.497 123.652 273.52 117.562 279.141C111.473 284.762 109.549 293.977 113.711 300.454C118.538 307.953 129.473 309.018 137.403 301.705C145.332 294.391 145.434 283.107 138.66 277.43H138.651Z" fill="#FAE22C"/>
<path d="M131.383 295.957C131.295 295.004 130.957 294.093 130.403 293.312L130.564 293.163C130.999 293.465 131.475 293.693 131.984 293.842C132.608 294.019 133.265 294.042 133.903 293.912C134.679 293.754 135.392 293.372 135.96 292.814C136.931 292.019 137.449 290.792 137.347 289.537C137.255 288.76 136.968 288.021 136.524 287.379L139.299 284.813L138.221 283.632L134.855 285.492L133.653 284.32L136.215 281.958L135.133 280.777L131.988 282.693L129.26 280.033L126.842 282.27L127.443 282.893C127.758 283.297 127.688 283.883 127.286 284.199L127.282 284.204L122.038 289.039C121.719 289.406 121.164 289.444 120.799 289.118C120.781 289.104 120.767 289.086 120.748 289.072L120.198 288.397L117.78 290.629L120.092 293.67L117.872 296.734L118.95 297.915L121.511 295.553L122.533 296.892L120.318 300.147L121.4 301.332L124.174 298.775C124.78 299.337 125.501 299.761 126.287 300.016C127.503 300.388 128.706 300.016 129.875 298.956C130.985 297.952 131.48 296.948 131.383 295.957ZM131.808 287.43C132.039 287.635 132.164 287.937 132.136 288.249C132.058 288.616 131.854 288.946 131.558 289.179L130.985 289.709C130.731 289.983 130.393 290.16 130.028 290.215C129.718 290.22 129.422 290.081 129.228 289.834L128.553 289.086L131.11 286.724L131.808 287.43ZM124.091 293.186L126.773 290.708L127.517 291.568C127.739 291.792 127.85 292.103 127.813 292.419C127.725 292.787 127.517 293.117 127.221 293.349L126.523 293.995C126.278 294.26 125.955 294.437 125.598 294.493C125.293 294.488 125.007 294.335 124.831 294.079L124.091 293.186Z" fill="#FA902C"/>
<path d="M130.301 294.773C130.213 293.82 129.876 292.909 129.325 292.132L129.487 291.984C129.922 292.286 130.398 292.514 130.907 292.658C131.531 292.834 132.188 292.862 132.821 292.732C133.598 292.574 134.314 292.193 134.879 291.635C135.937 290.658 136.404 289.561 136.266 288.38C136.173 287.604 135.891 286.865 135.447 286.223L138.221 283.656L136.372 281.959L133.778 284.358L132.576 283.187L135.133 280.825L133.413 279.249L130.907 281.574L128.183 278.914L125.761 281.15L126.366 281.773C126.681 282.178 126.611 282.764 126.209 283.08C126.204 283.08 126.204 283.085 126.2 283.085L120.98 287.901C120.651 288.269 120.092 288.297 119.727 287.966C119.713 287.957 119.704 287.943 119.69 287.934L119.139 287.26L116.721 289.491L119.033 292.532L116.522 294.857L117.873 296.735L120.434 294.373L121.451 295.712L118.876 298.13L120.337 300.176L123.111 297.623C123.722 298.186 124.443 298.609 125.229 298.865C126.445 299.237 127.647 298.888 128.817 297.805C129.908 296.782 130.403 295.773 130.301 294.773ZM130.731 286.251C130.962 286.455 131.083 286.758 131.059 287.069C130.981 287.436 130.773 287.767 130.477 287.999L129.894 288.51C129.649 288.78 129.325 288.957 128.969 289.017C128.66 289.017 128.364 288.878 128.174 288.631L127.499 287.887L130.056 285.526L130.731 286.251ZM123.01 292.007L125.696 289.529L126.44 290.389C126.662 290.612 126.773 290.923 126.736 291.24C126.648 291.607 126.44 291.932 126.144 292.17L125.446 292.816C125.197 293.085 124.864 293.262 124.498 293.313C124.189 293.304 123.907 293.151 123.731 292.895L123.01 292.007Z" fill="#FAF02C"/>
<path d="M438.758 330.824L435.142 327.16L434.527 327.792C428.29 324.886 420.268 326.7 414.835 332.121C409.24 337.7 407.303 346.209 410.345 352.755L409.749 353.369L412.939 356.591C418.788 362.788 429.335 362.807 436.858 355.303C444.38 347.799 444.658 336.98 438.758 330.824Z" fill="#FA902C"/>
<path d="M409.259 350.491C404.848 344.344 406.355 335.176 412.144 329.401C417.933 323.626 426.917 322.32 432.798 327.002C439.516 332.353 439.734 343.275 432.336 350.658C424.938 358.041 414.303 357.511 409.259 350.491Z" fill="#FA902C"/>
<path d="M411.284 352.527C406.868 346.38 408.375 337.212 414.169 331.433C419.962 325.653 428.942 324.356 434.823 329.038C441.532 334.394 440.02 343.228 432.641 350.57C425.261 357.911 416.324 359.562 411.284 352.527Z" fill="#FAC02C"/>
<path d="M431.772 328.03C437.783 332.949 437.894 342.848 431.24 349.492C424.587 356.136 414.928 355.768 410.29 349.464C406.18 343.884 407.516 335.46 412.842 330.136C418.169 324.813 426.431 323.674 431.772 328.03ZM433.825 325.98C427.389 320.977 417.707 322.441 411.46 328.676C405.213 334.911 403.521 344.786 408.223 351.514C413.67 359.292 425.331 359.971 433.478 351.853C441.625 343.736 441.26 331.763 433.816 325.98H433.825Z" fill="#FAE22C"/>
<path d="M426.857 345.982C426.723 344.969 426.325 344.006 425.705 343.193L425.872 343.025C426.343 343.332 426.866 343.555 427.411 343.69C428.923 344.044 430.509 343.565 431.573 342.43C432.655 341.352 433.108 340.161 432.928 338.887C432.793 338.064 432.465 337.288 431.966 336.623L434.819 333.778L433.621 332.564L430.116 334.712L428.789 333.513L431.416 330.895L430.218 329.682L426.949 331.853L423.962 329.156L421.479 331.634L422.145 332.276C422.496 332.69 422.446 333.308 422.039 333.662C422.034 333.666 422.029 333.671 422.025 333.671L416.652 339.045C416.342 339.455 415.76 339.529 415.357 339.218C415.325 339.194 415.297 339.166 415.265 339.138L414.655 338.441L412.186 340.905L414.775 344.039L412.537 347.363L413.73 348.577L416.356 345.959L417.498 347.354L415.279 350.92L416.476 352.129L419.338 349.274C420.009 349.851 420.8 350.269 421.65 350.506C422.959 350.855 424.226 350.432 425.428 349.232C426.514 348.126 427.005 347.033 426.857 345.982ZM426.958 336.893C427.213 337.102 427.356 337.423 427.342 337.753C427.268 338.144 427.065 338.492 426.759 338.748L426.172 339.334C425.918 339.636 425.567 339.841 425.178 339.915C424.845 339.934 424.526 339.794 424.309 339.538L423.56 338.771L426.186 336.154L426.958 336.893ZM418.982 343.342L421.757 340.594L422.584 341.477C422.829 341.705 422.959 342.035 422.931 342.37C422.852 342.765 422.644 343.118 422.344 343.379L421.623 344.095C421.373 344.397 421.021 344.597 420.638 344.662C420.309 344.671 419.995 344.518 419.801 344.253L418.982 343.342Z" fill="#FA902C"/>
<path d="M425.659 344.767C425.53 343.749 425.132 342.787 424.508 341.978L424.674 341.81C425.146 342.117 425.668 342.34 426.214 342.475C426.884 342.638 427.582 342.638 428.253 342.475C429.071 342.271 429.816 341.838 430.398 341.22C431.48 340.137 431.933 338.951 431.753 337.672C431.624 336.849 431.291 336.073 430.791 335.413L433.644 332.563L431.605 330.838L428.942 333.497L427.615 332.302L430.241 329.68L428.345 328.076L425.775 330.675L422.765 327.955L420.263 330.419L420.934 331.061C421.285 331.479 421.229 332.102 420.813 332.456L415.454 337.821C415.145 338.23 414.562 338.305 414.16 337.993C414.127 337.97 414.1 337.942 414.067 337.914L413.457 337.217L410.974 339.695L413.563 342.829L411.016 345.395L412.546 347.366L415.168 344.749L416.31 346.144L413.637 348.808L415.279 350.928L418.118 348.092C418.788 348.668 419.579 349.087 420.43 349.324C421.733 349.672 423 349.249 424.203 348.05C425.317 346.911 425.812 345.818 425.659 344.767ZM425.761 335.682C426.015 335.892 426.158 336.208 426.145 336.538C426.071 336.928 425.867 337.277 425.567 337.533L424.979 338.114C424.72 338.416 424.369 338.621 423.981 338.695C423.648 338.714 423.329 338.574 423.116 338.319L422.362 337.556L424.989 334.934L425.761 335.682ZM417.785 342.126L420.559 339.379L421.387 340.262C421.632 340.49 421.761 340.82 421.733 341.155C421.655 341.55 421.451 341.903 421.146 342.164L420.425 342.88C420.175 343.182 419.824 343.382 419.44 343.447C419.112 343.456 418.797 343.303 418.603 343.038L417.785 342.126Z" fill="#FAF02C"/>
<path d="M181.804 43.4957L184.685 42.4357C185.388 42.1799 185.753 41.3988 185.499 40.6921C185.36 40.3109 185.064 40.0133 184.685 39.8738L181.804 38.8138C181.43 38.6789 181.134 38.3814 181 38.0048L179.946 35.1082C179.687 34.4015 178.91 34.0388 178.207 34.2992C177.833 34.4387 177.541 34.7316 177.403 35.1082L176.344 38.0048C176.21 38.3814 175.914 38.6789 175.539 38.8138L172.659 39.8738C171.956 40.1388 171.595 40.9246 171.859 41.6313C171.997 42.0033 172.289 42.2962 172.659 42.4357L175.539 43.4957C175.914 43.6306 176.21 43.9281 176.344 44.3047L177.403 47.2013C177.662 47.908 178.438 48.2707 179.141 48.0103C179.516 47.8708 179.807 47.5779 179.946 47.2013L181 44.3047C181.134 43.9281 181.43 43.6306 181.804 43.4957Z" fill="white"/>
<path d="M301.295 132.388L304.18 131.328C304.883 131.063 305.244 130.277 304.98 129.571C304.841 129.199 304.55 128.906 304.18 128.766L301.295 127.706C300.921 127.572 300.625 127.274 300.491 126.897L299.436 124.001C299.177 123.294 298.401 122.931 297.698 123.192C297.323 123.331 297.032 123.624 296.893 124.001L295.839 126.897C295.7 127.274 295.405 127.572 295.03 127.706L292.149 128.766C291.447 129.031 291.086 129.817 291.35 130.524C291.488 130.896 291.78 131.189 292.149 131.328L295.03 132.388C295.405 132.523 295.7 132.821 295.839 133.197L296.893 136.094C297.152 136.801 297.929 137.163 298.632 136.903C299.006 136.763 299.298 136.47 299.436 136.094L300.491 133.197C300.625 132.821 300.921 132.528 301.295 132.388Z" fill="white"/>
<path d="M494.173 138.832L497.054 137.772C497.757 137.511 498.117 136.73 497.858 136.023C497.72 135.647 497.428 135.354 497.054 135.214L494.173 134.154C493.803 134.01 493.507 133.717 493.369 133.341L492.314 130.444C492.056 129.737 491.279 129.375 490.576 129.635C490.201 129.775 489.91 130.068 489.771 130.444L488.713 133.341C488.579 133.717 488.283 134.015 487.908 134.154L485.028 135.214C484.325 135.475 483.964 136.256 484.223 136.963C484.362 137.339 484.653 137.632 485.028 137.772L487.908 138.832C488.283 138.971 488.579 139.269 488.713 139.645L489.771 142.542C490.03 143.249 490.807 143.611 491.51 143.351C491.884 143.211 492.176 142.918 492.314 142.542L493.369 139.645C493.507 139.273 493.803 138.976 494.173 138.832Z" fill="white"/>
<path d="M129.894 183.072L132.775 182.012C133.478 181.751 133.838 180.97 133.579 180.264C133.441 179.887 133.149 179.594 132.775 179.455L129.894 178.395C129.52 178.255 129.224 177.958 129.085 177.581L128.031 174.684C127.772 173.978 126.995 173.615 126.292 173.875C125.918 174.015 125.627 174.308 125.488 174.684L124.434 177.581C124.295 177.958 123.999 178.255 123.624 178.395L120.744 179.455C120.041 179.715 119.68 180.496 119.939 181.203C120.078 181.579 120.369 181.872 120.744 182.012L123.624 183.072C123.999 183.211 124.295 183.509 124.434 183.886L125.488 186.782C125.747 187.489 126.524 187.851 127.226 187.591C127.601 187.452 127.892 187.159 128.031 186.782L129.085 183.886C129.224 183.509 129.52 183.216 129.894 183.072Z" fill="white"/>
<path d="M375.173 175.274C372.662 187.906 344.855 189.924 342.012 215.189C342.012 215.189 348.429 205.923 353.733 212.329C356.248 215.361 353.067 222.558 332.297 230.462C270.945 253.835 306.737 307.596 261.346 322.199C261.346 322.199 317.085 338.04 325.089 274.776C327.035 259.372 344.379 247.214 349.063 255.546C352.063 260.878 346.261 267.555 340.407 267.899C340.407 267.899 368.45 275.157 384.54 254.23C400.631 233.303 383.523 224.674 396.793 212.553C410.063 200.432 425.363 199.883 427.374 190.533C429.386 181.183 391.92 165.338 391.92 165.338L375.173 175.274Z" fill="url(#paint0_linear_523_134)"/>
<path d="M342.987 279.709C342.987 279.709 343.63 293.811 328.959 307.917C328.959 307.917 364.589 305.323 342.987 279.709Z" fill="url(#paint1_linear_523_134)"/>
<path d="M328.959 224.823C328.959 224.823 317.002 224.926 308.702 234.122C295.959 248.242 285.177 247.405 276.146 244.527C281.843 241.18 286.86 236.786 290.942 231.579C299.307 220.704 310.889 212.423 328.959 224.823Z" fill="url(#paint2_linear_523_134)"/>
<path d="M376.44 182.723C376.44 182.723 373.883 186.963 366.119 193.207C358.356 199.451 356.456 201.023 354.981 204.049C354.981 204.049 360.552 200.739 363.766 207.164C366.979 213.59 368.061 222.945 346.381 234.861C324.7 246.777 315.864 246.777 306.418 266.044C306.418 266.044 314.149 252.482 339.468 247.791C364.788 243.1 359.868 261.102 359.868 261.102C359.868 261.102 374.872 258.908 374.743 246.252C374.613 233.596 379.787 230.932 384.452 233.234C384.452 233.234 379.029 209.522 410.294 198.879C441.56 188.237 381.299 174.414 381.299 174.414L376.44 182.723Z" fill="#FAF02C"/>
<path d="M445.938 152.92L443.081 158.229L443.543 158.443L418.057 204.049L361.727 178.515L374.613 137.6L374.109 136.977L379.306 122.708C386.704 99.1911 394.328 81.9232 402.818 69.0862C410.599 57.3093 419.121 49.2705 428.905 43.561C432.997 41.1945 437.287 39.1906 441.731 37.5773C447.621 35.4525 453.665 33.7787 459.805 32.5605C463.115 38.2421 465.973 44.1794 468.349 50.3166C470.643 56.2492 472.196 62.4469 472.973 68.7654C475.553 90.6641 468.202 115.59 445.938 152.92Z" fill="white"/>
<path opacity="0.5" d="M443.081 158.228L443.543 158.442L418.057 204.048L397.917 194.912C401.615 187.538 406.239 178.383 411.973 167.229C414.072 163.166 416.319 158.828 418.714 154.211C419.722 152.272 420.679 150.361 421.59 148.469C443.025 103.998 436.709 73.8974 402.818 69.076C410.599 57.2991 419.121 49.2602 428.905 43.5508L464.771 62.1484L472.973 68.7598C475.567 90.6632 468.215 115.589 445.952 152.914L443.081 158.228Z" fill="#30A1BB"/>
<path d="M447.446 174.92L424.707 212.58C424.166 213.468 419.62 212.339 414.59 210.051C411.057 208.447 408.177 206.694 406.933 205.467C406.401 204.941 406.165 204.537 406.309 204.235L426.329 165.328C427.689 162.79 429.7 160.665 432.151 159.168L441.634 153.152C442.882 152.366 444.57 152.403 446.036 152.961C447.737 153.612 449.134 154.974 449.175 156.569L449.471 167.021C449.573 169.796 448.87 172.54 447.446 174.92Z" fill="url(#paint3_linear_523_134)"/>
<path opacity="0.5" d="M429.686 130.04C439.947 130.04 448.264 121.676 448.264 111.359C448.264 101.042 439.947 92.6777 429.686 92.6777C419.426 92.6777 411.108 101.042 411.108 111.359C411.108 121.676 419.426 130.04 429.686 130.04Z" fill="#30A1BB"/>
<path d="M470.324 99.7027C470.292 99.6609 460.411 89.0091 443.673 80.4124C442.263 79.6871 440.811 78.9804 439.308 78.2876C420.175 69.7048 403.396 69.1143 402.827 69.1004C410.318 57.7651 418.497 49.8891 427.828 44.2168C432.239 41.5573 436.895 39.3349 441.731 37.5774C447.599 35.4666 453.609 33.7975 459.722 32.584H459.814C459.833 32.6119 459.847 32.6398 459.861 32.6677C463.148 38.3167 465.987 44.2168 468.35 50.3168C468.378 50.3772 468.401 50.4423 468.419 50.5074C468.475 50.6516 468.53 50.805 468.586 50.9724C468.868 51.7302 469.136 52.4881 469.399 53.2552C469.506 53.5807 469.617 53.9061 469.723 54.2269C470.033 55.194 470.329 56.1657 470.615 57.1421C470.615 57.1514 470.615 57.1561 470.615 57.1654C470.888 58.1278 471.143 59.0856 471.374 60.048C471.462 60.3967 471.545 60.7501 471.623 61.0988C471.702 61.4475 471.771 61.7543 471.841 62.0844C471.91 62.4145 471.984 62.7446 472.049 63.0794C472.114 63.4142 472.178 63.7443 472.243 64.0744C472.308 64.4045 472.34 64.6277 472.391 64.9066C472.46 65.2972 472.525 65.6831 472.585 66.0783C472.636 66.3991 472.682 66.7199 472.729 67.0407C472.775 67.3615 472.835 67.7799 472.881 68.1519L472.992 69.0818C472.997 69.0957 472.997 69.1143 472.992 69.1283C473.029 69.4584 473.066 69.7931 473.098 70.1279C473.131 70.4627 473.168 70.8114 473.191 71.1508C473.214 71.4902 473.251 71.8389 473.269 72.1829C473.288 72.527 473.316 72.871 473.339 73.2151C473.339 73.4662 473.362 73.7126 473.376 73.959L473.404 74.675C473.404 74.7122 473.404 74.7448 473.404 74.7866C473.404 75.0888 473.404 75.3957 473.404 75.7165C473.404 75.7723 473.404 75.8327 473.404 75.8839C473.404 76.1721 473.404 76.4557 473.404 76.7393C473.404 77.2043 473.404 77.7018 473.404 78.176C473.404 78.4085 473.404 78.6409 473.404 78.8688C473.404 78.9711 473.404 79.064 473.404 79.1617C473.404 79.4453 473.404 79.7289 473.404 80.0079C473.404 80.0637 473.404 80.1195 473.404 80.1799C473.404 80.4914 473.39 80.7983 473.362 81.1098C473.362 81.3794 473.339 81.6491 473.316 81.9188C473.293 82.1884 473.293 82.3372 473.279 82.5464C473.279 82.8347 473.237 83.1276 473.209 83.4205C473.182 83.7134 473.159 84.0342 473.131 84.3504C473.089 84.8153 473.043 85.2803 472.987 85.7778C472.95 86.1079 472.913 86.4473 472.872 86.7867C472.83 87.1261 472.784 87.4934 472.733 87.8514C472.738 87.8979 472.738 87.9397 472.733 87.9862C472.696 88.2699 472.655 88.5535 472.618 88.8371C472.544 89.3439 472.46 89.8507 472.377 90.3621L472.238 91.1804C472.238 91.2827 472.206 91.3849 472.183 91.4826C472.146 91.7151 472.104 91.9475 472.058 92.1707C472.012 92.3939 471.966 92.6868 471.915 92.9425C471.864 93.1982 471.799 93.5283 471.744 93.8212C471.688 94.1141 471.628 94.3606 471.573 94.6302C471.466 95.137 471.355 95.6485 471.24 96.1599C471.147 96.5458 471.059 96.9363 470.962 97.3222C470.865 97.7081 470.796 98.0196 470.708 98.373C470.708 98.4567 470.666 98.5404 470.643 98.6241C470.565 98.9216 470.491 99.2285 470.407 99.5539C470.366 99.5446 470.343 99.6237 470.324 99.7027Z" fill="url(#paint4_linear_523_134)"/>
<path opacity="0.5" d="M459.805 32.5605C459.824 32.5884 459.838 32.6163 459.852 32.6442C463.144 38.2979 465.987 44.2073 468.35 50.3166C468.378 50.3771 468.401 50.4421 468.419 50.5072C468.475 50.6514 468.53 50.8048 468.586 50.9722C468.868 51.73 469.136 52.4879 469.4 53.255C469.506 53.5805 469.617 53.9059 469.723 54.2268C470.033 55.1938 470.329 56.1656 470.616 57.1419C470.616 57.1512 470.616 57.1559 470.616 57.1652C470.888 58.1276 471.143 59.0854 471.374 60.0478C471.462 60.3965 471.545 60.7499 471.624 61.0986C471.702 61.4473 471.772 61.7541 471.841 62.0842C471.91 62.4144 471.984 62.7445 472.049 63.0792C472.114 63.414 472.178 63.7441 472.243 64.0742C472.308 64.4043 472.34 64.6275 472.391 64.9064C472.46 65.297 472.525 65.6829 472.585 66.0781C472.636 66.3989 472.682 66.7197 472.729 67.0405C472.775 67.3613 472.835 67.7798 472.881 68.1517L472.992 69.0816C472.997 69.0955 472.997 69.1141 472.992 69.1281C473.029 69.4582 473.066 69.793 473.099 70.1277C473.131 70.4625 473.168 70.8112 473.191 71.1506C473.214 71.49 473.251 71.8387 473.27 72.1827C473.288 72.5268 473.316 72.8709 473.339 73.2149C473.339 73.466 473.362 73.7124 473.376 73.9588L473.404 74.6748C473.404 74.712 473.404 74.7446 473.404 74.7864C473.404 75.0886 473.404 75.3955 473.404 75.7163C473.404 75.7721 473.404 75.8325 473.404 75.8837C473.404 76.1719 473.404 76.4555 473.404 76.7392C473.404 77.2041 473.404 77.7016 473.404 78.1758C473.404 78.4083 473.404 78.6408 473.404 78.8686C473.404 78.9709 473.404 79.0639 473.404 79.1615C473.404 79.4451 473.404 79.7287 473.404 80.0077C473.404 80.0635 473.404 80.1193 473.404 80.1797C473.404 80.4912 473.39 80.7981 473.362 81.1096C473.362 81.3793 473.339 81.6489 473.316 81.9186C473.293 82.1883 473.293 82.337 473.279 82.5463C473.279 82.8345 473.237 83.1274 473.21 83.4203C473.182 83.7133 473.159 84.0341 473.131 84.3502C473.089 84.8152 473.043 85.2801 472.988 85.7776C472.951 86.1077 472.914 86.4471 472.872 86.7865C472.83 87.1259 472.784 87.4932 472.733 87.8512C472.738 87.8977 472.738 87.9396 472.733 87.9861C472.696 88.2697 472.655 88.5533 472.618 88.8369C472.544 89.3437 472.46 89.8505 472.377 90.3619L472.239 91.1802C472.239 91.2825 472.206 91.3848 472.183 91.4824C472.146 91.7149 472.104 91.9474 472.058 92.1705C472.012 92.3937 471.966 92.6866 471.915 92.9423C471.864 93.198 471.799 93.5281 471.744 93.8211C471.688 94.114 471.628 94.3604 471.573 94.6301C471.466 95.1368 471.355 95.6483 471.24 96.1597C471.147 96.5456 471.06 96.9362 470.962 97.3221C470.865 97.708 470.796 98.0195 470.708 98.3728C470.708 98.4565 470.666 98.5402 470.643 98.6239C470.565 98.9214 470.491 99.2283 470.408 99.5538C470.408 99.6328 470.366 99.7119 470.347 99.7909C470.315 99.749 460.434 89.0973 443.696 80.5005C456.906 84.2572 472.604 56.4213 459.805 32.5605Z" fill="#B22443" stroke="#FD485A" stroke-miterlimit="10"/>
<path d="M427.564 124.406C437.824 124.406 446.142 116.042 446.142 105.724C446.142 95.4069 437.824 87.043 427.564 87.043C417.304 87.043 408.986 95.4069 408.986 105.724C408.986 116.042 417.304 124.406 427.564 124.406Z" fill="#4643E0"/>
<path d="M440.367 108.899C440.173 109.68 439.909 110.442 439.581 111.177C436.575 117.849 428.757 120.801 422.126 117.779C416.143 115.05 413.068 108.308 414.918 101.966C415.602 99.6463 416.902 97.5587 418.677 95.9221C424.059 90.9844 432.396 91.3703 437.306 96.7822C440.274 100.051 441.426 104.598 440.367 108.899Z" fill="#1CE5FF"/>
<path opacity="0.5" d="M384.12 188.665L366.822 180.821L377.235 154.501L382.469 150.781C377.022 166.222 384.984 175.66 384.984 175.66L384.12 188.665Z" fill="#30A1BB"/>
<path d="M417.826 156.202L395.683 203.087C395.249 204.017 390.852 202.905 385.858 200.641C382.409 199.079 379.551 197.354 378.238 196.122C377.651 195.578 377.369 195.132 377.484 194.839L396.409 146.485C397.482 143.807 399.281 141.487 401.597 139.785L410.382 133.146C411.631 132.216 413.462 132.281 415.006 132.992C416.55 133.704 417.854 135.033 418.011 136.614L419.139 147.75C419.486 150.637 419.033 153.561 417.826 156.202Z" fill="url(#paint5_linear_523_134)"/>
<path d="M369.499 187.558C369.152 188.539 364.778 187.478 359.729 185.186C357.76 184.308 355.859 183.289 354.033 182.141C352.091 180.886 350.94 179.788 351.097 179.221L362.98 136.628C363.72 133.973 365.227 131.593 367.303 129.789L375.043 122.982C376.116 122.052 377.817 122.052 379.306 122.722C380.887 123.4 382.284 124.763 382.584 126.395L384.628 137.642C385.201 140.492 385.016 143.444 384.096 146.201L369.499 187.558Z" fill="url(#paint6_linear_523_134)"/>
<path opacity="0.5" d="M417.827 156.202L395.684 203.087C395.249 204.017 390.852 202.906 385.858 200.641C382.409 199.079 379.551 197.354 378.238 196.122C384.559 200.772 393.547 194.504 403.553 171.857C413.559 149.21 417.401 134.355 415.034 133.002C416.592 133.709 417.882 135.043 418.039 136.624L419.167 147.759C419.505 150.646 419.038 153.566 417.827 156.202Z" fill="#B22443" stroke="#FD485A" stroke-miterlimit="10"/>
<path opacity="0.5" d="M369.5 187.557C369.153 188.538 364.779 187.478 359.73 185.186C357.76 184.307 355.86 183.289 354.033 182.14C359.031 184.67 367.206 174.329 371.918 161.762C376.629 149.195 382.552 124.199 379.316 122.707C380.897 123.386 382.293 124.748 382.594 126.38L384.638 137.627C385.211 140.477 385.026 143.429 384.106 146.187L369.5 187.557Z" fill="#B22443" stroke="#FD485A" stroke-miterlimit="10"/>
<path opacity="0.5" d="M447.446 174.92L424.706 212.58C424.165 213.468 419.62 212.338 414.589 210.051C411.057 208.447 408.176 206.694 406.933 205.467C413.378 209.814 421.109 205.369 430.134 190.323C439.081 175.408 449.425 154.988 446.031 152.961C447.732 153.612 449.129 154.974 449.17 156.569L449.466 167.021C449.573 169.796 448.87 172.54 447.446 174.92Z" fill="#B22443" stroke="#FD485A" stroke-miterlimit="10"/>
<path d="M427.888 92.4684C424.489 92.3894 421.193 93.6261 418.677 95.9276L434.625 116.924C436.802 115.539 438.527 113.539 439.581 111.173C439.909 110.438 440.173 109.676 440.367 108.895L427.888 92.4684ZM416.564 98.4382C415.852 99.5262 415.302 100.712 414.932 101.962L427.855 118.984C429.155 118.956 430.44 118.738 431.675 118.328L416.564 98.4382Z" fill="#0BFFFF"/>
<path opacity="0.2" d="M415.463 104.338C416.148 102.018 417.447 99.9309 419.223 98.2943C424.609 93.3705 432.946 93.7704 437.842 99.1869C439.086 100.563 440.025 102.186 440.607 103.953C439.636 96.6995 433.001 91.6084 425.784 92.5848C423.125 92.9428 420.637 94.1098 418.658 95.9277C416.883 97.5643 415.584 99.6519 414.899 101.972C414.136 104.557 414.183 107.314 415.024 109.876C414.779 108.021 414.927 106.133 415.463 104.338Z" fill="#4643E0"/>
<path d="M322.421 223.511C322.421 223.511 309.937 216.63 303.117 230.745C303.117 230.745 309.548 224.478 322.421 223.511Z" fill="#FAF02C"/>
<path d="M344.402 284.646C344.402 284.646 346.168 292.086 340.532 300.148C340.532 300.148 345.618 299.473 346.843 294.424C348.068 289.375 344.402 284.646 344.402 284.646Z" fill="#FAF02C"/>
<path d="M448.116 4.20851C442.434 5.53359 436.839 7.19807 431.36 9.20196C424.702 11.6243 418.294 14.6976 412.227 18.3659L411.4 18.882L411.057 19.0959C409.975 19.7794 409.647 21.2114 410.322 22.2993C411.002 23.3873 412.426 23.7174 413.513 23.0386L413.859 22.8154L414.618 22.3505C420.434 18.8355 426.579 15.9018 432.965 13.5863C438.268 11.6522 443.682 10.0342 449.18 8.75097C450.414 8.43016 451.163 7.16553 450.844 5.91949C450.535 4.71064 449.332 3.96209 448.116 4.22711V4.20851ZM385.47 41.8919C385.058 42.3987 384.647 42.9194 384.268 43.3983L384.092 43.6215L383.482 44.3933C383.047 44.9605 382.612 45.537 382.168 46.1322L382.095 46.2298L381.535 46.9783C381.073 47.6246 380.61 48.2848 380.148 48.9497L379.662 49.6378C379.038 50.5351 378.414 51.4557 377.813 52.3763L376.514 54.3523L376.477 54.436C373.18 59.6247 370.165 64.9948 367.451 70.5136C366.883 71.662 367.35 73.0568 368.492 73.6287C368.811 73.7915 369.162 73.8751 369.518 73.8751C370.397 73.8751 371.196 73.3776 371.589 72.5872C374.243 67.1753 377.193 61.9122 380.425 56.8258L381.632 54.966C382.219 54.078 382.825 53.1853 383.426 52.3205C383.574 52.1066 383.722 51.9021 383.889 51.6928L383.926 51.6417C384.388 51.014 384.823 50.3771 385.276 49.754L385.798 49.0613L385.881 48.945C386.316 48.3685 386.732 47.8106 387.153 47.2666C387.329 47.0388 387.523 46.8017 387.722 46.546L387.907 46.3135C388.272 45.8485 388.665 45.3464 389.062 44.8629C389.872 43.8725 389.728 42.4033 388.743 41.5897C387.759 40.776 386.297 40.9202 385.488 41.9105L385.47 41.8919ZM503.49 76.4835C503.49 76.1161 503.49 75.7442 503.49 75.3955C503.49 75.2607 503.49 75.1212 503.49 74.9956C503.49 74.7074 503.49 74.4145 503.49 74.1634V73.5683C503.49 73.2149 503.462 72.8662 503.444 72.5175C503.425 72.1688 503.411 71.7829 503.388 71.4296C503.388 71.4296 503.328 70.4253 503.31 70.137C503.222 68.8538 502.121 67.8821 500.845 67.9657C499.569 68.0541 498.603 69.1606 498.686 70.4485C498.686 70.7321 498.765 71.7085 498.765 71.7085C498.765 72.0386 498.802 72.3873 498.82 72.736C498.839 73.0847 498.848 73.3869 498.857 73.7124V74.3122C498.857 74.5493 498.857 74.819 498.857 75.0979C498.857 75.2142 498.857 75.3304 498.857 75.4745C498.857 75.8232 498.857 76.1673 498.857 76.5253V77.6412C498.857 77.8829 498.857 78.1061 498.857 78.3758C498.857 78.6454 498.857 79.0127 498.857 79.3428V79.3893C498.857 79.6125 498.857 79.831 498.857 80.0821C498.857 80.4122 498.857 80.7423 498.829 81.0631V81.2258C498.829 81.6303 498.797 82.0395 498.774 82.444L498.723 83.3088C498.723 83.5877 498.691 83.8667 498.677 84.141C498.644 84.606 498.607 85.0244 498.575 85.4335L498.487 86.4983C498.436 87.0422 498.385 87.563 498.33 88.0744L498.14 89.7435C498.09 90.1852 498.034 90.6269 497.974 91.0826C497.946 91.2871 497.918 91.4871 497.886 91.7102L497.771 92.5099C497.673 93.1702 497.572 93.835 497.461 94.4952L497.336 95.2531C497.29 95.5274 497.243 95.8017 497.183 96.1086C497.123 96.4154 497.095 96.6014 497.045 96.8618L496.855 97.8707C496.795 98.1776 496.73 98.5216 496.661 98.8564L496.467 99.7862C496.434 99.9443 496.393 100.135 496.346 100.34L496.166 101.162C496.115 101.4 496.06 101.627 496.009 101.869C495.898 102.353 495.787 102.818 495.676 103.264L495.431 104.264C495.371 104.515 495.311 104.766 495.241 105.026L494.95 106.142L491.931 117.733C491.612 118.974 492.356 120.244 493.591 120.564C494.825 120.885 496.087 120.137 496.406 118.895L499.384 107.351C499.463 107.035 499.634 106.379 499.671 106.235C499.745 105.951 499.819 105.668 499.884 105.393L500.124 104.403C500.24 103.938 500.355 103.445 500.471 102.939C500.531 102.678 500.586 102.418 500.637 102.181C500.67 102.051 500.757 101.632 500.818 101.362C500.878 101.093 500.915 100.925 500.952 100.753L501.146 99.8234C501.22 99.4608 501.294 99.0981 501.354 98.768L501.543 97.7684C501.599 97.4941 501.645 97.2198 501.691 96.978C501.752 96.6618 501.807 96.341 501.853 96.0481L501.978 95.2996C502.094 94.6022 502.205 93.9048 502.306 93.2073L502.417 92.4123C502.454 92.1798 502.487 91.9474 502.514 91.7242C502.579 91.2592 502.635 90.7943 502.69 90.3294C502.746 89.8644 502.884 88.6416 502.884 88.6323C502.944 88.0744 503 87.5211 503.051 86.94L503.143 85.8613C503.176 85.4289 503.213 84.9919 503.245 84.4665C503.245 84.1689 503.282 83.8713 503.3 83.5877L503.347 82.7276C503.374 82.2906 503.393 81.8489 503.407 81.4351V81.2909C503.407 80.9329 503.407 80.5703 503.439 80.2448C503.439 80.003 503.439 79.752 503.439 79.4916V79.4498C503.439 79.1057 503.439 78.7617 503.439 78.4315C503.439 78.1014 503.439 77.9108 503.439 77.6644V76.502L503.49 76.4835ZM446.743 23.7592C447.973 23.4105 448.685 22.1226 448.334 20.8859C447.987 19.6492 446.706 18.9332 445.476 19.2865C444.246 19.6352 443.534 20.9231 443.886 22.1598C444.168 23.1641 445.079 23.8522 446.119 23.8476C446.332 23.8476 446.54 23.8197 446.743 23.7592ZM486.9 86.117C485.624 85.9729 484.473 86.8981 484.329 88.1813C484.186 89.4646 485.106 90.6223 486.382 90.7664H486.655C487.931 90.8408 489.027 89.8598 489.101 88.5765C489.175 87.2933 488.199 86.1914 486.923 86.117H486.9ZM487.219 72.4106C485.943 72.4292 484.926 73.4892 484.944 74.7725C484.963 76.0557 486.017 77.0786 487.293 77.06H487.363C488.639 77.0181 489.642 75.9488 489.6 74.6609C489.559 73.373 488.495 72.3734 487.219 72.4106ZM419.431 30.2963C418.34 30.9612 417.988 32.3885 418.645 33.4858C419.306 34.583 420.726 34.9364 421.817 34.2762C422.908 33.6113 423.259 32.184 422.603 31.0867C422.603 31.0867 422.603 31.0867 422.603 31.082C421.942 29.9848 420.522 29.6361 419.431 30.2963ZM432.123 23.8708C430.944 24.3637 430.385 25.7213 430.87 26.9069C431.226 27.7763 432.072 28.3435 433.006 28.3435C433.307 28.3435 433.607 28.2831 433.885 28.1669C435.064 27.6787 435.628 26.3164 435.142 25.1308C434.657 23.9452 433.302 23.378 432.123 23.8662V23.8708ZM486.22 63.2792C487.473 63.0374 488.297 61.8192 488.051 60.5546C487.811 59.2946 486.6 58.467 485.342 58.7134C484.089 58.9552 483.266 60.1733 483.511 61.438C483.719 62.5213 484.658 63.3117 485.758 63.321C485.915 63.321 486.072 63.307 486.225 63.2792H486.22ZM475.692 32.7093C474.546 33.2766 474.074 34.6714 474.638 35.8198C475.202 36.9728 476.589 37.4471 477.731 36.8798C478.878 36.3126 479.35 34.9178 478.786 33.7694V33.7648C478.221 32.6164 476.839 32.1468 475.697 32.7093H475.692ZM459.163 16.0784C457.909 16.3341 457.105 17.5616 457.355 18.8169C457.572 19.9002 458.524 20.6813 459.625 20.6813C459.782 20.6813 459.935 20.6674 460.087 20.6348C461.34 20.3791 462.145 19.1517 461.891 17.8917C461.636 16.6364 460.416 15.8227 459.163 16.0784ZM484.292 46.7645C483.862 45.5556 482.535 44.928 481.333 45.3604C480.131 45.7927 479.507 47.1271 479.937 48.336C480.367 49.5448 481.694 50.1725 482.896 49.7401C482.901 49.7401 482.901 49.7401 482.905 49.7354C484.094 49.2984 484.713 47.978 484.292 46.7784V46.7645ZM468.932 20.5186C467.823 21.1556 467.444 22.5783 468.077 23.6941C468.71 24.81 470.125 25.1913 471.235 24.5543C472.345 23.9173 472.724 22.4946 472.09 21.3787C472.09 21.3787 472.09 21.3741 472.086 21.3741C471.443 20.2675 470.033 19.8909 468.932 20.5326V20.5186ZM354.838 122.606C353.784 121.88 352.346 122.155 351.624 123.21C350.903 124.27 351.176 125.716 352.225 126.441C353.27 127.162 354.694 126.902 355.42 125.86C356.155 124.809 355.901 123.359 354.856 122.619C354.852 122.615 354.847 122.61 354.838 122.606ZM361.824 112.981C360.862 113.827 360.765 115.297 361.607 116.264C362.448 117.231 363.909 117.328 364.871 116.482C365.828 115.636 365.93 114.171 365.088 113.204C364.247 112.233 362.786 112.135 361.824 112.981ZM345.244 148.563C344.014 148.214 342.737 148.94 342.391 150.172C342.044 151.409 342.765 152.692 343.995 153.04C344.199 153.096 344.407 153.124 344.619 153.124C345.895 153.12 346.927 152.078 346.922 150.79C346.922 149.758 346.238 148.847 345.244 148.563ZM348.989 135.131C347.759 134.782 346.483 135.508 346.136 136.74C345.789 137.976 346.51 139.26 347.74 139.608C347.944 139.669 348.152 139.697 348.365 139.697C349.641 139.701 350.681 138.665 350.686 137.381C350.69 136.335 349.997 135.41 348.989 135.131ZM455.149 182.945C454.049 182.295 452.634 182.662 451.982 183.768C451.335 184.875 451.7 186.298 452.8 186.953C453.901 187.604 455.316 187.237 455.963 186.13C456.615 185.024 456.25 183.601 455.149 182.945ZM448.107 194.964C447.002 194.318 445.587 194.694 444.949 195.806C444.307 196.917 444.681 198.34 445.786 198.981C446.882 199.618 448.283 199.256 448.93 198.163C449.587 197.061 449.231 195.634 448.135 194.973C448.126 194.973 448.116 194.969 448.107 194.964ZM441.07 207.001C439.969 206.351 438.555 206.718 437.903 207.824C437.255 208.931 437.621 210.354 438.721 211.009C439.822 211.66 441.236 211.293 441.884 210.186C442.536 209.08 442.17 207.657 441.07 207.001ZM434.023 218.997C432.923 218.346 431.508 218.713 430.856 219.82C430.209 220.926 430.574 222.349 431.675 223.005C432.775 223.656 434.19 223.288 434.842 222.182C434.842 222.182 434.842 222.182 434.842 222.177C435.489 221.071 435.124 219.648 434.023 218.997Z" fill="#4169C9"/>
</g>
<defs>
<linearGradient id="paint0_linear_523_134" x1="261.346" y1="244.651" x2="427.453" y2="244.651" gradientUnits="userSpaceOnUse">
<stop stop-color="#FB571D"/>
<stop offset="1" stop-color="#FACC2C"/>
</linearGradient>
<linearGradient id="paint1_linear_523_134" x1="328.959" y1="293.814" x2="349.941" y2="293.814" gradientUnits="userSpaceOnUse">
<stop stop-color="#FB571D"/>
<stop offset="1" stop-color="#FACC2C"/>
</linearGradient>
<linearGradient id="paint2_linear_523_134" x1="276.147" y1="232.438" x2="328.959" y2="232.438" gradientUnits="userSpaceOnUse">
<stop stop-color="#FB571D"/>
<stop offset="1" stop-color="#FACC2C"/>
</linearGradient>
<linearGradient id="paint3_linear_523_134" x1="433.573" y1="184.505" x2="419.469" y2="173.858" gradientUnits="userSpaceOnUse">
<stop stop-color="#FD2371"/>
<stop offset="1" stop-color="#FD6747"/>
</linearGradient>
<linearGradient id="paint4_linear_523_134" x1="471.874" y1="95.1694" x2="424.88" y2="44.3691" gradientUnits="userSpaceOnUse">
<stop stop-color="#FD2371"/>
<stop offset="1" stop-color="#FD6747"/>
</linearGradient>
<linearGradient id="paint5_linear_523_134" x1="407.778" y1="170.469" x2="391.357" y2="162.432" gradientUnits="userSpaceOnUse">
<stop stop-color="#FD2371"/>
<stop offset="1" stop-color="#FD6747"/>
</linearGradient>
<linearGradient id="paint6_linear_523_134" x1="376.249" y1="156.284" x2="360.105" y2="151.106" gradientUnits="userSpaceOnUse">
<stop stop-color="#FD2371"/>
<stop offset="1" stop-color="#FD6747"/>
</linearGradient>
<clipPath id="clip0_523_134">
<rect width="521" height="393" fill="white"/>
</clipPath>
</defs>
</svg>
