<svg width="352" height="387" viewBox="0 0 352 387" fill="none" xmlns="http://www.w3.org/2000/svg">
<g clip-path="url(#clip0_523_183)">
<path d="M163.62 172.582H153.38L135.756 0H181.244L163.62 172.582Z" fill="url(#paint0_linear_523_183)"/>
<path d="M153.38 214.418H163.62L181.244 387H135.756L153.38 214.418Z" fill="url(#paint1_linear_523_183)"/>
<path d="M179.418 198.62V188.379L352 170.756V216.243L179.418 198.62Z" fill="url(#paint2_linear_523_183)"/>
<path d="M137.582 188.379V198.62L-35 216.243V170.756L137.582 188.379Z" fill="url(#paint3_linear_523_183)"/>
<path d="M176.877 182.347L169.653 175.044L279.204 40.5664L311.434 72.7966L176.877 182.347Z" fill="url(#paint4_linear_523_183)"/>
<path d="M140.043 204.654L147.346 211.878L37.7956 346.435L5.56543 314.205L140.043 204.654Z" fill="url(#paint5_linear_523_183)"/>
<path d="M169.653 211.878L176.877 204.654L311.434 314.205L279.204 346.435L169.653 211.878Z" fill="url(#paint6_linear_523_183)"/>
<path d="M147.346 175.044L140.043 182.347L5.56543 72.7966L37.7956 40.5664L147.346 175.044Z" fill="url(#paint7_linear_523_183)"/>
<path d="M174.893 118.202C174.893 118.202 178.703 111.375 183.466 114.312C191.246 119.075 188.785 129.792 188.785 129.792L186.959 125.029C186.959 125.029 189.341 132.571 185.53 137.731L185.927 132.729C185.927 132.729 182.911 139.874 177.592 140.668C172.273 141.462 171.4 141.462 170.844 144.637C170.288 147.812 174.575 149.956 173.226 149.718C168.383 148.924 168.859 142.732 168.859 142.732L168.066 147.177C168.066 147.177 161.874 135.27 162.271 129.713C162.668 124.156 165.287 120.345 165.287 120.345L162.112 121.536C162.191 121.615 171.717 106.532 174.893 118.202Z" fill="#333333"/>
<path d="M179.576 134.793C182.117 130.188 186.007 125.028 176.957 120.265C175.528 119.471 172.035 120.107 170.685 120.027C169.733 119.948 169.653 120.98 168.78 121.139C162.509 122.091 159.016 127.013 159.016 127.013C159.016 127.013 164.732 135.745 147.664 146.939C145.679 148.209 159.889 170.516 161.318 162.26C166.002 134.158 178.068 137.492 179.576 134.793Z" fill="#EABFA5"/>
<path d="M164.732 123.045C164.732 123.045 167.51 122.252 170.606 126.3C170.924 126.697 170.765 127.332 170.289 127.412C168.939 127.809 166.478 128.285 164.255 127.491C160.207 126.141 164.732 123.045 164.732 123.045Z" fill="#D84744"/>
<path d="M170.289 127.41C169.812 127.014 169.098 126.775 168.304 126.775C167.272 126.775 166.319 127.252 165.764 127.887C167.59 128.046 169.257 127.728 170.289 127.41Z" fill="#822A2A"/>
<path d="M170.051 126.935C170.051 126.935 167.352 124.315 164.414 123.997C164.414 123.997 167.034 124.791 164.256 124.871C164.256 124.871 163.462 124.474 163.859 123.839C163.859 123.759 164.335 123.442 164.653 123.204C164.811 123.045 165.049 122.965 165.288 123.045C166.32 123.124 169.098 123.68 170.051 126.935Z" fill="#EEF9F9"/>
<path d="M162.906 126.776C163.144 127.094 163.62 127.332 164.176 127.57C164.652 127.729 165.208 127.888 165.764 127.888C165.764 127.888 166.24 127.491 165.684 127.014C165.129 126.459 163.461 126.3 162.906 126.776Z" fill="#EEF9F9"/>
<path d="M164.255 127.57C165.526 127.967 166.875 128.047 167.987 127.888C167.351 127.57 166.478 127.332 165.526 127.332C165.049 127.332 164.573 127.411 164.097 127.491C164.097 127.491 164.176 127.491 164.255 127.57Z" fill="#FFABAB"/>
<path d="M158.54 135.906C159.175 142.416 155.523 156.784 154.65 160.039C154.729 160.198 154.888 160.277 154.967 160.436L162.35 156.625C165.684 142.733 171.083 138.684 174.972 136.938C173.464 136.224 171.956 135.509 170.447 134.795C161.318 130.27 158.857 126.936 158.857 126.936C158.857 126.936 161.239 130.508 158.54 135.906Z" fill="#D8A98F"/>
<path d="M179.656 133.444C179.656 133.444 181.561 133.92 180.133 135.905C178.704 137.89 174.179 137.969 175.29 135.429C176.401 132.888 179.656 133.444 179.656 133.444Z" fill="#EABFA5"/>
<path d="M173.702 123.601C173.702 123.601 177.513 121.775 178.545 126.618C178.545 126.618 177.592 123.442 173.702 123.601Z" fill="#822A2A"/>
<path d="M175.29 122.41C175.29 122.41 180.609 120.981 180.053 125.903C180.053 125.982 179.18 122.251 175.29 122.41Z" fill="#333333"/>
<path d="M170.13 119.949C170.13 119.949 173.147 120.108 173.305 121.775C173.226 121.775 173.702 118.282 170.13 119.949Z" fill="#333333"/>
<path d="M171.797 122.25C171.797 122.25 172.194 120.107 168.463 121.377C168.463 121.456 170.924 120.98 171.797 122.25Z" fill="#822A2A"/>
<path d="M169.574 122.33L168.939 121.774C168.939 121.774 169.257 121.06 170.924 121.695C172.591 122.33 173.781 121.933 173.781 121.933L170.685 124.156L169.574 122.33Z" fill="#F7CAB2"/>
<path d="M167.986 122.568L168.939 121.775C169.336 121.457 169.892 121.616 170.05 122.092L170.606 124.156C170.685 124.156 169.892 123.124 167.986 122.568Z" fill="#D8A98F"/>
<path d="M179.259 134.316C179.259 134.316 179.577 136.142 176.957 136.142C176.957 136.142 178.227 135.587 177.989 135.11C177.751 134.634 177.036 134.634 177.036 134.634C177.036 134.634 178.307 134.555 178.465 134.872C178.624 135.19 178.545 135.587 178.545 135.587L179.259 134.316Z" fill="#D8A98F"/>
<path d="M176.004 132.968C176.004 132.968 179.973 132.492 180.37 129.713C180.37 129.713 181.878 129.316 183.149 128.046C184.419 126.855 181.005 134.476 181.005 134.476C181.005 134.476 180.211 133.047 176.639 134.715L176.004 132.968Z" fill="#333333"/>
<path d="M182.196 40.4852C183.228 42.4698 186.006 42.0729 187.991 40.644C189.896 39.2151 190.372 36.9923 190.055 35.0871C189.261 30.0858 183.387 27.8631 177.988 30.4828C171.003 33.7375 169.335 40.4058 169.097 46.3597C169.018 49.2969 170.288 54.6157 165.843 55.9652C163.064 56.8385 161.635 54.5363 161 52.6311C160.603 51.3609 160.683 49.4557 162.667 48.9794C164.572 48.5031 165.922 50.6465 163.54 50.6465C163.62 51.3609 163.779 51.996 163.858 52.7105C164.017 52.6311 164.096 52.5517 164.255 52.4723C165.843 51.6784 164.414 49.8526 162.905 50.6465C162.747 50.7258 162.667 50.8052 162.508 50.8846C161.556 51.3609 161.715 52.9486 162.826 52.9486C164.731 52.9486 167.192 52.4723 167.748 50.5671C168.303 48.7412 166.478 47.0741 164.652 46.6772C162.429 46.2803 160.047 47.3917 158.857 49.1381C157.348 51.3609 158.301 53.8218 159.492 55.7271C160.762 57.7117 162.588 58.9025 165.446 58.4261C168.065 58.0292 170.209 56.3621 171.161 54.2188C172.273 51.5991 171.717 48.7412 171.796 46.1215C171.876 42.5492 172.352 38.58 175.131 35.484C177.671 32.6261 182.593 30.1652 185.848 32.7849C186.959 33.6581 187.515 35.0871 187.515 36.4366C187.515 37.0717 187.435 37.7861 187.038 38.3418C186.88 38.58 185.054 39.9295 184.895 39.6914C184.101 38.3418 181.481 39.2151 182.196 40.4852Z" fill="#E5A920"/>
<path d="M204.82 67.8731L200.295 54.4571L198.866 50.1703L194.421 36.7543C194.183 35.9605 193.151 35.5636 192.198 35.8811C191.246 36.1986 190.69 37.0719 190.928 37.8657L191.007 38.0245C187.753 39.1359 184.895 41.1999 183.148 43.8196C181.958 45.566 180.926 47.7888 180.529 50.3291C179.973 53.7426 177.274 56.8386 173.384 58.1088L173.146 58.1882C170.606 59.0614 167.986 58.982 165.684 58.1088L163.143 57.0768C162.032 56.6799 160.682 56.6005 159.492 57.0768L161.397 62.7131L162.826 66.9999L164.731 72.6362C165.922 72.2393 167.033 71.4454 167.589 70.4134L169.018 68.0319C170.288 65.9679 172.431 64.3008 174.972 63.5069L175.21 63.4276C179.02 62.1574 183.069 62.9513 185.609 65.4122C187.435 67.1586 189.658 68.27 191.642 68.9845C194.659 70.0165 198.152 69.9371 201.407 68.9051L201.486 69.0639C201.724 69.8577 202.756 70.2546 203.709 69.9371C204.503 69.6196 205.058 68.6669 204.82 67.8731Z" fill="#E5A920"/>
<path d="M180.529 56.4423C181.878 55.0927 184.101 52.0761 185.371 50.5678C187.118 48.5832 189.579 46.9161 192.436 45.8047C192.754 45.646 201.089 69.1438 201.407 69.0644L193.468 45.4078L193.389 45.2491C193.151 44.614 193.786 43.8995 194.739 43.582C195.691 43.2644 196.644 43.5026 196.803 44.0583L194.262 36.5961C194.024 35.8023 192.992 35.4054 192.039 35.7229C191.087 36.0404 190.531 36.9137 190.769 37.7075L190.849 37.8663C187.594 38.9777 184.736 41.0417 182.99 43.6614C181.799 45.4078 180.767 47.6306 180.37 50.1709C179.814 53.5844 177.115 56.6804 173.225 57.9506L172.987 58.03C170.447 58.9032 167.827 58.8238 165.525 57.9506L162.985 56.9186C161.873 56.5217 160.524 56.4423 159.333 56.9186L161.159 62.4755C162.35 62.0786 164.652 61.8404 166.875 61.5229C167.033 61.7611 178.385 58.6651 180.529 56.4423Z" fill="#C68D1A"/>
<path d="M192.833 72.3187C192.436 70.1753 194.977 68.7464 197.358 68.7464C199.74 68.7464 201.486 70.2547 202.359 72.0012C204.741 76.4467 201.407 81.7655 195.453 82.9563C187.911 84.544 182.513 80.2572 178.782 75.6529C176.956 73.3507 174.734 68.3495 170.367 69.9372C167.589 70.9692 167.907 73.6683 168.542 75.4941C168.939 76.7643 170.129 78.1932 172.035 77.3993C173.86 76.6055 173.622 74.0652 171.717 75.5735C171.399 74.9384 171.082 74.3033 170.764 73.7477C170.923 73.7477 171.082 73.6683 171.241 73.6683C172.987 73.3507 172.987 75.6529 171.241 75.9704C171.082 75.9704 170.923 76.0498 170.764 76.0498C169.653 76.2086 168.939 74.859 169.812 74.224C171.241 73.0332 173.543 72.0012 175.131 73.192C176.639 74.3033 176.242 76.7643 174.972 78.1932C173.463 79.8603 170.923 80.416 168.859 79.7809C166.319 78.9077 165.604 76.3673 165.366 74.1446C165.207 71.8424 165.922 69.699 168.462 68.3495C170.844 67.0793 173.543 67.0793 175.607 68.2701C178.068 69.699 179.338 72.2393 181.005 74.3033C183.228 77.0818 186.006 80.019 190.055 80.8129C193.786 81.5273 199.263 80.5747 200.216 76.5261C200.534 75.1766 200.137 73.6683 199.343 72.6363C198.946 72.16 198.47 71.6043 197.835 71.3661C197.517 71.2867 195.215 71.2867 195.294 71.6043C195.691 72.8744 193.071 73.7477 192.833 72.3187Z" fill="#E5A920"/>
<path d="M192.674 52.4715C193.071 52.4715 193.389 52.2333 193.627 51.9158C193.706 51.757 193.865 51.5189 193.945 51.2013C193.945 51.1219 193.945 50.9632 193.865 50.8838C193.627 50.5662 192.436 49.2961 191.325 49.2961C191.325 49.1373 191.246 48.9785 191.166 48.8992C191.007 48.7404 189.578 47.9465 188.626 48.3435C188.546 48.2641 188.546 48.1847 188.467 48.1053C188.467 48.1053 188.388 48.1053 188.388 48.0259C188.15 47.8672 186.721 47.7878 185.927 48.4229C185.847 48.3435 185.768 48.3435 185.689 48.3435C185.689 48.3435 185.689 48.3435 185.609 48.3435C185.133 48.3435 184.022 48.8198 183.545 49.693C183.466 49.693 183.386 49.693 183.386 49.693H183.307H183.228C182.672 49.9312 181.878 50.9632 181.719 51.9158H181.64H181.561C181.481 51.9158 181.481 51.9952 181.402 51.9952C180.926 52.4715 180.449 54.1385 180.687 55.0118C180.687 55.0912 180.767 55.1705 180.767 55.2499C181.005 55.9644 181.481 56.3613 182.196 56.4407C182.275 56.5201 182.354 56.5201 182.513 56.5995C183.069 56.8376 183.704 56.7582 184.101 56.3613C184.498 55.9644 184.815 55.3293 184.974 54.7736V54.6942C185.054 54.6149 185.054 54.4561 185.054 54.3767V54.2973C185.45 54.0592 185.768 53.6622 185.927 53.4241C186.006 53.3447 186.086 53.1859 186.086 53.1065C186.562 53.0272 186.959 52.789 187.118 52.7096C187.197 52.6302 187.356 52.6302 187.356 52.4715C187.832 52.5508 188.229 52.5508 188.467 52.5508C188.626 52.5508 188.705 52.5508 188.785 52.4715C189.182 52.789 189.658 52.9478 189.896 53.0272C190.055 53.1065 190.134 53.1065 190.293 53.0272C190.61 53.5035 191.087 53.821 191.325 54.0592L191.404 54.1385C191.563 54.2973 191.722 54.3767 191.96 54.2973C192.119 54.2973 192.198 54.2179 192.278 54.0592C192.674 53.6622 192.833 53.1065 192.674 52.4715ZM188.229 64.3792C188.308 64.3792 188.308 64.2998 188.388 64.2204C189.261 64.6173 190.531 64.2998 190.849 63.9822C190.928 63.9029 190.928 63.8235 191.007 63.7441C192.039 63.8235 193.071 62.7915 193.23 62.5533V62.4739C193.23 62.3945 193.23 62.3152 193.23 62.2358C194.262 61.9182 194.897 60.4099 194.897 60.2512C194.897 60.1718 194.897 60.013 194.818 59.8542C195.612 59.2192 195.85 57.4727 195.85 57.0758C195.85 56.9964 195.77 56.8376 195.691 56.7582C195.532 56.5995 195.215 56.4407 195.056 56.3613C194.659 56.2025 194.262 56.2819 193.945 56.5201C193.706 55.9644 193.23 55.5675 192.516 55.4881C192.357 55.4881 192.278 55.4881 192.119 55.4881C191.96 55.5675 191.801 55.7262 191.801 55.9644V56.0438C191.722 56.2819 191.563 56.917 191.563 57.4727C191.404 57.5521 191.325 57.6315 191.246 57.7902C191.087 57.949 190.849 58.3459 190.69 58.8222C190.452 58.8222 190.214 58.981 190.134 59.2192C190.214 59.0604 190.293 58.981 190.293 58.9016C190.134 58.981 189.737 59.2192 189.42 59.6161C189.261 59.5367 189.182 59.5367 189.023 59.6161C188.785 59.6161 188.388 59.6955 187.991 59.9336C187.911 59.8542 187.753 59.7749 187.594 59.7749C187.356 59.6955 186.879 59.6161 186.403 59.6161V59.5367C186.324 59.4573 186.244 59.2985 186.165 59.2985H186.086C185.609 58.981 185.054 58.6635 184.418 58.5841C183.863 58.5047 183.386 58.8222 183.069 59.3779C182.99 59.5367 182.91 59.6161 182.91 59.6955C182.434 60.1718 182.275 60.8069 182.513 61.5213C182.513 61.6007 182.593 61.6801 182.593 61.7595C182.99 62.6327 184.339 63.6647 185.054 63.7441C185.133 63.7441 185.133 63.7441 185.212 63.7441H185.292C185.292 63.7441 185.371 63.7441 185.371 63.6647C186.086 64.3792 187.356 64.6173 187.911 64.5379C188.07 64.4585 188.15 64.4585 188.229 64.3792C188.229 64.3792 188.15 64.3792 188.229 64.3792ZM188.785 59.9336C188.785 59.9336 188.785 59.8542 188.864 59.8542C188.785 59.8542 188.785 59.8542 188.785 59.9336Z" fill="#C68D1A"/>
<path d="M186.165 50.4876C186.165 50.4876 185.609 49.6143 186.085 48.9793C186.562 48.2648 188.07 48.5029 187.991 48.5029C187.276 49.0586 186.641 49.6937 186.165 50.4876Z" fill="#EFB135"/>
<path d="M187.832 49.9309C187.276 50.3278 186.244 50.4866 186.244 50.4866C186.72 49.6927 187.356 49.0576 188.149 48.502C188.07 48.502 188.388 49.4546 187.832 49.9309Z" fill="#FCC34F"/>
<path d="M186.244 50.6465C186.244 50.6465 186.403 51.5991 186.959 51.9166C187.514 52.2342 188.308 52.0754 188.308 52.0754C187.752 51.5197 187.038 50.964 186.244 50.6465Z" fill="#FCC34F"/>
<path d="M187.911 50.6463C187.276 50.0906 186.244 50.567 186.244 50.567C187.038 50.8845 187.752 51.4402 188.387 52.0753C188.308 52.0753 188.467 51.1226 187.911 50.6463Z" fill="#EFB135"/>
<path d="M188.308 50.25C188.308 50.25 187.991 49.2974 188.626 48.9005C189.34 48.5036 190.769 49.218 190.69 49.2974C189.817 49.3768 188.943 49.7737 188.308 50.25Z" fill="#EFB135"/>
<path d="M190.134 50.4083C189.499 50.567 188.388 50.2495 188.309 50.2495C188.944 49.7732 189.817 49.3763 190.77 49.2969C190.77 49.2969 190.77 50.2495 190.134 50.4083Z" fill="#FCC34F"/>
<path d="M188.308 50.4082C188.308 50.4082 188.229 51.2814 188.705 51.8371C189.181 52.3134 190.055 52.5516 190.055 52.5516C189.658 51.7577 189.023 51.0433 188.308 50.4082Z" fill="#FCC34F"/>
<path d="M189.976 51.1227C189.499 50.4082 188.309 50.4082 188.309 50.4082C189.023 51.0433 189.658 51.7577 190.055 52.5516C190.055 52.5516 190.452 51.7577 189.976 51.1227Z" fill="#EFB135"/>
<path d="M190.532 50.885C190.532 50.885 190.453 49.853 191.246 49.853C192.04 49.7736 193.39 51.1231 193.31 51.2025C192.278 50.8056 191.326 50.7262 190.532 50.885Z" fill="#EFB135"/>
<path d="M192.357 51.8367C191.643 51.6779 190.531 50.8841 190.531 50.8841C191.325 50.7253 192.278 50.8047 193.389 51.1222C193.389 51.2016 193.151 51.9955 192.357 51.8367Z" fill="#FCC34F"/>
<path d="M190.531 51.043C190.531 51.043 190.214 51.8368 190.531 52.4719C190.849 53.107 191.722 53.742 191.722 53.742C191.484 52.8688 191.087 51.9162 190.531 51.043Z" fill="#FCC34F"/>
<path d="M192.04 52.3938C191.722 51.5205 190.452 50.9648 190.531 50.9648C191.087 51.8381 191.484 52.7907 191.722 53.7433C191.722 53.7433 192.357 53.267 192.04 52.3938Z" fill="#EFB135"/>
<path d="M182.196 55.8867C182.196 55.8867 181.402 55.8867 181.164 54.8547C180.926 53.7433 181.719 52.3144 181.719 52.3938C181.64 53.6639 181.799 54.8547 182.196 55.8867Z" fill="#EFB135"/>
<path d="M182.513 53.6647C182.593 54.5379 182.196 55.8875 182.196 55.8875C181.878 54.7761 181.64 53.5853 181.719 52.3945C181.64 52.3945 182.434 52.7915 182.513 53.6647Z" fill="#FCC34F"/>
<path d="M182.275 55.9667C182.275 55.9667 182.989 56.443 183.466 56.0461C183.942 55.6492 184.18 54.6172 184.18 54.6172C183.545 54.776 182.831 55.2523 182.275 55.9667Z" fill="#FCC34F"/>
<path d="M183.069 54.1414C182.434 54.4589 182.275 55.9672 182.275 55.9672C182.831 55.2528 183.545 54.7765 184.18 54.6177C184.18 54.6177 183.624 53.8238 183.069 54.1414Z" fill="#EFB135"/>
<path d="M182.91 53.3453C182.91 53.3453 182.116 53.0278 182.116 52.0751C182.116 51.0431 183.228 50.1699 183.307 50.1699C182.989 51.2019 182.91 52.3133 182.91 53.3453Z" fill="#EFB135"/>
<path d="M183.784 51.5988C183.625 52.3927 182.91 53.2659 182.91 53.3453C182.831 52.3133 182.99 51.2019 183.307 50.1699C183.307 50.1699 183.942 50.805 183.784 51.5988Z" fill="#FCC34F"/>
<path d="M183.069 53.4243C183.069 53.4243 183.625 54.1388 184.26 53.98C184.815 53.8212 185.292 53.1068 185.371 53.1068C184.577 53.0274 183.783 53.1068 183.069 53.4243Z" fill="#FCC34F"/>
<path d="M184.26 52.2344C183.545 52.2344 182.99 53.4251 183.069 53.5045C183.863 53.187 184.577 53.1076 185.292 53.187C185.292 53.187 184.895 52.2344 184.26 52.2344Z" fill="#EFB135"/>
<path d="M184.339 51.5202C184.339 51.5202 183.625 50.8852 183.942 50.0913C184.26 49.2181 185.53 48.8212 185.53 48.9005C184.974 49.6944 184.577 50.5676 184.339 51.5202Z" fill="#EFB135"/>
<path d="M185.609 50.3286C185.212 50.9637 184.26 51.5194 184.26 51.5194C184.498 50.5668 184.895 49.6935 185.451 48.8203C185.53 48.8203 186.006 49.6935 185.609 50.3286Z" fill="#FCC34F"/>
<path d="M184.418 51.6777C184.418 51.6777 184.815 52.551 185.45 52.7097C186.006 52.7891 186.721 52.3128 186.721 52.3922C186.006 51.9159 185.212 51.6777 184.418 51.6777Z" fill="#FCC34F"/>
<path d="M185.927 51.0424C185.212 50.8043 184.418 51.5981 184.418 51.6775C185.212 51.6775 186.006 51.9157 186.721 52.3126C186.721 52.3126 186.562 51.2806 185.927 51.0424Z" fill="#EFB135"/>
<path d="M189.975 61.9199C189.975 61.9199 190.054 62.9519 190.848 63.1107C191.642 63.3488 192.674 62.3168 192.674 62.3168C191.722 62.3962 190.848 62.2375 189.975 61.9199Z" fill="#EFB135"/>
<path d="M191.642 61.3652C190.928 61.3652 190.055 61.9209 190.055 61.9209C190.849 62.2385 191.801 62.3972 192.754 62.3178C192.674 62.3178 192.357 61.3652 191.642 61.3652Z" fill="#FCC34F"/>
<path d="M189.975 61.7624C189.975 61.7624 189.499 60.8892 189.817 60.3335C190.055 59.7778 190.769 59.3809 190.849 59.3809C190.69 60.1747 190.372 60.9685 189.975 61.7624Z" fill="#FCC34F"/>
<path d="M191.245 60.7297C191.086 61.5235 189.975 61.8411 189.975 61.7617C190.451 60.9679 190.69 60.174 190.769 59.3008C190.769 59.3008 191.404 59.9359 191.245 60.7297Z" fill="#EFB135"/>
<path d="M191.881 60.8082C191.881 60.8082 192.198 61.7608 192.992 61.6814C193.786 61.6021 194.501 60.0938 194.421 60.0938C193.548 60.5701 192.675 60.8082 191.881 60.8082Z" fill="#EFB135"/>
<path d="M193.151 59.6179C192.516 59.8561 191.801 60.8087 191.801 60.8087C192.595 60.8087 193.548 60.5706 194.342 60.0942C194.421 60.0942 193.865 59.3004 193.151 59.6179Z" fill="#FCC34F"/>
<path d="M191.801 60.6496C191.801 60.6496 191.166 60.0145 191.246 59.3C191.325 58.5856 191.881 57.9505 191.881 57.8711C191.96 58.7443 191.96 59.7763 191.801 60.6496Z" fill="#FCC34F"/>
<path d="M192.674 59.1421C192.754 60.0153 191.801 60.7298 191.801 60.7298C191.96 59.7772 192.039 58.8246 191.881 57.9513C191.801 57.8719 192.595 58.2689 192.674 59.1421Z" fill="#EFB135"/>
<path d="M193.23 58.9033C193.23 58.9033 193.786 59.7765 194.421 59.3002C195.136 58.9033 195.374 56.998 195.294 56.998C194.739 57.9507 193.945 58.5857 193.23 58.9033Z" fill="#EFB135"/>
<path d="M194.104 57.0779C193.627 57.7129 193.23 58.9037 193.23 58.9037C194.024 58.5068 194.739 57.9511 195.294 56.9985C195.294 56.9985 194.58 56.4428 194.104 57.0779Z" fill="#FCC34F"/>
<path d="M193.151 58.8239C193.151 58.8239 192.437 58.427 192.278 57.6332C192.198 56.9187 192.516 55.8867 192.516 55.8867C192.834 56.8393 193.072 57.7919 193.151 58.8239Z" fill="#FCC34F"/>
<path d="M193.548 56.84C193.786 57.7133 193.151 58.904 193.151 58.904C193.071 57.872 192.833 56.84 192.516 55.9668C192.436 55.9668 193.23 55.9668 193.548 56.84Z" fill="#EFB135"/>
<path d="M183.545 60.0156C183.545 60.0156 182.91 60.4919 183.307 61.4446C183.784 62.4766 185.212 63.1116 185.212 63.1116C184.498 62.0796 183.942 61.0476 183.545 60.0156Z" fill="#EFB135"/>
<path d="M185.133 61.6033C184.657 60.8889 183.545 60.095 183.545 60.0156C183.942 61.127 184.498 62.159 185.212 63.1116C185.212 63.1116 185.609 62.3178 185.133 61.6033Z" fill="#FCC34F"/>
<path d="M183.625 59.8563C183.625 59.8563 183.863 59.0625 184.578 59.0625C185.213 59.1419 186.006 59.777 186.006 59.777C185.292 60.0151 184.498 60.0945 183.625 59.8563Z" fill="#FCC34F"/>
<path d="M185.292 60.8887C184.577 61.0475 183.545 59.8567 183.545 59.8567C184.419 60.0949 185.213 60.0155 185.927 59.7773C185.927 59.7773 186.006 60.8093 185.292 60.8887Z" fill="#EFB135"/>
<path d="M185.689 61.5234C185.689 61.5234 185.213 62.3173 185.848 63.0317C186.483 63.8256 187.912 63.905 187.912 63.8256C187.039 63.1905 186.245 62.3967 185.689 61.5234Z" fill="#EFB135"/>
<path d="M187.435 62.3967C186.8 61.841 185.689 61.6028 185.689 61.5234C186.245 62.3967 187.038 63.1905 187.912 63.8256C187.912 63.8256 188.071 62.9524 187.435 62.3967Z" fill="#FCC34F"/>
<path d="M185.69 61.4434C185.69 61.4434 185.69 60.4908 186.246 60.2526C186.801 60.0145 187.595 60.332 187.675 60.332C187.198 60.8083 186.484 61.2053 185.69 61.4434Z" fill="#FCC34F"/>
<path d="M187.436 61.6816C186.881 62.0785 185.69 61.4434 185.69 61.4434C186.484 61.2847 187.119 60.8877 187.675 60.332C187.675 60.332 187.913 61.2846 187.436 61.6816Z" fill="#EFB135"/>
<path d="M187.912 62.1582C187.912 62.1582 187.753 63.1108 188.467 63.5871C189.182 64.1428 190.531 63.5871 190.531 63.5871C189.499 63.2696 188.626 62.7933 187.912 62.1582Z" fill="#EFB135"/>
<path d="M189.658 62.3156C189.023 61.9981 187.912 62.1569 187.912 62.1569C188.626 62.792 189.499 63.2683 190.452 63.5858C190.452 63.5858 190.373 62.6332 189.658 62.3156Z" fill="#FCC34F"/>
<path d="M187.912 61.999C187.912 61.999 187.674 61.0464 188.07 60.5701C188.467 60.0938 189.341 60.0938 189.341 60.0938C189.023 60.8082 188.547 61.5227 187.912 61.999Z" fill="#FCC34F"/>
<path d="M189.42 61.6021C189.023 62.2371 187.832 62.0784 187.832 61.999C188.467 61.4433 188.943 60.8082 189.261 60.0938C189.34 60.0938 189.817 60.967 189.42 61.6021Z" fill="#EFB135"/>
<path d="M168.094 80.0126L157.801 49.3047L152.683 51.0202L162.976 81.7282L168.094 80.0126Z" fill="#846C5D"/>
<path d="M142.501 50.0897L155.368 88.4746L166.657 84.6903L153.791 46.3054L142.501 50.0897Z" fill="#846C5D"/>
<path d="M147.762 55.5136L156.339 81.1035L162.511 79.0348L153.933 53.4448L147.762 55.5136Z" fill="#FCC34F"/>
<path d="M195.771 178.852C192.913 178.217 191.008 176.709 189.738 175.042L184.578 182.266L179.815 162.182C178.386 156.545 172.194 152.02 166.24 148.924C152.824 152.894 153.3 140.748 153.538 138.366C150.918 122.648 162.429 109.312 172.511 96.7688L161.238 92.8789C118.45 131.936 114.481 196.873 114.481 196.873L166.399 204.573C158.301 194.888 167.431 189.649 162.826 189.093C161.874 189.014 164.255 187.108 164.414 186.156C164.573 185.283 163.62 184.648 163.858 183.854C165.763 177.9 169.574 174.883 169.574 174.883C169.891 199.969 185.689 205.605 185.689 205.605L195.771 178.852Z" fill="#3AC1B0"/>
<path d="M156.872 155.673C156.317 155.514 155.761 155.673 155.602 156.149C155.444 156.546 155.84 157.022 156.396 157.181C156.952 157.34 157.508 157.181 157.666 156.705C157.746 156.308 157.428 155.832 156.872 155.673ZM154.412 162.341C154.57 161.944 154.173 161.468 153.618 161.309C153.062 161.15 152.506 161.309 152.348 161.785C152.189 162.182 152.586 162.659 153.141 162.817C153.776 162.897 154.332 162.738 154.412 162.341ZM153.935 169.248C153.38 169.248 152.903 169.565 152.903 170.041C152.903 170.518 153.38 170.835 153.935 170.835C154.491 170.835 154.967 170.518 154.967 170.041C154.967 169.565 154.491 169.248 153.935 169.248ZM153.141 175.598C152.744 175.757 152.586 176.313 152.824 176.868C153.062 177.424 153.538 177.742 153.935 177.583C154.332 177.424 154.491 176.869 154.253 176.313C154.015 175.757 153.538 175.44 153.141 175.598ZM148.299 180.917C147.823 180.6 147.188 180.679 146.949 181.076C146.711 181.473 146.949 182.028 147.505 182.267C147.981 182.584 148.616 182.505 148.855 182.108C149.013 181.711 148.775 181.155 148.299 180.917Z" fill="#4ADDC7"/>
<path d="M147.664 188.537L147.505 187.743C149.172 187.346 149.331 183.774 149.172 182.424V182.266L151.315 179.487L151.395 179.408C151.474 179.408 156.158 177.264 157.269 176.47C157.507 176.153 156.793 174.089 156.237 172.66C155.285 170.12 154.173 166.944 154.253 164.325C154.411 160.117 157.349 157.736 158.301 157.021L157.11 154.322L157.507 154.163C157.507 154.163 159.651 153.37 160.603 152.655C160.762 152.576 160.762 152.417 160.762 152.417C160.762 152.02 160.127 151.385 159.809 151.147L160.286 150.512C160.445 150.591 161.556 151.464 161.556 152.417C161.556 152.734 161.397 153.052 161.08 153.29C160.286 153.925 158.857 154.481 158.222 154.798L159.413 157.339L159.095 157.498C159.095 157.498 155.285 159.8 155.126 164.325C155.046 166.786 156.158 169.882 157.031 172.342C157.984 174.962 158.539 176.55 157.746 177.106C156.634 177.82 152.506 179.725 151.792 180.043L149.966 182.424C150.045 183.377 150.125 187.902 147.664 188.537Z" fill="#39AA99"/>
<path d="M190.77 178.615L180.45 198.064C169.733 183.537 170.289 169.883 170.289 169.883C165.526 193.143 185.213 204.653 185.213 204.653L193.787 181.235L190.77 178.615Z" fill="#39AA99"/>
<path d="M118.371 195.047C118.609 198.223 121.785 193.698 121.785 193.698C121.785 193.698 122.34 180.758 122.023 179.17C121.864 177.583 118.371 195.047 118.371 195.047Z" fill="#39AA99"/>
<path d="M162.033 188.697C161.715 185.839 107.813 159.96 163.223 108.121C163.223 108.121 150.442 112.249 150.681 109.153C151.078 103.835 153.697 100.342 153.697 100.342C144.727 110.185 127.262 138.526 132.263 162.103C137.741 188.379 153.777 188.776 153.777 188.776C153.777 188.776 141.472 184.648 139.646 170.121C139.567 170.121 144.886 182.822 162.033 188.697Z" fill="#39AA99"/>
<path d="M157.111 152.576C157.905 152.814 154.491 149.877 154.015 148.29C153.618 146.94 153.856 145.829 154.253 145.035C153.459 143.05 153.3 140.827 153.38 139.398C151.474 141.462 145.521 148.528 145.521 154.402C145.521 154.402 149.013 144.558 152.586 143.765C152.586 143.765 150.998 150.512 157.111 152.576Z" fill="#39AA99"/>
<path d="M167.907 169.883C161.953 178.218 152.983 172.264 152.983 172.264L162.747 183.775C162.747 183.775 165.367 175.995 169.257 172.423L172.273 164.484C172.273 164.484 169.177 168.136 167.907 169.883Z" fill="#39AA99"/>
<path d="M178.465 183.14L184.022 180.6L176.48 182.346L178.068 189.729L178.465 183.14Z" fill="#39AA99"/>
<path d="M160.286 148.527L160.762 147.495L163.461 146.305L166.795 147.575L168.939 150.75C168.939 150.75 162.905 150.909 161.318 150.115C159.651 149.321 160.286 148.527 160.286 148.527Z" fill="#39AA99"/>
<path d="M158.619 149.083L163.144 146.701L164.731 152.973L170.606 151.226L170.288 146.622L163.223 145.828L158.619 149.083Z" fill="#4ADDC7"/>
<path d="M161.873 149.004C161.873 149.004 174.972 164.405 189.737 155.434C189.737 155.434 183.704 163.452 176.639 162.023C169.574 160.594 162.35 153.688 161.238 149.877L161.873 149.004Z" fill="#DB7631"/>
<path d="M160.365 147.892C160.365 147.892 170.13 177.502 196.326 153.449C196.326 153.449 198.152 150.591 197.835 142.255C197.835 141.779 197.358 141.541 196.962 141.779L188.944 146.542C188.944 146.542 185.61 164.959 172.829 160.037C163.779 156.624 160.365 147.892 160.365 147.892Z" fill="#B64E00"/>
<path d="M157.19 148.13C157.19 148.13 159.571 146.305 160.921 147.098C162.271 147.892 163.223 149.401 163.223 149.401L161.635 150.909C161.635 150.909 158.857 150.75 157.19 148.13Z" fill="#B64E00"/>
<path d="M155.999 144.32C155.999 144.32 155.999 146.94 158.619 148.528C158.619 148.528 160.683 149.639 159.571 149.877C158.46 150.115 156.634 148.766 155.84 146.622C155.046 144.479 155.999 144.32 155.999 144.32Z" fill="#DB7631"/>
<path d="M157.111 148.607L159.572 144.083L154.253 137.652L153.459 138.049C153.459 138.129 152.745 146.543 157.111 148.607Z" fill="#4ADDC7"/>
<path d="M161.159 92.8797L172.432 96.7696C177.036 90.9745 181.481 86.3702 184.101 83.7505L188.944 83.036L190.769 80.8927H192.119C192.119 80.8927 192.913 80.2576 192.754 79.7019C192.119 77.876 190.928 78.5905 190.452 77.6379C189.579 75.8914 188.626 73.9068 188.229 73.113C187.753 71.8428 187.753 70.0963 186.006 70.3345C175.845 71.5253 180.052 78.273 177.592 80.5751C170.764 84.7825 164.652 89.5456 159.174 94.785C159.809 94.0705 160.444 93.5148 161.159 92.8797Z" fill="#EABFA5"/>
<path d="M199.263 158.77H188.308L185.53 162.342C185.53 162.342 185.768 164.565 187.514 164.962C188.308 165.12 188.785 164.565 189.023 163.93C189.34 166.39 192.119 169.407 192.992 170.36L189.658 175.043C190.928 176.71 192.913 178.219 195.691 178.854L198.628 171.154C200.692 166.47 199.263 158.77 199.263 158.77Z" fill="#EABFA5"/>
<path d="M114.163 193.458C114.163 193.458 129.247 178.614 165.684 192.03L164.176 196.078C164.176 196.078 198.867 211.955 207.679 239.184L158.698 259.11L163.303 273.319C163.303 273.319 161.318 276.098 157.507 271.97C153.697 267.842 146.87 252.521 146.87 252.521L184.26 231.007C184.26 231.007 164.493 213.305 142.821 217.988C142.821 217.988 119.562 253.156 128.929 299.516C128.929 299.516 129.882 322.141 123.372 321.03C116.942 319.918 120.752 299.675 120.752 299.675C120.752 299.675 100.192 254.902 114.163 193.458Z" fill="#333333"/>
<path d="M163.62 88.3544C163.62 88.3544 169.733 80.9716 175.528 94.1494L170.526 101.532C170.526 101.532 164.97 92.2442 156.793 94.9433L163.62 88.3544Z" fill="#4ADDC7"/>
<path d="M188.547 174.01C188.547 174.01 192.834 178.932 197.676 178.376L193.627 189.49C193.627 189.49 186.642 189.649 183.784 179.567L188.547 174.01Z" fill="#4ADDC7"/>
<path opacity="0.2" d="M143.932 339.765C141.233 333.018 139.011 326.032 137.105 319.046C135.2 311.981 133.692 304.915 132.422 297.691L131.628 292.293L130.993 286.895C130.755 285.069 130.596 283.243 130.516 281.418C130.358 279.592 130.199 277.766 130.199 275.94C129.881 268.637 130.199 261.333 131.072 254.109L130.755 259.587C130.675 260.46 130.596 261.413 130.596 262.286V264.985V267.684C130.596 268.557 130.596 269.51 130.596 270.383L130.834 275.861C131.31 283.085 132.025 290.309 133.374 297.453C134.565 304.598 136.073 311.743 137.899 318.728C138.773 322.221 139.725 325.794 140.836 329.207C141.63 332.859 142.742 336.352 143.932 339.765Z" fill="#333333"/>
<path opacity="0.2" d="M146.235 325.634C144.965 322.856 143.853 319.998 142.901 317.14C141.869 314.282 141.075 311.345 140.281 308.408C139.487 305.47 138.852 302.454 138.296 299.517C137.741 296.5 137.423 293.483 137.185 290.467C137.503 291.975 137.661 293.483 137.979 294.992L138.376 297.214L138.852 299.437C139.487 302.375 140.202 305.391 140.996 308.249C141.71 311.186 142.583 314.123 143.456 316.981C143.853 318.41 144.33 319.918 144.806 321.347C145.203 322.697 145.679 324.126 146.235 325.634Z" fill="#333333"/>
<g opacity="0.3">
<path opacity="0.3" d="M209.504 227.674C211.171 230.294 212.68 232.993 214.188 235.692C215.696 238.391 217.205 241.09 218.634 243.789L219.031 244.503L218.316 244.821C216.173 245.773 214.109 246.726 211.965 247.679C209.822 248.631 207.679 249.505 205.615 250.378C201.328 252.124 197.041 253.871 192.675 255.379C196.723 253.156 200.931 251.092 205.059 249.108C207.123 248.155 209.266 247.123 211.33 246.17C213.474 245.218 215.538 244.265 217.681 243.392L217.284 244.424C215.935 241.645 214.585 238.867 213.235 236.089C211.965 233.31 210.695 230.532 209.504 227.674Z" fill="#333333"/>
</g>
<path d="M87.0935 31.9918C85.1883 30.0866 83.7594 28.4989 83.68 25.7205C83.6006 23.3389 84.2357 20.9574 84.2357 18.4965C84.2357 16.9882 81.8541 16.9882 81.8541 18.4965C81.7747 21.5925 80.8221 24.8472 81.5366 27.9432C82.0923 30.3248 83.68 31.9919 85.4264 33.6589C86.4584 34.7703 88.2049 33.1032 87.0935 31.9918Z" fill="#3AC1B0"/>
<path d="M94.0795 73.8289C93.762 74.6227 92.6506 75.2578 91.9361 75.7341C91.0629 76.2898 90.1897 76.8455 89.3165 77.3218C88.0463 78.1156 89.2371 80.1796 90.5072 79.3858C92.5712 78.1156 95.4291 76.8455 96.3817 74.464C96.9374 73.035 94.6352 72.4 94.0795 73.8289Z" fill="#3AC1B0"/>
<path d="M48.6713 63.5085C47.798 64.6199 47.0836 66.0488 47.8774 67.4777C48.6713 68.986 49.862 68.8273 51.2116 68.9067C51.0528 70.1768 50.1796 71.447 50.0208 72.6377C49.862 73.8285 50.1796 74.7017 50.9734 75.5749C52.0054 76.6863 53.6725 75.0193 52.6405 73.9079C51.7673 72.9553 52.958 71.1294 53.2756 70.1768C53.5137 69.3036 53.5931 68.5097 53.4343 67.6365C53.355 67.2396 52.958 66.922 52.6405 66.8426C51.5291 66.6045 49.6239 67.0808 50.3383 65.3343C50.8146 64.3024 53.0374 62.4765 54.1488 63.4291C55.2602 64.4611 56.9273 62.794 55.8159 61.762C53.4343 59.3805 50.4177 61.2857 48.6713 63.5085Z" fill="#3AC1B0"/>
<path d="M237.289 34.3735C237.448 34.4529 237.607 34.4529 237.765 34.5323C238.004 34.6117 238.242 34.6117 238.48 34.5323C238.559 34.5323 238.559 34.6117 238.639 34.6117C238.718 34.691 238.797 34.691 238.718 34.6117C238.797 34.691 238.797 34.691 238.877 34.7704C239.353 35.2467 240.147 35.2467 240.544 34.7704C241.02 34.2941 241.02 33.5797 240.544 33.1034C239.75 32.2301 238.48 31.7538 237.289 32.0714C236.178 32.4683 236.178 34.056 237.289 34.3735Z" fill="#3AC1B0"/>
<path d="M240.941 65.6519C239.432 66.2076 237.289 67.319 235.384 67.6365C236.892 66.1282 239.115 64.5405 240.623 64.223C242.132 63.826 241.496 61.5239 239.988 61.9208C238.083 62.3971 236.733 63.6673 235.225 64.858C233.876 65.8106 232.764 66.6839 232.05 68.1922C231.732 68.8273 231.97 69.7005 232.764 69.9386C234.669 70.415 236.813 69.8593 238.797 69.0654C238.083 69.7799 237.368 70.4943 237.051 71.05C236.257 72.3996 235.463 74.0666 235.463 75.7337C235.543 77.242 237.924 77.242 237.845 75.7337C237.686 71.9233 242.608 70.2562 242.528 66.7633C242.449 66.0488 241.655 65.3343 240.941 65.6519Z" fill="#3AC1B0"/>
<path d="M258.882 110.108V104.313C258.882 102.805 256.5 102.805 256.5 104.313V110.108C256.5 111.696 258.882 111.696 258.882 110.108Z" fill="#3AC1B0"/>
<path d="M266.741 129.557C266.026 129.557 265.312 129.874 264.835 130.43C264.439 130.906 264.359 131.621 264.835 132.097C265.232 132.494 266.106 132.573 266.503 132.097C266.582 132.018 266.582 132.018 266.661 131.938C266.661 131.938 266.661 131.938 266.741 131.938C267.376 131.938 267.931 131.382 267.931 130.747C267.852 130.112 267.376 129.557 266.741 129.557Z" fill="#3AC1B0"/>
<path d="M44.7812 147.18C44.5431 146.624 44.1462 146.227 43.4317 145.91C42.7966 145.592 42.0822 145.592 41.3677 145.433C40.4151 145.275 39.5419 144.957 38.5892 144.957C37.0809 144.957 37.0809 147.339 38.5892 147.339C39.5419 147.339 40.4945 147.656 41.3677 147.815C42.0028 147.894 42.7966 147.894 42.6379 148.688C42.4791 149.72 43.7492 150.911 44.6225 149.879C44.8606 149.561 45.1782 149.244 45.3369 148.847C45.972 148.132 45.4957 147.418 44.7812 147.18Z" fill="#3AC1B0"/>
<path d="M86.4586 119.315L85.4266 120.347C84.9503 120.824 84.9503 121.538 85.4266 122.014C85.9029 122.491 86.6173 122.491 87.0936 122.014C87.4112 121.697 87.8081 121.3 88.1256 120.982C88.6019 120.506 88.6019 119.792 88.1256 119.315C87.7287 118.918 86.9349 118.918 86.4586 119.315Z" fill="#3AC1B0"/>
<path d="M298.177 29.6112C295.557 30.5638 292.62 32.2308 291.747 35.0887C290.874 37.8672 293.811 39.3755 296.113 39.8518C297.621 40.1693 298.256 37.8672 296.748 37.5496C296.034 37.3908 295.319 37.2321 294.684 36.8352C293.811 36.2001 294.049 35.6444 294.605 34.8505C295.637 33.4216 297.224 32.5484 298.892 31.9927C300.241 31.3576 299.606 29.0555 298.177 29.6112Z" fill="#3AC1B0"/>
<path d="M304.369 58.2693C303.813 57.9517 303.019 58.1105 302.702 58.6662C302.543 58.9837 302.384 59.3806 302.146 59.6982C301.829 60.2539 301.987 60.9683 302.543 61.3653C303.099 61.6828 303.893 61.524 304.21 60.9683C304.369 60.6508 304.528 60.2539 304.766 59.9363C305.083 59.3806 304.925 58.6662 304.369 58.2693Z" fill="#3AC1B0"/>
<path d="M294.208 129.557C292.7 129.557 292.7 131.938 294.208 131.938C295.796 131.938 295.796 129.557 294.208 129.557Z" fill="#3AC1B0"/>
<path d="M282.539 179.171C282.38 180.124 282.3 181.156 282.142 182.188C281.983 183.061 281.903 184.41 281.268 185.045C280.157 186.077 281.824 187.745 282.935 186.713C284.761 185.125 284.444 182.029 284.841 179.806C285.079 178.298 282.777 177.663 282.539 179.171Z" fill="#3AC1B0"/>
<path d="M237.765 167.502C237.368 167.422 237.051 167.264 236.654 167.184C236.575 167.184 236.495 167.105 236.495 167.105C235.939 167.264 236.654 167.264 236.495 167.105C236.416 167.026 236.336 167.026 236.257 166.946C236.336 167.026 236.416 167.025 236.495 167.025C236.813 166.867 237.21 166.47 237.527 166.232C237.924 165.993 238.321 165.835 238.718 165.597C240.147 164.962 238.877 162.977 237.527 163.533C235.939 164.247 232.923 165.914 234.193 168.058C234.749 168.931 235.781 169.328 236.733 169.566C237.606 169.804 238.638 169.804 238.48 170.915C238.321 172.424 240.702 172.424 240.861 170.915C241.179 168.851 239.512 167.978 237.765 167.502Z" fill="#3AC1B0"/>
<path d="M70.5814 206.163C69.9463 206.718 68.5174 206.321 67.7235 206.321C66.2152 206.321 66.2152 208.703 67.7235 208.703C69.3112 208.703 70.9783 209.02 72.2484 207.83C73.4392 206.798 71.6927 205.131 70.5814 206.163Z" fill="#3AC1B0"/>
<path d="M126.706 103.2C126.071 103.359 125.674 104.073 125.913 104.629C126.071 105.264 126.706 105.502 127.262 105.502C127.262 105.502 127.342 105.502 127.342 105.582C127.58 105.661 127.659 105.82 127.818 105.899C128.135 106.217 128.453 106.534 128.85 106.772C129.326 107.169 130.041 107.249 130.517 106.772C130.914 106.375 130.993 105.502 130.517 105.105C129.326 104.153 128.294 102.803 126.706 103.2Z" fill="#3AC1B0"/>
<path d="M140.758 17.3066C140.678 16.7509 140.122 16.4333 139.646 16.4333C138.535 16.354 137.344 16.9097 136.471 17.6241C135.994 18.021 135.677 18.6561 136.074 19.2912C136.391 19.7675 137.185 20.085 137.741 19.6881C138.058 19.45 138.455 19.2118 138.852 19.053C138.932 19.053 138.932 19.053 139.011 18.9736C139.329 19.2118 139.805 19.3706 140.122 19.2118C140.758 19.053 141.075 18.418 140.916 17.7829C140.837 17.5447 140.837 17.386 140.758 17.3066Z" fill="#3AC1B0"/>
<path d="M7.3913 30.0878C5.883 30.0084 4.53346 30.6435 3.02515 30.6435C1.35807 30.6435 -0.309004 30.7229 -1.8967 29.929C-3.08746 29.294 -4.35762 30.8817 -3.32562 31.8343C-3.24623 31.9137 -3.08747 32.0724 -3.00808 32.1518C-2.69054 32.39 -2.373 32.4694 -2.05547 32.4694C-0.864697 32.9457 0.326072 33.025 1.75499 33.025C2.70761 33.025 3.73961 33.1044 4.69223 32.9457C5.64484 32.7869 6.43869 32.39 7.3913 32.4694C8.89961 32.5487 8.89961 30.1672 7.3913 30.0878Z" fill="#3AC1B0"/>
<path d="M2.54863 108.6C0.643399 109.87 -1.81753 110.743 -2.77014 113.045C-3.0083 113.68 -2.53199 114.315 -1.9763 114.474C-1.26183 114.633 -0.785524 114.236 -0.547369 113.68C-0.229831 112.966 0.802169 112.489 1.35786 112.093C2.15171 111.616 2.94556 111.219 3.66002 110.664C5.00956 109.79 3.81879 107.726 2.54863 108.6Z" fill="#3AC1B0"/>
<path d="M16.6791 194.175C15.0914 193.937 13.7418 192.905 12.1541 193.063C11.5191 193.143 10.9634 193.54 10.9634 194.254C10.9634 194.81 11.5191 195.524 12.1541 195.445C13.5037 195.286 14.7738 196.318 16.044 196.477C16.6791 196.556 17.3141 196.318 17.4729 195.683C17.7111 195.127 17.3141 194.254 16.6791 194.175Z" fill="#3AC1B0"/>
<path d="M260.867 226.962C259.12 227.2 258.247 228.549 257.056 229.74C255.945 230.851 255.071 231.963 254.516 233.471C253.246 233.868 253.881 236.011 255.31 235.694C255.468 235.694 255.627 235.614 255.707 235.614C256.103 235.535 256.421 235.138 256.5 234.821C256.818 233.55 257.532 232.677 258.406 231.725C258.961 231.169 259.914 229.581 260.708 229.422C262.375 229.184 262.375 226.723 260.867 226.962Z" fill="#3AC1B0"/>
<path d="M266.82 266.256C266.106 265.939 265.391 265.542 264.677 265.224C264.121 264.907 263.406 265.066 263.009 265.621C262.692 266.177 262.851 266.971 263.406 267.288C264.121 267.606 264.835 268.003 265.55 268.32C266.106 268.638 266.82 268.479 267.217 267.923C267.534 267.368 267.376 266.574 266.82 266.256Z" fill="#3AC1B0"/>
<path d="M296.351 220.135C295.398 221.802 294.049 223.151 292.858 224.66C291.906 225.851 293.573 227.518 294.525 226.327C295.875 224.739 297.304 223.151 298.415 221.326C299.209 220.055 297.145 218.865 296.351 220.135Z" fill="#3AC1B0"/>
<path d="M323.024 117.251C321.754 118.521 322.151 120.189 322.151 121.776C322.151 123.285 324.533 123.285 324.533 121.776C324.533 120.982 324.136 119.474 324.691 118.918C325.803 117.807 324.136 116.14 323.024 117.251Z" fill="#3AC1B0"/>
<path d="M14.7742 261.336H10.0111C8.50281 261.336 8.50281 263.717 10.0111 263.717H14.7742C16.3619 263.717 16.3619 261.336 14.7742 261.336Z" fill="#3AC1B0"/>
<path d="M50.1001 257.762C50.1001 261.89 50.894 266.177 48.6712 269.829C47.8774 271.178 49.9414 272.369 50.7352 271.02C53.1961 266.892 52.4817 262.287 52.4817 257.683C52.4817 256.254 50.1001 256.254 50.1001 257.762Z" fill="#3AC1B0"/>
<path d="M46.5277 297.852C45.0194 297.852 45.0194 300.233 46.5277 300.233C48.1154 300.233 48.1154 297.852 46.5277 297.852Z" fill="#3AC1B0"/>
</g>
<defs>
<linearGradient id="paint0_linear_523_183" x1="158.49" y1="210.012" x2="158.49" y2="34.3885" gradientUnits="userSpaceOnUse">
<stop stop-color="white"/>
<stop offset="0.9952" stop-color="#3AC1B0" stop-opacity="0"/>
</linearGradient>
<linearGradient id="paint1_linear_523_183" x1="158.49" y1="176.969" x2="158.49" y2="352.592" gradientUnits="userSpaceOnUse">
<stop stop-color="white"/>
<stop offset="0.9952" stop-color="#3AC1B0" stop-opacity="0"/>
</linearGradient>
<linearGradient id="paint2_linear_523_183" x1="141.969" y1="193.49" x2="317.592" y2="193.49" gradientUnits="userSpaceOnUse">
<stop stop-color="white"/>
<stop offset="0.9952" stop-color="#3AC1B0" stop-opacity="0"/>
</linearGradient>
<linearGradient id="paint3_linear_523_183" x1="175.012" y1="193.49" x2="-0.611531" y2="193.49" gradientUnits="userSpaceOnUse">
<stop stop-color="white"/>
<stop offset="0.9952" stop-color="#3AC1B0" stop-opacity="0"/>
</linearGradient>
<linearGradient id="paint4_linear_523_183" x1="146.807" y1="205.174" x2="270.992" y2="80.9892" gradientUnits="userSpaceOnUse">
<stop stop-color="white"/>
<stop offset="0.9952" stop-color="#3AC1B0" stop-opacity="0"/>
</linearGradient>
<linearGradient id="paint5_linear_523_183" x1="170.173" y1="181.808" x2="45.9882" y2="305.993" gradientUnits="userSpaceOnUse">
<stop stop-color="white"/>
<stop offset="0.9952" stop-color="#3AC1B0" stop-opacity="0"/>
</linearGradient>
<linearGradient id="paint6_linear_523_183" x1="146.807" y1="181.808" x2="270.992" y2="305.993" gradientUnits="userSpaceOnUse">
<stop stop-color="white"/>
<stop offset="0.9952" stop-color="#3AC1B0" stop-opacity="0"/>
</linearGradient>
<linearGradient id="paint7_linear_523_183" x1="170.173" y1="205.174" x2="45.9882" y2="80.9892" gradientUnits="userSpaceOnUse">
<stop stop-color="white"/>
<stop offset="0.9952" stop-color="#3AC1B0" stop-opacity="0"/>
</linearGradient>
<clipPath id="clip0_523_183">
<rect width="387" height="387" fill="white" transform="translate(-35)"/>
</clipPath>
</defs>
</svg>
