<svg width="8" height="8" viewBox="0 0 8 8" fill="none" xmlns="http://www.w3.org/2000/svg">
<g clip-path="url(#clip0_545_6018)">
<path d="M7.79163 3.81559L4.05603 0.0802145C4.00271 0.026813 3.94122 0 3.87173 0C3.80233 0 3.74092 0.026813 3.68749 0.0802145L3.28665 0.481006C3.23322 0.534436 3.20654 0.595811 3.20654 0.665384C3.20654 0.734958 3.23322 0.796333 3.28665 0.849763L6.43702 4.00006L3.28667 7.15043C3.23324 7.20386 3.20657 7.26535 3.20657 7.33473C3.20657 7.40427 3.23324 7.46576 3.28667 7.51919L3.68752 7.91987C3.74092 7.97336 3.80233 8 3.87176 8C3.94133 8 4.00274 7.9733 4.05603 7.91987L7.79163 4.18446C7.84503 4.13106 7.87167 4.06955 7.87167 4.00008C7.87167 3.93062 7.84503 3.86914 7.79163 3.81559Z" fill="white"/>
<path d="M4.79342 4.00008C4.79342 3.93062 4.76683 3.86911 4.7132 3.81559L0.977852 0.0802145C0.924451 0.026813 0.862963 0 0.793502 0C0.724041 0 0.662525 0.026813 0.609124 0.0802145L0.20836 0.481034C0.154846 0.534464 0.128174 0.595839 0.128174 0.665413C0.128174 0.734986 0.154846 0.796361 0.20836 0.849791L3.35865 4.00008L0.20836 7.15043C0.154846 7.20386 0.128174 7.26535 0.128174 7.33473C0.128174 7.40427 0.154846 7.46576 0.20836 7.51919L0.609096 7.91987C0.662525 7.97336 0.724013 8 0.793474 8C0.862935 8 0.924423 7.9733 0.977852 7.91987L4.7132 4.18446C4.76683 4.13106 4.79342 4.06955 4.79342 4.00008Z" fill="white"/>
</g>
<defs>
<clipPath id="clip0_545_6018">
<rect width="8" height="8" fill="white"/>
</clipPath>
</defs>
</svg>
