<svg width="101" height="100" viewBox="0 0 101 100" fill="none" xmlns="http://www.w3.org/2000/svg">
<g clip-path="url(#clip0_523_780)">
<path d="M99.4025 51.0975C99.4025 78.1055 77.5083 99.9997 50.5003 99.9997C23.4924 99.9997 1.59814 78.1055 1.59814 51.0975C1.59814 24.0895 23.4924 2.19531 50.5003 2.19531C77.5083 2.19531 99.4025 24.0895 99.4025 51.0975Z" fill="#1D2D66"/>
<path d="M99.4024 51.0975C99.4024 52.0955 99.3725 53.0867 99.3136 54.07C93.7599 69.8811 78.6986 81.2169 60.9894 81.2169C38.5619 81.2169 20.3809 63.0358 20.3809 40.6083C20.3809 22.8991 31.7166 7.83783 47.5278 2.28413C48.511 2.22525 49.5022 2.19531 50.5002 2.19531C77.5082 2.19531 99.4024 24.0895 99.4024 51.0975Z" fill="#253B8A"/>
<path d="M76.4784 22.6333L78.7307 21.9736C79.0335 21.885 79.3147 22.166 79.2261 22.469L78.5664 24.7213C78.5449 24.7946 78.5449 24.8724 78.5664 24.9457L79.2261 27.198C79.3147 27.5008 79.0337 27.782 78.7307 27.6934L76.4784 27.0337C76.4051 27.0121 76.3273 27.0121 76.254 27.0337L74.0018 27.6934C73.699 27.782 73.4177 27.501 73.5063 27.198L74.166 24.9457C74.1876 24.8724 74.1876 24.7946 74.166 24.7213L73.5063 22.469C73.4177 22.1662 73.6988 21.885 74.0018 21.9736L76.254 22.6333C76.3273 22.6549 76.4051 22.6549 76.4784 22.6333Z" fill="#FD8F01"/>
<path d="M89.3874 42.6045L92.5197 41.6872C92.9409 41.5638 93.3319 41.9548 93.2086 42.376L92.2912 45.5083C92.2613 45.6101 92.2613 45.7185 92.2912 45.8205L93.2086 48.9528C93.3319 49.374 92.9409 49.765 92.5197 49.6417L89.3874 48.7243C89.2856 48.6944 89.1772 48.6944 89.0752 48.7243L85.9429 49.6417C85.5217 49.765 85.1307 49.374 85.2541 48.9528L86.1714 45.8205C86.2014 45.7187 86.2014 45.6103 86.1714 45.5083L85.2541 42.376C85.1307 41.9548 85.5217 41.5638 85.9429 41.6872L89.0752 42.6045C89.1772 42.6345 89.2856 42.6345 89.3874 42.6045Z" fill="#FDD78D"/>
<path d="M29.5586 29.8737V17.5982C29.5586 7.89441 37.4532 0 47.1568 0C56.8604 0 64.755 7.89441 64.755 17.5982V29.8737H60.763V17.5982C60.763 10.0958 54.6592 3.99202 47.1568 3.99202C39.6544 3.99202 33.5506 10.0958 33.5506 17.5982V29.8737H29.5586Z" fill="#0280E3"/>
<path d="M61.2913 12.8743H61.2145C60.4494 12.8743 59.7648 12.4244 59.434 11.7345C57.2396 7.15908 52.5614 3.99202 47.1572 3.99202C45.9138 3.99202 44.7091 4.15968 43.5639 4.47345C42.3055 4.81836 41.0693 3.84531 41.0693 2.54032C41.0693 1.6513 41.6538 0.857285 42.5111 0.622355C43.9917 0.216567 45.5496 0 47.1572 0C54.1654 0 60.23 4.11776 63.0584 10.0611C63.6795 11.3663 62.7366 12.8743 61.2913 12.8743Z" fill="#05A2F9"/>
<path d="M67.5357 27.7012L78.3375 38.503C79.4605 39.6259 80.0914 41.1491 80.0914 42.7371V58.8814C80.0914 77.0704 65.3463 91.8155 47.1573 91.8155C28.9683 91.8155 14.2231 77.0704 14.2231 58.8814V42.7371C14.2231 41.1491 14.8541 39.6259 15.977 38.503L26.7788 27.7012C27.9018 26.5782 29.4249 25.9473 31.013 25.9473H63.3016C64.8898 25.9473 66.4128 26.5782 67.5357 27.7012Z" fill="#EF941B"/>
<path d="M34.563 27.7012C35.686 26.5782 37.2091 25.9473 38.7971 25.9473H63.3013C64.8894 25.9473 66.4125 26.5782 67.5355 27.7012L78.3373 38.503C79.4602 39.6259 80.0912 41.1491 80.0912 42.7371V58.8814C80.0912 75.7534 67.4037 89.6622 51.0492 91.5878C34.6948 89.6622 22.0073 75.7534 22.0073 58.8814V42.7371C22.0073 41.1491 22.6383 39.6259 23.7612 38.503L34.563 27.7012Z" fill="#FFCC01"/>
<path d="M53.3445 47.1056V50.6985C53.3445 52.8573 52.0263 54.708 50.1509 55.4903V74.8502C50.1509 76.5037 48.8104 77.8442 47.1569 77.8442C45.5034 77.8442 44.1629 76.5037 44.1629 74.8502V55.4903C42.2874 54.7082 40.9692 52.8573 40.9692 50.6985V47.1056C40.9692 44.2396 43.2928 41.916 46.1589 41.916H48.1549C51.0209 41.916 53.3445 44.2396 53.3445 47.1056Z" fill="#172A7D"/>
<path d="M58.0155 55.1176C58.8712 54.2619 60.0315 53.7812 61.2414 53.7812H73.9804C75.1903 53.7812 76.3508 54.2619 77.2063 55.1176L85.4362 63.3475C86.2919 64.2032 86.7726 65.3635 86.7726 66.5735V73.417C86.7726 85.2319 78.6067 95.1397 67.6109 97.8044C56.6151 95.1397 48.4492 85.2319 48.4492 73.417V66.5735C48.4492 65.3635 48.9299 64.203 49.7855 63.3475L58.0155 55.1176Z" fill="#0AB59E"/>
<path d="M53.4048 66.7357L61.4042 58.7363H73.8174L81.8168 66.7359V73.4166C81.8168 82.3397 76.0335 90.0906 67.6108 92.6683C59.1878 90.0906 53.4048 82.3397 53.4048 73.4166V66.7357Z" fill="#0ED1B2"/>
<path d="M73.8176 58.7363L81.817 66.7359V73.4166C81.817 77.6294 80.528 81.5809 78.2807 84.8501C68.5194 80.9473 60.633 73.3529 56.3481 63.7928L61.4044 58.7365H73.8176V58.7363Z" fill="#5DE0C3"/>
<path d="M86.339 62.2351L68.6901 79.884C68.3979 80.1762 68.0147 80.3225 67.6316 80.3225C67.2486 80.3225 66.8653 80.1764 66.5731 79.884L58.1689 71.4798C57.5843 70.8952 57.5843 69.9473 58.1689 69.3629C58.7536 68.7782 59.7015 68.7782 60.2859 69.3629L67.6316 76.7086L84.222 60.1182C84.8067 59.5335 85.7546 59.5335 86.339 60.1182C86.9236 60.7026 86.9236 61.6505 86.339 62.2351Z" fill="#E3F0FB"/>
<path d="M86.3392 62.2356L74.9015 73.6734C74.3169 74.258 73.369 74.258 72.7845 73.6734C72.1999 73.0887 72.1999 72.1408 72.7845 71.5564L84.1778 60.1632C84.7574 59.5836 85.7095 59.5247 86.3063 60.0865C86.9237 60.668 86.9346 61.6402 86.3392 62.2356ZM62.047 56.7993L59.7947 56.1396C59.4919 56.051 59.2107 56.3321 59.2993 56.635L59.959 58.8873C59.9805 58.9606 59.9805 59.0384 59.959 59.1117L59.2993 61.364C59.2107 61.6668 59.4917 61.948 59.7947 61.8594L62.047 61.1997C62.1203 61.1782 62.1981 61.1782 62.2714 61.1997L64.5237 61.8594C64.8265 61.948 65.1077 61.667 65.0191 61.364L64.3594 59.1117C64.3378 59.0384 64.3378 58.9606 64.3594 58.8873L65.0191 56.635C65.1077 56.3323 64.8266 56.051 64.5237 56.1396L62.2714 56.7993C62.1981 56.8207 62.1203 56.8207 62.047 56.7993Z" fill="#FFF5F5"/>
</g>
<defs>
<clipPath id="clip0_523_780">
<rect width="100" height="100" fill="white" transform="translate(0.5)"/>
</clipPath>
</defs>
</svg>
