<svg width="624" height="532" viewBox="0 0 624 532" fill="none" xmlns="http://www.w3.org/2000/svg">
<g opacity="0.2" clip-path="url(#clip0_523_819)">
<g opacity="0.5">
<path opacity="0.5" d="M300.031 -67H333.696L316.864 251.48H311.704L300.031 -67Z" fill="url(#paint0_radial_523_819)"/>
<path opacity="0.5" d="M219.758 -53.4627L252.408 -62.1777L318.471 249.872L313.48 251.226L219.758 -53.4627Z" fill="url(#paint1_radial_523_819)"/>
<path opacity="0.5" d="M145.829 -19.5326L175.011 -36.4551L319.655 247.842L315.088 250.465L145.829 -19.5326Z" fill="url(#paint2_radial_523_819)"/>
<path opacity="0.5" d="M83.1494 32.3353L107.003 8.47461L320.163 245.558L316.526 249.281L83.1494 32.3353Z" fill="url(#paint3_radial_523_819)"/>
<path opacity="0.5" d="M36.0342 98.6704L52.867 69.3945L320.163 243.273L317.625 247.757L36.0342 98.6704Z" fill="url(#paint4_radial_523_819)"/>
<path opacity="0.5" d="M7.69727 174.906L16.4097 142.33L319.57 241.073L318.217 246.065L7.69727 174.906Z" fill="url(#paint5_radial_523_819)"/>
<path opacity="0.5" d="M0 255.965V222.205L318.386 239.043V244.289L0 255.965Z" fill="url(#paint6_radial_523_819)"/>
<path opacity="0.5" d="M13.5338 336.178L4.82129 303.602L316.779 237.436L318.132 242.428L13.5338 336.178Z" fill="url(#paint7_radial_523_819)"/>
<path opacity="0.5" d="M47.4536 410.129L30.5361 380.938L314.749 236.336L317.371 240.82L47.4536 410.129Z" fill="url(#paint8_radial_523_819)"/>
<path opacity="0.5" d="M99.3053 472.826L75.4517 448.965L312.465 235.742L316.187 239.381L99.3053 472.826Z" fill="url(#paint9_radial_523_819)"/>
<path opacity="0.5" d="M165.622 520.039L136.354 503.117L310.181 235.742L314.664 238.365L165.622 520.039Z" fill="url(#paint10_radial_523_819)"/>
<path opacity="0.5" d="M241.835 548.386L209.269 539.671L307.982 236.336L312.973 237.69L241.835 548.386Z" fill="url(#paint11_radial_523_819)"/>
<path opacity="0.5" d="M322.87 556H289.119L305.952 237.52H311.196L322.87 556Z" fill="url(#paint12_radial_523_819)"/>
<path opacity="0.5" d="M403.058 542.462L370.492 551.177L304.345 239.211L309.335 237.857L403.058 542.462Z" fill="url(#paint13_radial_523_819)"/>
<path opacity="0.5" d="M476.987 508.532L447.805 525.455L303.245 241.158L307.728 238.619L476.987 508.532Z" fill="url(#paint14_radial_523_819)"/>
<path opacity="0.5" d="M539.667 456.665L515.813 480.525L302.653 243.442L306.291 239.719L539.667 456.665Z" fill="url(#paint15_radial_523_819)"/>
<path opacity="0.5" d="M586.866 390.329L569.949 419.605L302.653 245.727L305.276 241.242L586.866 390.329Z" fill="url(#paint16_radial_523_819)"/>
<path opacity="0.5" d="M615.203 314.094L606.49 346.67L303.245 247.928L304.599 242.936L615.203 314.094Z" fill="url(#paint17_radial_523_819)"/>
<path opacity="0.5" d="M622.816 233.119V266.795L304.429 249.957V244.796L622.816 233.119Z" fill="url(#paint18_radial_523_819)"/>
<path opacity="0.5" d="M609.282 152.822L617.995 185.483L306.121 251.565L304.768 246.573L609.282 152.822Z" fill="url(#paint19_radial_523_819)"/>
<path opacity="0.5" d="M575.447 78.8711L592.28 108.062L308.066 252.749L305.529 248.18L575.447 78.8711Z" fill="url(#paint20_radial_523_819)"/>
<path opacity="0.5" d="M523.511 16.1738L547.364 40.0345L310.351 253.257L306.629 249.619L523.511 16.1738Z" fill="url(#paint21_radial_523_819)"/>
<path opacity="0.5" d="M457.194 -30.9551L486.461 -14.1172L312.635 253.257L308.151 250.719L457.194 -30.9551Z" fill="url(#paint22_radial_523_819)"/>
<path opacity="0.5" d="M380.981 -59.3848L413.547 -50.5851L314.833 252.665L309.843 251.311L380.981 -59.3848Z" fill="url(#paint23_radial_523_819)"/>
</g>
<path d="M221.449 34.959L225.086 42.4049L233.291 43.5894L227.37 49.3431L228.724 57.4658L221.449 53.6583L214.175 57.4658L215.528 49.3431L209.607 43.5894L217.812 42.4049L221.449 34.959Z" fill="white"/>
<path d="M287.766 66.0957L290.896 72.4416L297.916 73.457L292.841 78.3645L294.025 85.3873L287.766 82.0874L281.422 85.3873L282.691 78.3645L277.531 73.457L284.552 72.4416L287.766 66.0957Z" fill="white"/>
<path d="M362.033 68.4648L363.809 72.0186L367.7 72.6108L364.909 75.3184L365.586 79.2106L362.033 77.4337L358.565 79.2106L359.242 75.3184L356.366 72.6108L360.341 72.0186L362.033 68.4648Z" fill="white"/>
<path d="M433.763 49.0898L437.062 55.8588L444.59 56.9588L439.177 62.2047L440.446 69.7352L433.763 66.1815L426.996 69.7352L428.265 62.2047L422.852 56.9588L430.38 55.8588L433.763 49.0898Z" fill="white"/>
<path d="M359.665 0.521484L365.247 11.8595L377.766 13.721L368.716 22.5207L370.83 34.9587L359.665 29.1204L348.499 34.9587L350.614 22.5207L341.563 13.721L354.082 11.8595L359.665 0.521484Z" fill="white"/>
<path d="M480.455 135.309L484.093 142.67L492.298 143.854L486.377 149.608L487.73 157.731L480.455 153.923L473.181 157.731L474.534 149.608L468.698 143.854L476.818 142.67L480.455 135.309Z" fill="white"/>
<path d="M545.757 112.463L547.618 116.44L551.931 117.032L548.886 120.078L549.563 124.393L545.757 122.363L541.866 124.393L542.627 120.078L539.497 117.032L543.811 116.44L545.757 112.463Z" fill="white"/>
<path d="M171.712 96.9805L176.618 106.965L187.614 108.488L179.663 116.272L181.524 127.187L171.712 122.026L161.9 127.187L163.761 116.272L155.81 108.488L166.806 106.965L171.712 96.9805Z" fill="white"/>
<path d="M121.383 200.715L125.697 209.43L135.339 210.784L128.403 217.637L130.01 227.198L121.383 222.629L112.839 227.198L114.446 217.637L107.51 210.784L117.153 209.43L121.383 200.715Z" fill="white"/>
<path d="M169.343 379.33L175.095 390.922L187.868 392.783L178.563 401.752L180.763 414.444L169.343 408.437L157.924 414.444L160.123 401.752L150.903 392.783L163.676 390.922L169.343 379.33Z" fill="white"/>
<path d="M221.449 425.783L223.564 430.098L228.301 430.775L224.917 434.075L225.679 438.813L221.449 436.613L217.22 438.813L217.981 434.075L214.598 430.775L219.335 430.098L221.449 425.783Z" fill="white"/>
<path d="M282.014 448.035L285.059 454.212L291.826 455.143L286.92 459.965L288.104 466.734L282.014 463.519L276.008 466.734L277.108 459.965L272.202 455.143L278.969 454.212L282.014 448.035Z" fill="white"/>
<path d="M368.97 455.312L369.562 456.497L370.915 456.751L369.985 457.682L370.154 459.12L368.97 458.443L367.701 459.12L367.955 457.682L366.939 456.751L368.293 456.497L368.97 455.312Z" fill="white"/>
<path d="M478.51 418.93L481.555 425.022L488.237 426.037L483.416 430.775L484.515 437.46L478.51 434.329L472.504 437.46L473.604 430.775L468.782 426.037L475.465 425.022L478.51 418.93Z" fill="white"/>
<path d="M582.298 326.363L586.02 333.894L594.225 335.078L588.304 340.917L589.657 349.124L582.298 345.232L574.939 349.124L576.293 340.917L570.372 335.078L578.577 333.894L582.298 326.363Z" fill="white"/>
<path d="M611.396 244.881L615.287 252.75L624 254.019L617.74 260.111L619.178 268.826L611.396 264.68L603.614 268.826L605.137 260.111L598.877 254.019L607.505 252.75L611.396 244.881Z" fill="white"/>
<path d="M587.627 181L589.234 184.3L592.956 184.808L590.249 187.431L590.926 191.069L587.627 189.377L584.328 191.069L584.921 187.431L582.298 184.808L585.936 184.3L587.627 181Z" fill="white"/>
<path d="M551.932 382.123L555.4 389.146L563.182 390.246L557.514 395.746L558.868 403.445L551.932 399.807L545.08 403.445L546.349 395.746L540.766 390.246L548.548 389.146L551.932 382.123Z" fill="white"/>
<path d="M411.178 464.789L414.054 470.543L420.398 471.473L415.746 475.958L416.846 482.219L411.178 479.258L405.511 482.219L406.611 475.958L402.043 471.473L408.387 470.543L411.178 464.789Z" fill="white"/>
<path d="M100.067 301.994L106.157 314.432L119.945 316.463L109.963 326.109L112.332 339.816L100.067 333.385L87.7169 339.816L90.0853 326.109L80.104 316.463L93.8917 314.432L100.067 301.994Z" fill="white"/>
</g>
<defs>
<radialGradient id="paint0_radial_523_819" cx="0" cy="0" r="1" gradientUnits="userSpaceOnUse" gradientTransform="translate(316.865 92.2458) rotate(180) scale(113.2 113.234)">
<stop offset="0.1882" stop-color="#FFFFCA"/>
<stop offset="1" stop-color="#C1E7FA" stop-opacity="0"/>
</radialGradient>
<radialGradient id="paint1_radial_523_819" cx="0" cy="0" r="1" gradientUnits="userSpaceOnUse" gradientTransform="translate(269.134 94.5138) rotate(180) scale(116.12 116.155)">
<stop offset="0.1882" stop-color="#FFFFCA"/>
<stop offset="1" stop-color="#C1E7FA" stop-opacity="0"/>
</radialGradient>
<radialGradient id="paint2_radial_523_819" cx="0" cy="0" r="1" gradientUnits="userSpaceOnUse" gradientTransform="translate(232.72 107.002) rotate(180) scale(118.557 118.592)">
<stop offset="0.1882" stop-color="#FFFFCA"/>
<stop offset="1" stop-color="#C1E7FA" stop-opacity="0"/>
</radialGradient>
<radialGradient id="paint3_radial_523_819" cx="0" cy="0" r="1" gradientUnits="userSpaceOnUse" gradientTransform="translate(201.671 128.863) rotate(180) scale(119.456 119.491)">
<stop offset="0.1882" stop-color="#FFFFCA"/>
<stop offset="1" stop-color="#C1E7FA" stop-opacity="0"/>
</radialGradient>
<radialGradient id="paint4_radial_523_819" cx="0" cy="0" r="1" gradientUnits="userSpaceOnUse" gradientTransform="translate(178.098 158.604) rotate(180) scale(118.611 118.646)">
<stop offset="0.1882" stop-color="#FFFFCA"/>
<stop offset="1" stop-color="#C1E7FA" stop-opacity="0"/>
</radialGradient>
<radialGradient id="paint5_radial_523_819" cx="0" cy="0" r="1" gradientUnits="userSpaceOnUse" gradientTransform="translate(163.612 194.199) rotate(180) scale(116.213 116.248)">
<stop offset="0.1882" stop-color="#FFFFCA"/>
<stop offset="1" stop-color="#C1E7FA" stop-opacity="0"/>
</radialGradient>
<radialGradient id="paint6_radial_523_819" cx="0" cy="0" r="1" gradientUnits="userSpaceOnUse" gradientTransform="translate(159.2 239.063) rotate(180) scale(113.201 113.235)">
<stop offset="0.1882" stop-color="#FFFFCA"/>
<stop offset="1" stop-color="#C1E7FA" stop-opacity="0"/>
</radialGradient>
<radialGradient id="paint7_radial_523_819" cx="0" cy="0" r="1" gradientUnits="userSpaceOnUse" gradientTransform="translate(161.468 286.807) rotate(180) scale(116.119 116.154)">
<stop offset="0.1882" stop-color="#FFFFCA"/>
<stop offset="1" stop-color="#C1E7FA" stop-opacity="0"/>
</radialGradient>
<radialGradient id="paint8_radial_523_819" cx="0" cy="0" r="1" gradientUnits="userSpaceOnUse" gradientTransform="translate(173.952 323.232) rotate(180) scale(118.555 118.59)">
<stop offset="0.1882" stop-color="#FFFFCA"/>
<stop offset="1" stop-color="#C1E7FA" stop-opacity="0"/>
</radialGradient>
<radialGradient id="paint9_radial_523_819" cx="0" cy="0" r="1" gradientUnits="userSpaceOnUse" gradientTransform="translate(195.807 354.293) rotate(180) scale(119.455 119.49)">
<stop offset="0.1882" stop-color="#FFFFCA"/>
<stop offset="1" stop-color="#C1E7FA" stop-opacity="0"/>
</radialGradient>
<radialGradient id="paint10_radial_523_819" cx="0" cy="0" r="1" gradientUnits="userSpaceOnUse" gradientTransform="translate(225.538 377.869) rotate(180) scale(118.61 118.645)">
<stop offset="0.1882" stop-color="#FFFFCA"/>
<stop offset="1" stop-color="#C1E7FA" stop-opacity="0"/>
</radialGradient>
<radialGradient id="paint11_radial_523_819" cx="0" cy="0" r="1" gradientUnits="userSpaceOnUse" gradientTransform="translate(261.123 392.361) rotate(180) scale(116.215 116.249)">
<stop offset="0.1882" stop-color="#FFFFCA"/>
<stop offset="1" stop-color="#C1E7FA" stop-opacity="0"/>
</radialGradient>
<radialGradient id="paint12_radial_523_819" cx="0" cy="0" r="1" gradientUnits="userSpaceOnUse" gradientTransform="translate(305.974 396.774) rotate(180) scale(113.202 113.235)">
<stop offset="0.1882" stop-color="#FFFFCA"/>
<stop offset="1" stop-color="#C1E7FA" stop-opacity="0"/>
</radialGradient>
<radialGradient id="paint13_radial_523_819" cx="0" cy="0" r="1" gradientUnits="userSpaceOnUse" gradientTransform="translate(353.702 394.504) rotate(180) scale(116.12 116.154)">
<stop offset="0.1882" stop-color="#FFFFCA"/>
<stop offset="1" stop-color="#C1E7FA" stop-opacity="0"/>
</radialGradient>
<radialGradient id="paint14_radial_523_819" cx="0" cy="0" r="1" gradientUnits="userSpaceOnUse" gradientTransform="translate(390.116 382.017) rotate(180) scale(118.557 118.592)">
<stop offset="0.1882" stop-color="#FFFFCA"/>
<stop offset="1" stop-color="#C1E7FA" stop-opacity="0"/>
</radialGradient>
<radialGradient id="paint15_radial_523_819" cx="0" cy="0" r="1" gradientUnits="userSpaceOnUse" gradientTransform="translate(421.169 360.155) rotate(180) scale(119.454 119.49)">
<stop offset="0.1882" stop-color="#FFFFCA"/>
<stop offset="1" stop-color="#C1E7FA" stop-opacity="0"/>
</radialGradient>
<radialGradient id="paint16_radial_523_819" cx="0" cy="0" r="1" gradientUnits="userSpaceOnUse" gradientTransform="translate(444.739 330.414) rotate(180) scale(118.609 118.644)">
<stop offset="0.1882" stop-color="#FFFFCA"/>
<stop offset="1" stop-color="#C1E7FA" stop-opacity="0"/>
</radialGradient>
<radialGradient id="paint17_radial_523_819" cx="0" cy="0" r="1" gradientUnits="userSpaceOnUse" gradientTransform="translate(459.224 294.821) rotate(180) scale(116.215 116.25)">
<stop offset="0.1882" stop-color="#FFFFCA"/>
<stop offset="1" stop-color="#C1E7FA" stop-opacity="0"/>
</radialGradient>
<radialGradient id="paint18_radial_523_819" cx="0" cy="0" r="1" gradientUnits="userSpaceOnUse" gradientTransform="translate(463.637 249.955) rotate(180) scale(113.2 113.234)">
<stop offset="0.1882" stop-color="#FFFFCA"/>
<stop offset="1" stop-color="#C1E7FA" stop-opacity="0"/>
</radialGradient>
<radialGradient id="paint19_radial_523_819" cx="0" cy="0" r="1" gradientUnits="userSpaceOnUse" gradientTransform="translate(461.371 202.214) rotate(180) scale(116.12 116.154)">
<stop offset="0.1882" stop-color="#FFFFCA"/>
<stop offset="1" stop-color="#C1E7FA" stop-opacity="0"/>
</radialGradient>
<radialGradient id="paint20_radial_523_819" cx="0" cy="0" r="1" gradientUnits="userSpaceOnUse" gradientTransform="translate(448.885 165.789) rotate(180) scale(118.556 118.591)">
<stop offset="0.1882" stop-color="#FFFFCA"/>
<stop offset="1" stop-color="#C1E7FA" stop-opacity="0"/>
</radialGradient>
<radialGradient id="paint21_radial_523_819" cx="0" cy="0" r="1" gradientUnits="userSpaceOnUse" gradientTransform="translate(427.031 134.73) rotate(180) scale(119.454 119.489)">
<stop offset="0.1882" stop-color="#FFFFCA"/>
<stop offset="1" stop-color="#C1E7FA" stop-opacity="0"/>
</radialGradient>
<radialGradient id="paint22_radial_523_819" cx="0" cy="0" r="1" gradientUnits="userSpaceOnUse" gradientTransform="translate(397.3 111.149) rotate(180) scale(118.609 118.644)">
<stop offset="0.1882" stop-color="#FFFFCA"/>
<stop offset="1" stop-color="#C1E7FA" stop-opacity="0"/>
</radialGradient>
<radialGradient id="paint23_radial_523_819" cx="0" cy="0" r="1" gradientUnits="userSpaceOnUse" gradientTransform="translate(361.714 96.6609) rotate(180) scale(116.215 116.249)">
<stop offset="0.1882" stop-color="#FFFFCA"/>
<stop offset="1" stop-color="#C1E7FA" stop-opacity="0"/>
</radialGradient>
<clipPath id="clip0_523_819">
<rect width="624" height="623" fill="white" transform="translate(0 -67)"/>
</clipPath>
</defs>
</svg>
