<svg width="55" height="28" viewBox="0 0 55 28" fill="none" xmlns="http://www.w3.org/2000/svg">
<path d="M43.6904 7L46.0575 14.384L54.3178 16.5L46.0575 18.616L43.6904 26L41.3233 18.616L33.063 16.5L41.3233 14.384L43.6904 7Z" fill="#45516C"/>
<path d="M14.1699 21L14.959 23.7204L17.7124 24.5L14.959 25.2796L14.1699 28L13.3809 25.2796L10.6274 24.5L13.3809 23.7204L14.1699 21Z" fill="#45516C"/>
<path d="M5.3137 0L6.49726 3.49768L10.6274 4.5L6.49726 5.50232L5.3137 9L4.13013 5.50232L0 4.5L4.13013 3.49768L5.3137 0Z" fill="#45516C"/>
<path d="M20.6645 7L21.322 8.55452L23.6165 9L21.322 9.44548L20.6645 11L20.0069 9.44548L17.7124 9L20.0069 8.55452L20.6645 7Z" fill="#45516C"/>
</svg>
