<svg width="293" height="56" viewBox="0 0 293 56" fill="none" xmlns="http://www.w3.org/2000/svg">
<path d="M17.7427 56H53.1673L28.8352 44V9H17.7427V56Z" fill="#4A26CA"/>
<path d="M277.523 56H240.918L261.582 42.5V9H277.523V56Z" fill="#4A26CA"/>
<path d="M263.904 45.1518H27.9534V0H263.904V45.1518Z" fill="#683EFE"/>
<path d="M18.5293 56H0.0302734L13.2938 33.7173L0.0302734 9.67539H18.5293V56Z" fill="#683EFE"/>
<path d="M279.611 33.4241L292.874 55.7068H274.375V8.5H292.874L279.611 33.4241Z" fill="#683EFE"/>
<path d="M40.56 15.2H51.096L53.496 17.6V22.304L52.536 23.288L54.24 25.016V29.408L51.648 32H40.56V15.2ZM49.416 22.232L50.28 21.368V18.776L49.44 17.936H43.752V22.232H49.416ZM49.992 29.264L51.024 28.232V25.88L49.992 24.848H43.752V29.264H49.992ZM56.7581 15.2H60.0221V32H56.7581V15.2ZM63.0309 29.24V17.96L65.7909 15.2H74.1429L76.8549 17.912V20.48H73.5909V19.112L72.4629 17.984H67.5189L66.2949 19.208V27.992L67.5189 29.216H72.5109L73.6869 28.04V25.424H70.0869V22.64H76.8549V29.24L74.0949 32H65.7909L63.0309 29.24ZM79.2497 29.24V17.96L82.0097 15.2H90.3617L93.0737 17.912V20.48H89.8097V19.112L88.6817 17.984H83.7377L82.5137 19.208V27.992L83.7377 29.216H88.7297L89.9057 28.04V25.424H86.3057V22.64H93.0737V29.24L90.3137 32H82.0097L79.2497 29.24ZM95.7084 15.2H107.852V17.96H98.9724V22.208H107.156V24.92H98.9724V29.24H107.852V32H95.7084V15.2ZM109.903 29.408V27.008H113.119V28.424L113.911 29.216H118.879L119.695 28.4V25.616L118.903 24.824H112.543L109.951 22.232V17.792L112.543 15.2H120.127L122.719 17.792V20.216H119.503V18.776L118.711 17.984H113.959L113.167 18.776V21.248L113.959 22.04H120.319L122.911 24.632V29.36L120.271 32H112.495L109.903 29.408ZM128.751 17.96H123.735V15.2H137.031V17.96H132.015V32H128.751V17.96ZM144.53 15.2H147.818L149.858 27.056H149.954L153.29 15.2H155.738L159.002 27.056H159.098L161.138 15.2H164.426L160.946 32H157.898L154.562 20.192H154.466L151.058 32H148.01L144.53 15.2ZM166.703 15.2H169.967V32H166.703V15.2ZM173.216 15.2H176.144L183.632 26.6H183.68V15.2H186.824V32H183.896L176.408 20.624H176.36V32H173.216V15.2ZM189.951 15.2H192.879L200.367 26.6H200.415V15.2H203.559V32H200.631L193.143 20.624H193.095V32H189.951V15.2ZM206.685 15.2H218.829V17.96H209.949V22.208H218.133V24.92H209.949V29.24H218.829V32H206.685V15.2ZM234.44 26.432V32H231.176V27.176L229.736 25.568H224.504V32H221.24V15.2H231.776L234.344 17.792V22.88L232.712 24.536L234.44 26.432ZM224.504 22.88H230.288L231.128 22.04V18.776L230.288 17.936H224.504V22.88ZM237.075 29.408V27.008H240.291V28.424L241.083 29.216H246.051L246.867 28.4V25.616L246.075 24.824H239.715L237.123 22.232V17.792L239.715 15.2H247.299L249.891 17.792V20.216H246.675V18.776L245.883 17.984H241.131L240.339 18.776V21.248L241.131 22.04H247.491L250.083 24.632V29.36L247.443 32H239.667L237.075 29.408Z" fill="white"/>
</svg>
