<svg width="55" height="27" viewBox="0 0 55 27" fill="none" xmlns="http://www.w3.org/2000/svg">
<path d="M11.3096 7L8.94248 13.9954L0.682217 16L8.94248 18.0046L11.3096 25L13.6767 18.0046L21.937 16L13.6767 13.9954L11.3096 7Z" fill="#45516C"/>
<path d="M40.8301 21L40.041 23.3318L37.2876 24L40.041 24.6682L40.8301 27L41.6191 24.6682L44.3726 24L41.6191 23.3318L40.8301 21Z" fill="#45516C"/>
<path d="M49.6863 0L48.5027 3.49768L44.3726 4.5L48.5027 5.50232L49.6863 9L50.8699 5.50232L55 4.5L50.8699 3.49768L49.6863 0Z" fill="#45516C"/>
<path d="M34.3355 6L33.678 7.94315L31.3835 8.5L33.678 9.05685L34.3355 11L34.9931 9.05685L37.2876 8.5L34.9931 7.94315L34.3355 6Z" fill="#45516C"/>
</svg>
