<svg width="51" height="50" viewBox="0 0 41 40" fill="none" xmlns="http://www.w3.org/2000/svg">
<g id="faq-svgrepo-com 2">
<path id="Vector" d="M12.9857 33.3333H32.1523L37.1523 38.3333V20.8333C37.1523 19 35.6523 17.5 33.819 17.5H12.9857C11.1523 17.5 9.65234 19 9.65234 20.8333V30C9.65234 31.8333 11.1523 33.3333 12.9857 33.3333Z" fill="#DCDCDC"/>
<path id="Vector_2" d="M24.485 27.3333H21.485L20.9017 29.0833H19.0684L22.1517 20.75H23.735L26.8184 29.0833H24.985L24.485 27.3333ZM21.9017 26H23.985L22.985 22.8333L21.9017 26Z" fill="black"/>
<path id="Vector_3" d="M27.985 20.834H8.81836L3.81836 25.834V6.66732C3.81836 4.83398 5.31836 3.33398 7.15169 3.33398H27.985C29.8184 3.33398 31.3184 4.83398 31.3184 6.66732V17.5007C31.3184 19.334 29.8184 20.834 27.985 20.834Z" fill="white"/>
<path id="Vector_4" d="M21.6517 11.8327C21.6517 12.666 21.485 13.3327 21.235 13.916C20.985 14.4993 20.6517 14.9993 20.1517 15.3327L21.5684 16.416L20.485 17.416L18.6517 15.9993C18.485 15.9993 18.235 16.0827 17.985 16.0827C17.485 16.0827 16.985 15.9993 16.485 15.8327C16.0684 15.666 15.6517 15.3327 15.3184 14.9993C14.985 14.666 14.735 14.166 14.5684 13.666C14.4017 13.166 14.3184 12.5827 14.3184 11.916V11.5827C14.3184 10.916 14.4017 10.3327 14.5684 9.83268C14.735 9.33268 14.985 8.83268 15.3184 8.49935C15.6517 8.16602 15.985 7.83268 16.485 7.66602C16.9017 7.49935 17.4017 7.41602 17.985 7.41602C18.485 7.41602 18.985 7.49935 19.485 7.66602C19.9017 7.83268 20.3184 8.16602 20.6517 8.49935C20.985 8.83268 21.235 9.33268 21.4017 9.83268C21.5684 10.3327 21.6517 10.916 21.6517 11.5827V11.8327ZM19.8184 11.416C19.8184 10.4993 19.6517 9.83268 19.3184 9.41602C18.985 8.91602 18.5684 8.74935 17.985 8.74935C17.4017 8.74935 16.9017 8.99935 16.6517 9.41602C16.3184 9.91602 16.1517 10.5827 16.1517 11.416V11.8327C16.1517 12.2493 16.235 12.666 16.3184 12.9993C16.4017 13.3327 16.485 13.666 16.6517 13.8327C16.8184 14.0827 16.985 14.2493 17.235 14.3327C17.485 14.416 17.735 14.4993 17.985 14.4993C18.5684 14.4993 19.0684 14.2493 19.3184 13.8327C19.6517 13.3327 19.8184 12.666 19.8184 11.7493V11.416Z" fill="black"/>
</g>
</svg>
