<svg width="51" height="50" viewBox="0 0 51 50" fill="none" xmlns="http://www.w3.org/2000/svg">
<g id="icons8-apple-arcade 2">
<path id="Vector" d="M25.5331 0C23.9418 0 22.4157 0.632141 21.2905 1.75736C20.1653 2.88258 19.5331 4.4087 19.5331 6C19.5331 7.5913 20.1653 9.11742 21.2905 10.2426C22.4157 11.3679 23.9418 12 25.5331 12C27.1244 12 28.6506 11.3679 29.7758 10.2426C30.901 9.11742 31.5331 7.5913 31.5331 6C31.5331 4.4087 30.901 2.88258 29.7758 1.75736C28.6506 0.632141 27.1244 0 25.5331 0ZM23.5331 13.8672C22.9481 13.9872 22.3705 14.1559 21.8085 14.3809L3.74017 21.6309C2.12717 22.2779 2.05112 24.5321 3.61712 25.2871L19.0175 32.7148C23.1335 34.6998 27.9308 34.6998 32.0468 32.7148L47.4472 25.2871C49.0142 24.5321 48.9391 22.2779 47.3261 21.6309L29.2577 14.3809C28.6967 14.1559 28.1181 13.9881 27.5331 13.8691V23.9141C27.5331 25.0191 26.6381 25.9141 25.5331 25.9141C24.4281 25.9141 23.5331 25.0191 23.5331 23.9141V13.8672ZM12.0331 22C13.9661 22 15.5331 22.895 15.5331 24C15.5331 25.104 13.9661 26 12.0331 26C10.1001 26 8.53314 25.104 8.53314 24C8.53314 22.895 10.1001 22 12.0331 22ZM3.45306 28.5566C2.96101 28.5923 2.53314 29.001 2.53314 29.5508V32.2578C2.53314 32.6428 2.7535 32.9922 3.1015 33.1582L18.0292 40.2988C22.7742 42.5678 28.292 42.5678 33.037 40.2988L47.9648 33.1582C48.3128 32.9912 48.5331 32.6409 48.5331 32.2559V29.5566C48.5331 28.8216 47.7684 28.3372 47.1074 28.6582C43.2534 30.5222 32.916 35.5156 32.9159 35.5156C30.6279 36.6196 28.0741 37.2031 25.5331 37.2031C22.9921 37.2031 20.4374 36.6196 18.1484 35.5156C18.1484 35.5156 7.80206 30.5173 3.95306 28.6543C3.78831 28.5745 3.61707 28.5448 3.45306 28.5566Z" fill="white"/>
</g>
</svg>
