<svg width="51" height="50" viewBox="0 0 51 50" fill="none" xmlns="http://www.w3.org/2000/svg">
<g id="icons8-home 2">
<path id="Vector" d="M25.4856 6.94531C24.6946 6.94531 23.9043 7.21379 23.2598 7.75233L8.48391 20.0991C7.46655 20.9491 7.11889 22.4107 7.75014 23.5767C8.61889 25.1802 10.6672 25.5151 11.9887 24.4095L25.0407 13.5046C25.2984 13.2893 25.6728 13.2893 25.9305 13.5046L38.9825 24.4095C39.5019 24.8442 40.1335 25.0551 40.762 25.0551C41.5766 25.0551 42.3842 24.7003 42.9349 24.0107C43.8911 22.8135 43.6196 21.0451 42.4439 20.0624L40.7634 18.6586V11.5758C40.7634 10.5529 39.9342 9.72309 38.912 9.72309H37.0606C36.0377 9.72309 35.2078 10.5529 35.2078 11.5758V14.0159L27.7113 7.75233C27.0669 7.21379 26.2766 6.94531 25.4856 6.94531ZM25.4829 15.9215L10.2051 28.6833V34.7231C10.2051 37.7911 12.6926 40.2786 15.7607 40.2786H35.2051C38.2732 40.2786 40.7607 37.7911 40.7607 34.7231V28.6833L25.4829 15.9215ZM22.7078 26.3898H28.2634C29.0307 26.3898 29.6523 27.0113 29.6523 27.7786V34.7231H21.3189V27.7786C21.3189 27.0113 21.9405 26.3898 22.7078 26.3898Z" fill="white"/>
</g>
</svg>
