<svg width="55" height="56" viewBox="0 0 55 56" fill="none" xmlns="http://www.w3.org/2000/svg">
<path d="M29.3377 8.56457C29.3468 8.55052 29.3604 8.53823 29.3785 8.5277C29.3876 8.52301 29.3976 8.52067 29.4085 8.52067C29.9935 8.53296 30.6438 8.47327 31.2179 8.58739C31.7132 8.68572 32.2193 8.56984 32.7145 8.65236C33.2124 8.73488 33.6614 8.66289 34.1648 8.78228C34.5621 8.87885 34.9702 8.85076 35.3702 8.92099C42.1982 10.0962 47.1132 12.7439 50.1154 16.8641C50.1553 16.9191 50.1744 16.977 50.1726 17.0379C50.1726 17.1327 50.2324 17.2065 50.3522 17.2591C50.4175 17.2872 50.4501 17.3264 50.4501 17.3768C50.4483 17.44 50.4674 17.5008 50.5073 17.5594C50.7268 17.8824 50.91 18.2219 51.0569 18.5777C51.5812 19.8524 51.8614 21.1253 51.8977 22.3965C51.8984 22.4143 51.8936 22.4321 51.8834 22.4487C51.8732 22.4653 51.8578 22.4804 51.8383 22.4931C51.8188 22.5059 51.7954 22.516 51.7696 22.523C51.7439 22.5299 51.7162 22.5335 51.6882 22.5335H45.0298C44.9627 22.5335 44.8981 22.5166 44.8499 22.4865C44.8016 22.4563 44.7735 22.4153 44.7714 22.3719C44.7242 21.4379 44.4847 20.5319 44.053 19.654C43.6231 18.7796 43.0027 17.9691 42.1918 17.2223C40.4086 15.5789 38.0486 14.4107 35.1117 13.7178C33.3866 13.3104 31.6107 13.129 29.784 13.1735C27.9409 13.2191 26.1532 13.4883 24.4208 13.9811C24.4024 13.9865 24.3864 13.9947 24.3741 14.0051C24.3618 14.0154 24.3537 14.0276 24.3505 14.0404C24.3473 14.0533 24.349 14.0665 24.3556 14.0788C24.3622 14.0911 24.3734 14.1022 24.3882 14.111C25.6163 14.8321 26.8371 15.614 28.0507 16.4568C29.9472 17.7736 31.8764 18.9587 33.7594 20.2545C35.294 21.3097 36.943 22.3017 38.4885 23.3938C40.0068 24.4666 41.7211 25.4761 43.2476 26.5542C44.3605 27.3408 45.604 28.0519 46.6516 28.87C49.1241 30.799 50.6678 32.985 51.2828 35.4278C51.3399 35.6596 51.2882 35.9089 51.4379 36.1161C51.6283 36.3777 51.4161 36.5937 51.4923 36.85C51.6447 37.3697 51.6664 37.873 51.5576 38.36C51.514 38.5555 51.4968 38.7492 51.5059 38.9411C51.515 39.139 51.4814 39.3409 51.4052 39.5469C51.3399 39.7225 51.2936 39.8951 51.2664 40.0648C51.241 40.2404 51.202 40.4113 51.1494 40.5775C50.4583 42.8085 48.9753 44.8241 46.7006 46.6244C46.6744 46.645 46.661 46.6713 46.663 46.6981C46.665 46.725 46.6822 46.7506 46.7114 46.7701L54.8255 52.1533C54.8829 52.1913 54.9278 52.2364 54.9577 52.2858C54.9876 52.3352 55.0018 52.388 54.9996 52.4411C54.9973 52.4941 54.9785 52.5463 54.9444 52.5946C54.9103 52.6429 54.8616 52.6863 54.801 52.7222L50.2569 55.4296C50.1759 55.4778 50.0685 55.5034 49.958 55.5008C49.8475 55.4982 49.7427 55.4675 49.6665 55.4155C47.5604 53.9846 45.3455 52.5132 43.0789 51.0226C40.2055 49.1334 37.4409 47.305 34.7852 45.5376C34.4296 45.3011 34.0777 45.067 33.7294 44.8353C30.7762 42.8746 27.7523 40.8696 24.6575 38.82C24.5133 38.7252 24.448 38.59 24.3147 38.5075C22.0018 37.087 19.7026 35.5033 17.6264 34.1637C15.9176 33.0634 14.5761 32.1487 13.602 31.4194C12.5662 30.6457 11.5894 29.6508 10.6715 28.4346C10.6334 28.3843 10.6098 28.3322 10.6007 28.2783C10.588 28.2116 10.5336 28.1631 10.4375 28.1326C10.3667 28.1092 10.3332 28.0723 10.3368 28.022C10.3404 27.9459 10.3177 27.8704 10.2688 27.7955C9.26562 26.2399 8.75951 24.655 8.75044 23.0409C8.75044 22.8442 8.56813 22.681 8.63072 22.5001C8.81575 21.9716 8.71507 21.4695 8.80214 20.9726C8.97085 20.0362 9.23207 19.1887 9.5858 18.4302C9.67106 18.2453 9.8443 18.1025 10.1055 18.0018C10.2194 17.9572 10.3531 17.9387 10.485 17.9492C10.6169 17.9597 10.7392 17.9987 10.832 18.0598L15.7734 21.2886C15.8441 21.3355 15.8795 21.3911 15.8795 21.4554C15.8832 21.7598 15.8478 22.0524 15.7734 22.3333C15.7172 22.544 15.7317 22.7617 15.8169 22.9865C15.9258 23.2762 15.8822 23.5782 15.9612 23.8819C16.4818 25.9034 17.8559 27.6515 20.0835 29.1264C22.7555 30.8962 25.4621 32.6748 28.203 34.4622C28.7636 34.8274 29.2615 35.2189 29.8112 35.5806C32.1821 37.1362 34.5349 38.6836 36.8695 40.2228C38.4014 41.2307 39.83 42.2947 41.4299 43.2586C41.449 43.2696 41.4714 43.2779 41.4958 43.283C41.5201 43.2881 41.5457 43.2897 41.571 43.2879C41.5962 43.2861 41.6205 43.2808 41.6422 43.2724C41.6638 43.264 41.6824 43.2527 41.6966 43.2393C43.0589 41.9529 43.9324 40.5523 44.3169 39.0377C44.3741 38.8095 44.2734 38.5689 44.3986 38.367C44.4512 38.2851 44.4775 38.2014 44.4775 38.1159C44.4902 36.2466 43.8126 34.5546 42.4449 33.04C41.8462 32.3775 40.8168 31.5681 39.3565 30.6118C34.3698 27.3449 29.4012 24.0452 24.4508 20.7127C24.1079 20.4833 23.7614 20.2539 23.4113 20.0245C17.6174 16.2238 11.6501 12.278 5.5097 8.18708C5.44414 8.14327 5.40818 8.08447 5.40971 8.02358C5.41125 7.96269 5.45014 7.90467 5.51786 7.86226L10.247 4.89677C10.2903 4.86967 10.3486 4.85483 10.4092 4.85549C10.4699 4.85615 10.528 4.87225 10.5708 4.90028L19.0359 10.4626C19.1048 10.507 19.1801 10.5135 19.2618 10.4819C21.0758 9.79126 23.0667 9.2739 25.2344 8.92977C26.5296 8.72376 27.8439 8.62368 29.1772 8.62953C29.2534 8.62953 29.3069 8.60788 29.3377 8.56457Z" fill="white"/>
<path d="M16.5453 41.756C18.3234 44.3248 21.2757 46.0832 25.4021 47.031C26.0272 47.1742 26.6614 47.296 27.3048 47.3963C27.5131 47.429 27.7013 47.4999 27.8465 47.6004C29.5568 48.7822 31.2681 49.9645 32.9802 51.1475C33.4559 51.477 33.6236 52.0714 32.653 52.1216C29.3827 52.2947 26.589 52.1723 24.2719 51.7545C18.6882 50.747 14.3419 48.6085 11.2329 45.3389C10.2907 44.3505 9.54645 43.2427 9.00017 42.0156C8.43374 40.7491 8.13861 39.4306 8.11477 38.0602C8.11294 37.9468 8.1991 37.8901 8.37325 37.8901L15.0605 37.8848C15.1686 37.8848 15.2355 37.9188 15.2612 37.9868C15.3345 38.1838 15.3529 38.3891 15.3162 38.6028C15.3073 38.6588 15.3245 38.7155 15.3657 38.7657C15.5389 38.9806 15.4344 39.2152 15.5004 39.4497C15.7589 40.3534 16.1072 41.1221 16.5453 41.756Z" fill="white"/>
</svg>
