<svg width="199" height="44" viewBox="0 0 199 44" fill="none" xmlns="http://www.w3.org/2000/svg">
<g id="Group 10">
<rect id="Rectangle 9" x="10.8687" y="0.5" width="20.1569" height="9.45259" fill="#A5B933"/>
<rect id="Rectangle 13" x="3.35938" y="34.0488" width="20.1569" height="9.45259" fill="#A5B933"/>
<path id="Polygon 1" d="M10.8689 0.5V9.95259H0L10.8689 0.5Z" fill="#BCD030"/>
<path id="Polygon 7" d="M10.8689 0.5V9.95259H0L10.8689 0.5Z" fill="#BCD030"/>
<path id="Polygon 6" d="M10.8689 0.5V9.95259H0L10.8689 0.5Z" fill="#BCD030"/>
<path id="Polygon 5" d="M44.0684 0.5V9.95259H33.5947L44.0684 0.5Z" fill="#645CA5"/>
<path id="Polygon 17" d="M141.889 0.5V9.95259H131.81L141.889 0.5Z" fill="#EB5840"/>
<path id="Polygon 9" d="M33.5947 34.0474H44.0684V43.5L33.5947 34.0474Z" fill="#645CA5"/>
<path id="Polygon 11" d="M69.9565 33.8619H80.4302V43.3145L69.9565 33.8619Z" fill="#A336A0"/>
<path id="Polygon 18" d="M131.81 33.8619H141.889V43.3145L131.81 33.8619Z" fill="#EB5840"/>
<path id="Polygon 10" d="M59.4829 43.5V34.0474H69.9565L59.4829 43.5Z" fill="#645CA5"/>
<path id="Polygon 12" d="M121.732 43.3145V33.8619H131.81L121.732 43.3145Z" fill="#E80086"/>
<path id="Polygon 8" d="M69.9565 9.95259H59.4829V0.5L69.9565 9.95259Z" fill="#645CA5"/>
<path id="Polygon 13" d="M131.81 9.95259H121.732V0.5L131.81 9.95259Z" fill="#E80086"/>
<rect id="Rectangle 10" y="9.95117" width="10.8689" height="7.22845" fill="#A5B933"/>
<path id="Polygon 2" d="M10.8689 17.1816V26.8196L0 17.1816H10.8689Z" fill="#BCD030"/>
<rect id="Rectangle 11" x="10.8687" y="17.1816" width="12.6475" height="9.63793" fill="#A5B933"/>
<path id="Polygon 3" d="M23.5166 17.1816L33.5951 26.8196H23.5166V17.1816Z" fill="#BCD030"/>
<path id="Polygon 4" d="M33.5947 34.0488L23.5164 43.5014V34.0488H33.5947Z" fill="#BCD030"/>
<rect id="Rectangle 12" x="23.5166" y="26.8184" width="10.0785" height="7.22845" fill="#A5B933"/>
<rect id="Rectangle 14" x="59.4824" y="9.95117" width="10.4737" height="24.0948" fill="#5E5894"/>
<rect id="Rectangle 18" x="69.9565" y="0.5" width="10.4737" height="33.3621" fill="#812C81"/>
<rect id="Rectangle 15" x="33.5947" y="9.95117" width="10.4737" height="24.0948" fill="#5E5894"/>
<rect id="Rectangle 16" x="44.0688" y="34.0488" width="15.4141" height="9.45259" fill="#5E5894"/>
<rect id="Rectangle 19" x="80.4297" y="33.8613" width="17.9831" height="9.45259" fill="#812C81"/>
<rect id="Rectangle 33" x="141.889" y="33.8613" width="20.5521" height="9.45259" fill="#CE543F"/>
<rect id="Rectangle 35" x="141.889" y="0.5" width="20.5521" height="9.45259" fill="#CE543F"/>
<rect id="Rectangle 34" x="141.889" y="16.9961" width="15.2165" height="9.45259" fill="#CE543F"/>
<rect id="Rectangle 17" x="44.0688" y="0.5" width="15.4141" height="9.45259" fill="#5E5894"/>
<rect id="Rectangle 36" x="162.441" y="0.5" width="13.2403" height="9.45259" fill="#80297F"/>
<rect id="Rectangle 38" x="185.76" y="0.5" width="13.2403" height="9.45259" fill="#80297F"/>
<rect id="Rectangle 37" x="175.681" y="0.5" width="10.0785" height="9.45259" fill="#8D278B"/>
<rect id="Rectangle 39" x="175.681" y="9.95117" width="10.0785" height="33.3621" fill="#80297F"/>
<rect id="Rectangle 20" x="98.4131" y="0.5" width="10.0785" height="9.45259" fill="#E80086"/>
<rect id="Rectangle 23" x="98.4131" y="9.95117" width="10.0785" height="7.0431" fill="#C90D7D"/>
<rect id="Rectangle 29" x="121.732" y="9.95117" width="10.0785" height="7.0431" fill="#C90D7D"/>
<rect id="Rectangle 30" x="131.81" y="9.95117" width="10.0785" height="7.0431" fill="#CE543F"/>
<rect id="Rectangle 25" x="108.491" y="0.5" width="13.2403" height="9.45259" fill="#C90D7D"/>
<rect id="Rectangle 27" x="108.491" y="33.8613" width="13.2403" height="9.45259" fill="#C90D7D"/>
<rect id="Rectangle 26" x="108.491" y="16.9961" width="13.2403" height="9.45259" fill="#C90D7D"/>
<rect id="Rectangle 24" x="98.4131" y="26.4492" width="10.0785" height="7.41379" fill="#C90D7D"/>
<rect id="Rectangle 28" x="121.732" y="26.4492" width="10.0785" height="7.41379" fill="#C90D7D"/>
<rect id="Rectangle 21" x="98.4131" y="16.9961" width="10.0785" height="9.45259" fill="#E80086"/>
<rect id="Rectangle 31" x="131.81" y="16.9961" width="10.0785" height="9.45259" fill="#EB5840"/>
<rect id="Rectangle 32" x="131.81" y="26.4492" width="10.0785" height="7.41379" fill="#CE543F"/>
<rect id="Rectangle 22" x="98.4131" y="33.8613" width="10.0785" height="9.45259" fill="#E80086"/>
<path id="Polygon 14" d="M126.672 21.5371L131.81 26.4487H121.732L126.672 21.5371Z" fill="#C90D7D"/>
<path id="Polygon 16" d="M126.672 21.5375L121.732 26.449V16.9961L126.672 21.5375Z" fill="#E80086"/>
<path id="Polygon 15" d="M126.672 21.5371L121.732 16.9962H131.81L126.672 21.5371Z" fill="#C90D7D"/>
</g>
</svg>
