<svg width="54" height="41" viewBox="0 0 54 41" fill="none" xmlns="http://www.w3.org/2000/svg">
<path d="M54 4.84815C51.9695 5.6785 49.8215 6.231 47.6223 6.48863C49.9398 5.20204 51.671 3.16505 52.4873 0.764395C50.3219 1.97099 47.9493 2.81828 45.4747 3.26875C43.9557 1.75557 41.9852 0.703944 39.8187 0.250358C37.6523 -0.203229 35.3899 -0.0378402 33.3253 0.725063C31.2607 1.48797 29.4891 2.81316 28.2404 4.52867C26.9918 6.24417 26.3238 8.27079 26.323 10.3455C26.3152 11.1371 26.3998 11.9271 26.5751 12.7015C22.172 12.4999 17.864 11.4318 13.933 9.56728C10.0019 7.70271 6.53641 5.08362 3.7631 1.88132C2.34157 4.15837 1.90178 6.85599 2.5332 9.42531C3.16462 11.9946 4.81981 14.2427 7.16203 15.712C5.41188 15.6659 3.69895 15.229 2.16635 14.438V14.5514C2.16843 16.9404 3.05046 19.2559 4.66421 21.1088C6.27797 22.9616 8.52506 24.2389 11.0278 24.7259C10.0831 24.9576 9.10985 25.0721 8.13315 25.0662C7.4278 25.0761 6.72337 25.0147 6.03216 24.883C6.7513 26.9345 8.13138 28.7281 9.98346 30.0184C11.8355 31.3086 14.0691 32.0324 16.3783 32.0906C12.4608 34.9568 7.62729 36.5115 2.65191 36.506C1.76578 36.508 0.880278 36.4614 0 36.3663C5.06504 39.4094 10.9638 41.0186 16.9853 40.9998C37.3509 40.9998 48.4907 25.232 48.4907 11.5671C48.4907 11.1134 48.4907 10.6945 48.4907 10.2321C50.661 8.76414 52.5278 6.93986 54 4.84815Z" fill="#45AFFA"/>
</svg>
