<svg width="40" height="41" viewBox="0 0 40 41" fill="none" xmlns="http://www.w3.org/2000/svg">
<g clip-path="url(#clip0_523_83)">
<path d="M40 8.56666V32.6816L32.4687 40.5H8.82728L0 32.5184V8.56666L8.34085 0.5H31.6626L40 8.56666Z" fill="url(#paint0_linear_523_83)"/>
<path d="M39.1701 9.36523V31.8648L34.9351 29.355V11.824L39.1701 9.36523Z" fill="#3164DE"/>
<path d="M11.2936 5.96159L5.06513 11.8245L0.830078 9.36577L8.82736 1.83984L11.2936 5.96159Z" fill="#30438E"/>
<path d="M31.1794 1.83984L28.7098 5.96159H11.2933L8.82715 1.83984H31.1794Z" fill="#3164DE"/>
<path d="M39.17 9.36577L34.935 11.8245L28.71 5.96159L31.1796 1.83984L39.17 9.36577Z" fill="#78A1FC"/>
<path d="M39.17 31.8652L31.9517 39.1599L29.312 35.0382L34.9349 29.3555L39.17 31.8652Z" fill="#A4B7EA"/>
<path d="M31.9518 39.1608H9.29004L11.6542 35.0391H29.3122L31.9518 39.1608Z" fill="#839BDE"/>
<path d="M11.6541 35.0381L9.28998 39.1598L0.830078 31.7121L5.06513 29.2363L11.6541 35.0381Z" fill="#667CC4"/>
<path d="M5.06513 11.824V29.236L0.830078 31.7118V9.36523L5.06513 11.824Z" fill="#4A5EA9"/>
<path d="M34.9348 11.8239V29.3549L29.3119 35.0376H11.6539L5.06494 29.2359V11.8239L11.2934 5.96094H28.7098L34.9348 11.8239Z" fill="#A1C3F8"/>
<path d="M34.6118 12.0145V29.1612L29.1113 34.7215H11.8377L5.38818 29.0456V12.0145L11.4839 6.27734H28.5194L34.6118 12.0145Z" stroke="white" stroke-miterlimit="10"/>
<path d="M34.4622 34.8112C35.4414 33.9763 36.0019 33.0261 35.7142 32.6889C35.4265 32.3516 34.3995 32.755 33.4204 33.5899C32.4412 34.4248 31.8807 35.375 32.1684 35.7122C32.4561 36.0495 33.4831 35.6461 34.4622 34.8112Z" fill="white"/>
<path d="M30.3382 14.3895C29.5985 14.7131 28.8161 14.9284 28.0149 15.0288C28.8591 14.5274 29.4898 13.7335 29.7872 12.7979C28.9983 13.2682 28.134 13.5984 27.2325 13.7739C26.6792 13.1842 25.9613 12.7743 25.1721 12.5976C24.3829 12.4208 23.5587 12.4853 22.8066 12.7826C22.0545 13.0799 21.4091 13.5964 20.9543 14.265C20.4994 14.9335 20.256 15.7234 20.2557 16.532C20.2529 16.8405 20.2837 17.1484 20.3476 17.4502C18.7436 17.3716 17.1742 16.9553 15.7422 16.2287C14.3101 15.502 13.0477 14.4812 12.0374 13.2332C11.5195 14.1206 11.3593 15.172 11.5893 16.1733C11.8193 17.1747 12.4223 18.0508 13.2756 18.6234C12.638 18.6055 12.014 18.4352 11.4557 18.1269V18.1711C11.4564 19.1022 11.7778 20.0046 12.3656 20.7267C12.9535 21.4489 13.7721 21.9467 14.6839 22.1365C14.3397 22.2268 13.9851 22.2714 13.6293 22.2691C13.3724 22.273 13.1158 22.249 12.864 22.1977C13.1259 22.9972 13.6287 23.6962 14.3034 24.1991C14.9781 24.7019 15.7918 24.984 16.633 25.0067C15.2059 26.1237 13.4451 26.7297 11.6326 26.7275C11.3098 26.7283 10.9872 26.7101 10.6665 26.6731C12.5117 27.8591 14.6605 28.4862 16.8541 28.4789C24.2731 28.4789 28.3313 22.3337 28.3313 17.0081C28.3313 16.8312 28.3313 16.668 28.3313 16.4878C29.1219 15.9157 29.8019 15.2047 30.3382 14.3895Z" fill="#12154B"/>
</g>
<defs>
<linearGradient id="paint0_linear_523_83" x1="0" y1="20.5" x2="40" y2="20.5" gradientUnits="userSpaceOnUse">
<stop stop-color="#FFD64C"/>
<stop offset="0.29" stop-color="#FCD74E"/>
<stop offset="0.61" stop-color="#F69E1C"/>
<stop offset="1" stop-color="#F7650F"/>
</linearGradient>
<clipPath id="clip0_523_83">
<rect width="40" height="40" fill="white" transform="translate(0 0.5)"/>
</clipPath>
</defs>
</svg>
