<svg width="431" height="56" viewBox="0 0 431 56" fill="none" xmlns="http://www.w3.org/2000/svg">
<path d="M89.7424 56H125.167L100.835 44V9H89.7424V56Z" fill="#4A26CA"/>
<path d="M349.523 56H312.918L333.582 42.5V9H349.523V56Z" fill="#4A26CA"/>
<path d="M335.904 45.1518H99.9532V0H335.904V45.1518Z" fill="#683EFE"/>
<path d="M90.5291 56H72.03L85.2935 33.7173L72.03 9.67539H90.5291V56Z" fill="#683EFE"/>
<path d="M351.61 33.4241L364.874 55.7068H346.375V8.5H364.874L351.61 33.4241Z" fill="#683EFE"/>
<path d="M43.6904 23L46.0575 30.384L54.3178 32.5L46.0575 34.616L43.6904 42L41.3233 34.616L33.063 32.5L41.3233 30.384L43.6904 23Z" fill="white" fill-opacity="0.5"/>
<path d="M387.31 24L384.942 30.9954L376.682 33L384.942 35.0046L387.31 42L389.677 35.0046L397.937 33L389.677 30.9954L387.31 24Z" fill="white" fill-opacity="0.5"/>
<path d="M14.1699 37L14.959 39.7204L17.7124 40.5L14.959 41.2796L14.1699 44L13.3809 41.2796L10.6274 40.5L13.3809 39.7204L14.1699 37Z" fill="white" fill-opacity="0.5"/>
<path d="M416.83 38L416.041 40.3318L413.288 41L416.041 41.6682L416.83 44L417.619 41.6682L420.373 41L417.619 40.3318L416.83 38Z" fill="white" fill-opacity="0.5"/>
<path d="M5.3137 16L6.49726 19.4977L10.6274 20.5L6.49726 21.5023L5.3137 25L4.13013 21.5023L0 20.5L4.13013 19.4977L5.3137 16Z" fill="white" fill-opacity="0.5"/>
<path d="M425.686 17L424.503 20.4977L420.373 21.5L424.503 22.5023L425.686 26L426.87 22.5023L431 21.5L426.87 20.4977L425.686 17Z" fill="white" fill-opacity="0.5"/>
<path d="M20.6645 23L21.322 24.5545L23.6165 25L21.322 25.4455L20.6645 27L20.0069 25.4455L17.7124 25L20.0069 24.5545L20.6645 23Z" fill="white" fill-opacity="0.5"/>
<path d="M410.336 23L409.678 24.9432L407.383 25.5L409.678 26.0568L410.336 28L410.993 26.0568L413.288 25.5L410.993 24.9432L410.336 23Z" fill="white" fill-opacity="0.5"/>
<path d="M151.229 28.432V34H147.965V29.176L146.525 27.568H141.293V34H138.029V17.2H148.565L151.133 19.792V24.88L149.501 26.536L151.229 28.432ZM141.293 24.88H147.077L147.917 24.04V20.776L147.077 19.936H141.293V24.88ZM154.224 17.2H166.368V19.96H157.488V24.208H165.672V26.92H157.488V31.24H166.368V34H154.224V17.2ZM168.539 31.24V19.96L171.299 17.2H179.507L182.219 19.912V22.48H178.955V21.112L177.827 19.984H173.027L171.803 21.208V29.992L173.027 31.216H177.827L178.955 30.088V28.72H182.219V31.288L179.507 34H171.299L168.539 31.24ZM184.505 17.2H196.649V19.96H187.769V24.208H195.953V26.92H187.769V31.24H196.649V34H184.505V17.2ZM199.06 17.2H201.988L209.476 28.6H209.524V17.2H212.668V34H209.74L202.252 22.624H202.204V34H199.06V17.2ZM219.61 19.96H214.594V17.2H227.89V19.96H222.874V34H219.61V19.96ZM235.389 17.2H238.677L240.717 29.056H240.813L244.149 17.2H246.597L249.861 29.056H249.957L251.997 17.2H255.285L251.805 34H248.757L245.421 22.192H245.325L241.917 34H238.869L235.389 17.2ZM257.563 17.2H260.827V34H257.563V17.2ZM264.076 17.2H267.004L274.492 28.6H274.54V17.2H277.684V34H274.756L267.268 22.624H267.22V34H264.076V17.2ZM280.45 31.408V29.008H283.666V30.424L284.458 31.216H289.426L290.242 30.4V27.616L289.45 26.824H283.09L280.498 24.232V19.792L283.09 17.2H290.674L293.266 19.792V22.216H290.05V20.776L289.258 19.984H284.506L283.714 20.776V23.248L284.506 24.04H290.866L293.458 26.632V31.36L290.818 34H283.042L280.45 31.408Z" fill="white"/>
</svg>
