<svg width="400" height="100" viewBox="0 0 400 100" fill="none" xmlns="http://www.w3.org/2000/svg">
<g clip-path="url(#clip0_33_617)">
<path d="M165.342 39.2653C164.255 35.255 161.512 32.3207 156.149 32.3207C148.236 32.3207 144.926 38.9212 144.926 45.6195C144.926 52.3178 148.236 58.9219 156.149 58.9219C161.895 58.9219 165.044 54.8645 165.557 49.7783H171.866C171.348 58.1394 165.093 63.9067 156.161 63.9067C145.095 63.9067 138.476 55.5927 138.476 45.6159C138.476 35.639 145.072 27.3105 156.138 27.3105C164.461 27.3576 171.027 31.7121 171.804 39.2436L165.342 39.2653Z" fill="white"/>
<path d="M175.685 50.3945C175.685 42.6674 180.595 37.0957 189.179 37.0957C197.763 37.0957 202.673 42.6674 202.673 50.3945C202.673 58.1216 197.763 63.7476 189.179 63.7476C180.595 63.7476 175.685 58.1724 175.685 50.3945ZM196.779 50.3945C196.779 46.0473 194.453 41.4972 189.179 41.4972C183.905 41.4972 181.58 46.0437 181.58 50.3945C181.58 54.7453 183.905 59.3461 189.179 59.3461C194.453 59.3461 196.779 54.796 196.779 50.3945Z" fill="white"/>
<path d="M207.741 28.1445H213.636V33.4264H207.741V28.1445ZM207.741 37.7808H213.636V63.0634H207.741V37.7808Z" fill="white"/>
<path d="M220.048 37.7802H225.633V41.4971L225.736 41.5949C226.583 40.2181 227.798 39.0768 229.26 38.2862C230.723 37.4956 232.379 37.0837 234.063 37.0919C239.855 37.0919 243.524 40.0263 243.524 45.6957V63.0592H237.629V47.1665C237.526 43.207 235.871 41.4971 232.409 41.4971C228.479 41.4971 225.943 44.4278 225.943 48.1447V63.0628H220.048V37.7802Z" fill="white"/>
<path d="M282.771 63.0626H278.634L277.653 58.9545C274.206 62.6714 271.034 63.8922 266.545 63.8922C255.487 63.8994 248.853 55.5673 248.853 45.6014C248.853 35.6354 255.487 27.3105 266.537 27.3105C274.581 27.3105 281.376 31.3679 282.357 39.2436H276.048C275.428 34.6464 271.191 32.299 266.537 32.299C258.624 32.299 255.314 38.8994 255.314 45.5977C255.314 52.2961 258.624 58.9002 266.537 58.9002C273.153 58.998 276.772 55.234 276.879 49.3146H267.055V44.674H282.759L282.771 63.0626Z" fill="white"/>
<path d="M293.58 51.8617C293.58 55.8249 295.855 59.3461 300.766 59.3461C304.179 59.3461 306.247 57.926 307.278 55.1402H312.866C311.575 60.6648 306.611 63.7476 300.766 63.7476C292.393 63.7476 287.685 58.2195 287.685 50.4452C287.685 43.2542 292.665 37.0957 300.613 37.0957C309.039 37.0957 314.211 44.2831 313.23 51.8617H293.58ZM307.335 48.1955C307.128 44.6743 304.592 41.4972 300.613 41.4972C296.526 41.4972 293.737 44.428 293.58 48.1955H307.335Z" fill="white"/>
<path d="M335.776 46.2393C335.308 43.1564 332.93 41.4972 329.674 41.4972C326.61 41.4972 322.331 43.0115 322.331 50.6879C322.331 54.8938 324.296 59.3461 329.413 59.3461C332.826 59.3461 335.205 57.1942 335.776 53.5752H341.671C340.583 60.1286 336.308 63.7476 329.413 63.7476C321.036 63.7476 316.436 58.1216 316.436 50.6879C316.436 43.0586 320.833 37.0957 329.62 37.0957C335.825 37.0957 341.111 40.0301 341.671 46.2393H335.776Z" fill="white"/>
<path d="M346.65 28.1445H352.545V48.0003L363.197 37.7808H370.437L360.198 47.0693L371.417 63.0634H364.216L356.046 50.7862L352.53 54.014V63.0706H346.65V28.1445Z" fill="white"/>
<path d="M373.007 50.3945C373.007 42.6674 377.917 37.0957 386.501 37.0957C395.085 37.0957 400 42.6674 400 50.3945C400 58.1216 395.085 63.7476 386.501 63.7476C377.917 63.7476 373.007 58.1724 373.007 50.3945ZM394.105 50.3945C394.105 46.0473 391.776 41.4972 386.501 41.4972C381.227 41.4972 378.902 46.0437 378.902 50.3945C378.902 54.7453 381.227 59.3461 386.501 59.3461C391.776 59.3461 394.105 54.796 394.105 50.3945Z" fill="white"/>
<path d="M105.719 49.7722C105.765 59.6599 102.71 69.3384 96.9398 77.5839C91.1698 85.8294 82.9441 92.2714 73.3029 96.0955C63.6617 99.9195 53.038 100.954 42.7753 99.0673C32.5126 97.1809 23.0718 92.4586 15.6469 85.4976C8.22195 78.5366 3.14631 69.6496 1.06183 59.9604C-1.02265 50.2712 -0.0223492 40.215 3.93624 31.0634C7.89483 21.9119 14.6339 14.0761 23.3013 8.54691C31.9686 3.01774 42.1749 0.0435617 52.6296 0.000475307C66.6481 -0.0572991 80.1168 5.15396 90.0729 14.4879C100.029 23.8218 105.657 36.5139 105.719 49.7722Z" fill="#8DC63F"/>
<path d="M101.755 49.7901C101.798 58.9347 98.974 67.8863 93.6386 75.5128C88.3032 83.1393 80.6963 89.0982 71.7801 92.6358C62.8638 96.1735 53.0385 97.1311 43.5468 95.3876C34.0551 93.644 25.3232 89.2776 18.4553 82.8405C11.5875 76.4034 6.89222 68.1847 4.96323 59.2238C3.03424 50.2629 3.9582 40.9622 7.61825 32.4979C11.2783 24.0337 17.5101 16.786 25.5255 11.6714C33.5409 6.55681 42.9799 3.80505 52.6489 3.76412C65.6137 3.71019 78.0703 8.52873 87.2791 17.16C96.4878 25.7912 101.695 37.5284 101.755 49.7901Z" fill="#F9E988"/>
<path d="M53.7597 6.76041C56.8674 6.23872 60.0479 6.23872 63.1556 6.76041C66.2934 7.2303 69.3265 8.1914 72.1302 9.6042C74.9188 11.0533 77.3281 13.0204 79.7259 14.8643C82.1237 16.7082 84.5101 18.5956 86.7815 20.6606C89.1002 22.6933 91.1236 25.0078 92.799 27.5436C94.5241 30.0593 95.9378 32.7542 97.0125 35.5751C99.054 41.2482 99.7627 47.3596 98.7438 53.1885H98.4412C97.4185 47.4103 96.0319 41.9039 93.8447 36.6655C92.8181 34.0276 91.6102 31.4561 90.2288 28.9673C88.7875 26.4782 87.1992 24.0677 85.4715 21.7474C83.7144 19.4016 81.5611 17.3454 79.0977 15.6613C76.6156 13.9876 73.762 12.9044 71.0003 11.8756C68.2386 10.8468 65.4998 9.78171 62.6194 8.99921C59.7389 8.21672 56.8125 7.62985 53.7559 7.06109L53.7597 6.76041Z" fill="white"/>
<path d="M77.6575 33.4696C74.1106 32.4988 70.4334 31.1222 66.7103 29.7311C66.4958 28.8471 65.6684 27.7458 63.9945 26.4018C61.5622 24.4057 56.9926 24.4565 53.0434 25.3404C48.6844 24.3695 44.3791 24.0254 40.2461 24.9781C6.4429 33.7848 25.6102 55.2708 13.1997 76.8691C14.9655 80.4121 33.9987 101.083 61.5392 95.5367C61.5392 95.5367 52.1203 74.1304 73.3751 63.8565C90.6157 55.4918 103.072 40.0158 77.6575 33.4696Z" fill="#8BC53F"/>
<path d="M81.8324 47.5308C81.8346 47.9141 81.7167 48.2894 81.4934 48.6094C81.2701 48.9293 80.9515 49.1794 80.578 49.328C80.2044 49.4767 79.7926 49.5173 79.3946 49.4446C78.9967 49.3719 78.6304 49.1893 78.3422 48.9197C78.0541 48.6502 77.8568 48.3059 77.7755 47.9304C77.6942 47.5549 77.7325 47.165 77.8855 46.81C78.0385 46.455 78.2994 46.151 78.6351 45.9362C78.9708 45.7215 79.3663 45.6057 79.7716 45.6035C80.3148 45.6016 80.8367 45.8033 81.2229 46.1646C81.6092 46.5258 81.8283 47.0171 81.8324 47.5308Z" fill="white"/>
<path d="M53.0435 25.3267C55.5064 25.4934 64.4121 28.2249 66.7103 29.7174C64.7951 24.4645 58.3485 23.7654 53.0435 25.3267Z" fill="#009345"/>
<path d="M55.3873 38.6109C55.388 40.3794 54.8342 42.1084 53.796 43.5791C52.7577 45.0499 51.2815 46.1964 49.5542 46.8737C47.8269 47.5509 45.926 47.7285 44.092 47.3839C42.2579 47.0394 40.5731 46.1881 39.2507 44.9379C37.9282 43.6877 37.0275 42.0946 36.6624 40.3601C36.2973 38.6257 36.4843 36.8278 37.1997 35.1939C37.9151 33.56 39.1268 32.1634 40.6814 31.1809C42.2361 30.1983 44.064 29.6738 45.9339 29.6738C47.1751 29.6734 48.4043 29.9042 49.5512 30.3531C50.6982 30.802 51.7403 31.4602 52.6182 32.2902C53.4961 33.1201 54.1925 34.1055 54.6676 35.19C55.1427 36.2746 55.3873 37.437 55.3873 38.6109Z" fill="white"/>
<path d="M52.5838 38.6913C52.5838 39.9351 52.1938 41.151 51.4631 42.1852C50.7325 43.2194 49.694 44.0255 48.4789 44.5015C47.2639 44.9775 45.9269 45.102 44.637 44.8594C43.3471 44.6167 42.1622 44.0178 41.2323 43.1382C40.3023 42.2587 39.669 41.1381 39.4124 39.9182C39.1559 38.6983 39.2875 37.4338 39.7908 36.2846C40.2941 35.1355 41.1464 34.1533 42.2399 33.4622C43.3334 32.7712 44.6191 32.4023 45.9342 32.4023C47.6978 32.4023 49.3891 33.0649 50.6362 34.2443C51.8832 35.4237 52.5838 37.0234 52.5838 38.6913Z" fill="#58595B"/>
<path d="M89.4896 51.4716C81.8288 56.5759 73.1185 60.4486 60.7616 60.4486C54.9777 60.4486 53.8056 54.6523 49.9829 57.4852C48.0103 58.956 41.0543 62.2454 35.5347 61.9954C30.0151 61.7455 21.0673 58.6843 18.5737 47.541C17.5855 58.6843 17.0799 66.8933 12.6558 76.3013C21.4657 89.6436 42.4715 99.9356 61.5392 95.5015C59.4899 81.9708 71.9923 68.7191 79.0364 61.9375C81.7177 59.369 86.8121 55.1776 89.4896 51.4644V51.4716Z" fill="#8BC53F"/>
<path d="M89.1906 51.8037C86.8119 53.8541 83.9812 55.372 81.1008 56.7124C78.1852 58.0217 75.1458 59.0684 72.0227 59.8388C68.8971 60.6032 65.6375 61.1792 62.3357 60.8966C59.0339 60.614 55.6593 59.5526 53.4722 57.2123L53.5756 57.1C56.2569 58.7447 59.3518 59.3244 62.4314 59.4077C65.553 59.4975 68.6753 59.2544 71.7393 58.6831C74.8344 58.0703 77.8621 57.185 80.7828 56.0386C83.7054 54.8975 86.5974 53.5752 89.0871 51.6914L89.1906 51.8037Z" fill="#58595B"/>
</g>
<defs>
<clipPath id="clip0_33_617">
<rect width="400" height="100" fill="white"/>
</clipPath>
</defs>
</svg>
