<svg width="400" height="100" viewBox="0 0 400 100" fill="none" xmlns="http://www.w3.org/2000/svg">
<g clip-path="url(#clip0_31_22)">
<path fill-rule="evenodd" clip-rule="evenodd" d="M137.486 61.1951L132.555 53.4515H125.335V61.1951H121.088V37.9436H133.876C135.435 37.9324 136.967 38.3103 138.306 39.036C139.645 39.7621 140.739 40.8081 141.47 42.0603C142.2 43.3124 142.538 44.7227 142.447 46.1375C142.356 47.5524 141.84 48.9175 140.955 50.0839C140.03 51.3212 138.725 52.2836 137.203 52.8512L142.465 61.1951H137.486ZM133.876 41.8903H125.335V49.6121H133.876C134.434 49.6118 134.986 49.5069 135.498 49.3039C136.009 49.1012 136.469 48.8042 136.849 48.4324C137.437 47.8897 137.836 47.2018 137.997 46.4542C138.158 45.7066 138.074 44.9324 137.755 44.2281C137.435 43.5239 136.895 42.9206 136.201 42.4933C135.507 42.0663 134.69 41.8342 133.853 41.826L133.876 41.8903ZM179.343 37.9436L166.531 61.1951H171.298L179.343 46.6306L187.366 61.1951H192.132L179.343 37.9436ZM233.328 37.9436H227.901L220.61 46.5233L213.343 37.9436H207.893L218.581 50.3415V61.1951H222.828V50.1484L233.328 37.9436ZM255.082 37.9436H263.599C266.983 37.966 270.222 39.1981 272.615 41.3736C275.008 43.5488 276.363 46.493 276.388 49.5694C276.369 52.6475 275.016 55.5945 272.621 57.7712C270.227 59.9478 266.985 61.1782 263.599 61.1951H255.082V37.9436ZM263.599 57.2481C265.856 57.2427 268.019 56.4248 269.615 54.9739C271.211 53.523 272.111 51.5569 272.117 49.5048C272.092 47.4582 271.187 45.5015 269.595 44.0542C268.003 42.6069 265.851 41.7839 263.599 41.7615H259.305V57.2481H263.599ZM304.772 37.9436H300.525V61.1951H304.772V37.9436ZM350.217 51.4781C350.24 52.7572 349.973 54.0269 349.433 55.2081C348.893 56.3891 348.093 57.4563 347.077 58.3421C345.587 59.6972 343.69 60.6197 341.623 60.9927C339.553 61.3654 337.413 61.1721 335.467 60.4369C333.52 59.7018 331.859 58.4578 330.691 56.863C329.524 55.2682 328.904 53.3939 328.909 51.4781V37.9436H333.156V51.4781C333.156 53.02 333.83 54.4985 335.03 55.5888C336.227 56.6788 337.853 57.2912 339.55 57.2912C341.247 57.2912 342.873 56.6788 344.073 55.5888C345.27 54.4985 345.943 53.02 345.943 51.4781V37.9436H350.217V51.4781ZM378.6 61.1951V47.2957L387.163 55.0603L395.683 47.2957V61.1951H400V37.9436L387.163 49.5694L374.377 37.9436V61.1951H378.6Z" fill="#F1F1F2"/>
<path d="M89.5417 37.2151V71.7921L47.2363 93.9924L4.9077 71.7921V27.3698L47.2363 5.14791L79.75 22.2219L84.6577 19.6479L47.2363 0L0 24.7958V74.3661L47.2363 99.1618L94.473 74.3661V34.6412L89.5417 37.2151Z" fill="url(#paint0_linear_31_22)"/>
<path d="M35.3919 71.8146H28.3135V50.2361H51.9082C54.1406 50.2137 56.2732 49.3931 57.8452 47.9518C59.4172 46.5109 60.3019 44.5652 60.3079 42.5355C60.3206 41.5321 60.1076 40.5367 59.6816 39.6109C59.2552 38.6849 58.6256 37.8482 57.8302 37.1518C57.0609 36.4331 56.1399 35.8631 55.1222 35.4761C54.1046 35.0888 53.0112 34.8928 51.9082 34.8994H28.3135V28.3359H51.9316C56.0666 28.3585 60.0252 29.8617 62.9492 32.5197C65.8729 35.1779 67.5266 38.7767 67.5512 42.5355C67.5766 45.4131 66.6116 48.2255 64.7909 50.5791C63.1152 52.8312 60.7539 54.5903 57.9956 55.6412C55.2642 56.4288 52.4139 56.8197 49.5486 56.7997H35.3919V71.8146Z" fill="url(#paint1_linear_31_22)"/>
<path d="M67.3865 71.2782H59.1281L52.7578 61.1755C55.2781 61.0352 57.7641 60.573 60.1428 59.8027L67.3865 71.2782Z" fill="url(#paint2_linear_31_22)"/>
<path d="M84.6104 30.0304L89.4944 32.4972L94.3787 30.0304V24.8181L89.4944 22.2441L84.6104 24.8181V30.0304Z" fill="url(#paint3_linear_31_22)"/>
</g>
<defs>
<linearGradient id="paint0_linear_31_22" x1="94.3893" y1="24.8231" x2="-2.95936" y2="67.6455" gradientUnits="userSpaceOnUse">
<stop stop-color="#C200FB"/>
<stop offset="0.489658" stop-color="#3772FF"/>
<stop offset="0.489758" stop-color="#3773FE"/>
<stop offset="1" stop-color="#5AC4BE"/>
</linearGradient>
<linearGradient id="paint1_linear_31_22" x1="94.3892" y1="24.824" x2="-2.95945" y2="67.6465" gradientUnits="userSpaceOnUse">
<stop stop-color="#C200FB"/>
<stop offset="0.489658" stop-color="#3772FF"/>
<stop offset="0.489758" stop-color="#3773FE"/>
<stop offset="1" stop-color="#5AC4BE"/>
</linearGradient>
<linearGradient id="paint2_linear_31_22" x1="94.3895" y1="24.824" x2="-2.95921" y2="67.6465" gradientUnits="userSpaceOnUse">
<stop stop-color="#C200FB"/>
<stop offset="0.489658" stop-color="#3772FF"/>
<stop offset="0.489758" stop-color="#3773FE"/>
<stop offset="1" stop-color="#5AC4BE"/>
</linearGradient>
<linearGradient id="paint3_linear_31_22" x1="94.3894" y1="24.8239" x2="-2.95934" y2="67.6464" gradientUnits="userSpaceOnUse">
<stop stop-color="#C200FB"/>
<stop offset="0.489658" stop-color="#3772FF"/>
<stop offset="0.489758" stop-color="#3773FE"/>
<stop offset="1" stop-color="#5AC4BE"/>
</linearGradient>
<clipPath id="clip0_31_22">
<rect width="400" height="100" fill="white"/>
</clipPath>
</defs>
</svg>
