<svg width="400" height="70" viewBox="0 0 400 70" fill="none" xmlns="http://www.w3.org/2000/svg">
<g clip-path="url(#clip0_31_29)">
<mask id="mask0_31_29" style="mask-type:luminance" maskUnits="userSpaceOnUse" x="0" y="0" width="400" height="70">
<path d="M0 0H400V70H0V0Z" fill="white"/>
</mask>
<g mask="url(#mask0_31_29)">
<path d="M67.2014 55.1909L56.2293 69.0451C55.992 69.3461 55.7046 69.5862 55.385 69.7506C55.0654 69.9149 54.7204 69.9999 54.3717 70.0003H2.3593C2.11123 70.0002 1.86858 69.9148 1.66106 69.7547C1.45355 69.5947 1.29018 69.3668 1.19095 69.099C1.09173 68.8313 1.06096 68.5353 1.1024 68.2473C1.14385 67.9592 1.25572 67.6917 1.42431 67.4774L12.3841 53.6232C12.6214 53.3223 12.9088 53.0822 13.2284 52.9178C13.548 52.7535 13.8929 52.6685 14.2417 52.668H66.254C66.5044 52.6619 66.7507 52.7432 66.9619 52.9015C67.1731 53.0599 67.3399 53.2883 67.4412 53.558C67.5424 53.8277 67.5737 54.1266 67.531 54.4172C67.4884 54.7077 67.3737 54.977 67.2014 55.1909ZM56.2293 27.2857C55.991 26.9862 55.7034 26.747 55.384 26.5827C55.0647 26.4185 54.7202 26.3327 54.3717 26.3305H2.3593C2.11123 26.3307 1.86858 26.416 1.66106 26.5761C1.45355 26.7362 1.29018 26.9641 1.19095 27.2318C1.09173 27.4995 1.06096 27.7956 1.1024 28.0836C1.14385 28.3716 1.25572 28.6391 1.42431 28.8534L12.3841 42.7149C12.6223 43.0145 12.9099 43.2537 13.2293 43.4179C13.5487 43.5821 13.8931 43.668 14.2417 43.6701H66.254C66.5016 43.6685 66.7434 43.5822 66.95 43.4215C67.1565 43.2609 67.319 43.033 67.4174 42.7655C67.5159 42.498 67.5462 42.2026 67.5045 41.9153C67.4628 41.6279 67.3511 41.361 67.1828 41.1472L56.2293 27.2857ZM2.3593 17.3326H54.3717C54.7204 17.3323 55.0654 17.2473 55.385 17.0829C55.7046 16.9186 55.992 16.6784 56.2293 16.3774L67.2014 2.52324C67.33 2.36312 67.427 2.17152 67.4854 1.96214C67.5439 1.75275 67.5623 1.53075 67.5394 1.312C67.5165 1.09325 67.4529 0.883165 67.353 0.696751C67.2532 0.510338 67.1196 0.352204 66.9618 0.233655C66.7506 0.0753921 66.5043 -0.0057891 66.254 0.000321227H14.2417C13.8929 0.000753506 13.548 0.085793 13.2284 0.250136C12.9088 0.41448 12.6214 0.654603 12.3841 0.95553L1.42431 14.8097C1.25572 15.024 1.14385 15.2915 1.1024 15.5796C1.06096 15.8676 1.09173 16.1636 1.19095 16.4313C1.29018 16.6991 1.45355 16.9269 1.66106 17.087C1.86858 17.2471 2.11123 17.3324 2.3593 17.3326Z" fill="url(#paint0_linear_31_29)"/>
<path d="M130.613 29.6037H102.786V18.812H137.845V8.02037H102.694C101.493 8.0125 100.302 8.28333 99.1898 8.81741C98.0776 9.35149 97.0657 10.1384 96.2118 11.133C95.3579 12.1277 94.6788 13.3108 94.2133 14.6146C93.7477 15.9184 93.5049 17.3175 93.4985 18.7318V29.6693C93.5032 31.0849 93.7449 32.4855 94.2097 33.791C94.6746 35.0965 95.3534 36.2813 96.2075 37.2775C97.0615 38.2738 98.074 39.0619 99.1869 39.5969C100.3 40.1319 101.491 40.4032 102.694 40.3954H130.557V51.187H94.1611V61.9787H130.613C132.422 61.9906 134.193 61.3704 135.703 60.1965C137.212 59.0227 138.392 57.3479 139.093 55.3841C139.559 54.0805 139.802 52.6815 139.808 51.2672V40.3297C139.803 38.9142 139.562 37.5136 139.097 36.2081C138.632 34.9027 137.953 33.718 137.099 32.7217C136.245 31.7255 135.233 30.9374 134.12 30.4023C133.007 29.8673 131.815 29.5959 130.613 29.6037ZM184.52 8.02037H156.588C154.776 8.00337 153.001 8.62045 151.487 9.79335C149.974 10.9662 148.79 12.6421 148.086 14.6084C147.619 15.9138 147.375 17.3151 147.369 18.7318V51.2672C147.375 52.684 147.619 54.0855 148.086 55.3914C148.79 57.3577 149.974 59.0336 151.487 60.2064C153.001 61.3792 154.776 61.9961 156.588 61.9787H184.52C185.721 61.9866 186.912 61.7157 188.024 61.1817C189.136 60.6476 190.148 59.8607 191.002 58.866C191.856 57.8713 192.535 56.6883 193.001 55.3845C193.466 54.0807 193.709 52.6816 193.715 51.2672V18.7318C193.709 17.3175 193.466 15.9185 193 14.6148C192.535 13.3111 191.855 12.1282 191.001 11.1339C190.148 10.1389 189.136 9.35176 188.024 8.81751C186.912 8.28327 185.721 8.01239 184.52 8.02037ZM184.452 51.187H156.656V18.812H184.44L184.452 51.187ZM282.353 8.02037H255.108C253.907 8.0125 252.717 8.28333 251.605 8.81741C250.492 9.35149 249.481 10.1384 248.627 11.133C247.773 12.1277 247.094 13.3108 246.628 14.6146C246.163 15.9184 245.92 17.3175 245.913 18.7318V61.9787H255.201V44.2527H282.322V61.9787H291.61V18.7318C291.604 17.3112 291.359 15.9061 290.89 14.5974C290.42 13.2887 289.736 12.1023 288.875 11.1066C288.015 10.1109 286.995 9.32558 285.876 8.7959C284.757 8.26622 283.559 8.00265 282.353 8.02037ZM282.285 33.461H255.164V18.812H282.285V33.461ZM390.805 8.02037H363.56C362.359 8.0125 361.169 8.28333 360.057 8.81741C358.944 9.35149 357.933 10.1384 357.079 11.133C356.225 12.1277 355.546 13.3108 355.08 14.6146C354.615 15.9184 354.372 17.3175 354.365 18.7318V61.9787H363.653V44.2527H390.712V61.9787H400V18.7318C399.994 17.3175 399.751 15.9185 399.285 14.6148C398.82 13.3111 398.14 12.1282 397.286 11.1339C395.562 9.1251 393.231 8.00514 390.805 8.02037ZM390.712 33.461H363.591V18.812H390.712V33.461ZM336.842 51.187H333.127L319.845 12.5412C319.39 11.2078 318.607 10.0649 317.596 9.25938C316.586 8.45384 315.394 8.02238 314.173 8.02037H305.932C304.726 8.01271 303.544 8.42677 302.538 9.21012C301.531 9.99347 300.745 11.1109 300.278 12.4209C299.968 13.2904 299.806 14.2232 299.802 15.1662V61.9787H309.09V18.812H312.805L326.081 57.4579C326.543 58.7889 327.332 59.9272 328.347 60.7273C329.362 61.5274 330.556 61.953 331.777 61.9495H340.019C340.82 61.9546 341.614 61.7737 342.355 61.4171C343.097 61.0605 343.772 60.5353 344.341 59.8714C345.49 58.5312 346.14 56.7084 346.149 54.8037V8.02037H336.842V51.187ZM211.208 8.02037H201.92V51.2672C201.926 52.6846 202.17 54.0866 202.637 55.3927C203.105 56.6988 203.787 57.8834 204.644 58.8783C205.501 59.8733 206.517 60.6594 207.632 61.1914C208.748 61.7234 209.942 61.991 211.146 61.9787H239.009V51.187H211.208V8.02037Z" fill="white"/>
</g>
</g>
<defs>
<linearGradient id="paint0_linear_31_29" x1="6.69366" y1="71.6701" x2="71.3195" y2="9.80032" gradientUnits="userSpaceOnUse">
<stop offset="0.08" stop-color="#9945FF"/>
<stop offset="0.3" stop-color="#8752F3"/>
<stop offset="0.5" stop-color="#5497D5"/>
<stop offset="0.6" stop-color="#43B4CA"/>
<stop offset="0.72" stop-color="#28E0B9"/>
<stop offset="0.97" stop-color="#19FB9B"/>
</linearGradient>
<clipPath id="clip0_31_29">
<rect width="400" height="70" fill="white"/>
</clipPath>
</defs>
</svg>
