<svg width="20" height="20" viewBox="0 0 20 20" fill="none" xmlns="http://www.w3.org/2000/svg">
<g id="Icon " clip-path="url(#clip0_523_587)">
<g id="Group">
<path id="Vector" d="M10 20C15.5228 20 20 15.5228 20 10C20 4.47715 15.5228 0 10 0C4.47715 0 0 4.47715 0 10C0 15.5228 4.47715 20 10 20Z" fill="url(#paint0_linear_523_587)"/>
<path id="Vector_2" d="M10 20C15.5228 20 20 15.5228 20 10C20 4.47715 15.5228 0 10 0C4.47715 0 0 4.47715 0 10C0 15.5228 4.47715 20 10 20Z" fill="url(#paint1_radial_523_587)"/>
<path id="Vector_3" d="M14.3946 16.2272C11.4649 16.3318 8.53519 16.3318 5.6055 16.2272C4.63753 16.1904 3.80913 15.362 3.77233 14.394C3.66769 11.4643 3.66769 8.53466 3.77233 5.60497C3.80913 4.637 4.63753 3.80856 5.6055 3.77185C8.53519 3.6672 11.4649 3.6672 14.3946 3.77185C15.3625 3.80864 16.1909 4.63704 16.2277 5.60497C16.3324 8.53466 16.3324 11.4643 16.2277 14.394C16.1909 15.3619 15.3625 16.1904 14.3946 16.2272Z" fill="url(#paint2_linear_523_587)"/>
<path id="Vector_4" d="M10 16.3057C13.4828 16.3057 16.3062 13.4823 16.3062 9.99953C16.3062 6.51673 13.4828 3.69336 10 3.69336C6.51722 3.69336 3.69385 6.51673 3.69385 9.99953C3.69385 13.4823 6.51722 16.3057 10 16.3057Z" fill="url(#paint3_linear_523_587)"/>
<path id="Vector_5" d="M10.591 15.1038C7.19377 15.1018 4.28201 12.2032 4.29947 8.8227C4.30588 8.06391 4.45854 7.33551 4.72736 6.65625C4.07955 7.63567 3.69338 8.77813 3.69385 9.99989C3.71147 13.3615 6.63838 16.2885 10 16.3061C12.6261 16.3046 14.9514 14.5054 15.8934 12.154C14.741 13.8782 12.7779 15.0958 10.591 15.1038Z" fill="url(#paint4_linear_523_587)"/>
<path id="Vector_6" d="M13.5252 12.3179C13.5179 12.9755 12.9755 13.5179 12.3179 13.5252C11.6602 13.5322 11.1293 12.997 11.1309 12.334C11.1327 11.6709 11.6709 11.1328 12.334 11.1309C12.997 11.1293 13.5322 11.6602 13.5252 12.3179Z" fill="url(#paint5_linear_523_587)"/>
<path id="Vector_7" d="M12.6222 12.9235C11.9629 12.9302 11.4307 12.3955 11.4323 11.7327C11.4325 11.6592 11.4397 11.5874 11.4525 11.5176C11.2538 11.732 11.1319 12.0188 11.1309 12.3336C11.1293 12.9967 11.6602 13.5318 12.3179 13.5248C12.9027 13.5185 13.3957 13.0885 13.5033 12.5314C13.2821 12.7689 12.9686 12.9203 12.6222 12.9235Z" fill="url(#paint6_linear_523_587)"/>
<path id="Vector_8" d="M13.5252 12.3179C13.5179 12.9755 12.9755 13.5179 12.3179 13.5252C11.6602 13.5322 11.1293 12.997 11.1309 12.334C11.1327 11.6709 11.6709 11.1328 12.334 11.1309C12.997 11.1293 13.5322 11.6602 13.5252 12.3179Z" fill="url(#paint7_radial_523_587)"/>
<path id="Vector_9" d="M8.86898 12.334C8.87054 12.997 8.33956 13.5321 7.68194 13.5252C7.02437 13.5179 6.48191 12.9755 6.47468 12.3179C6.46761 11.6602 7.00284 11.1293 7.66585 11.1309C8.32894 11.1327 8.8671 11.6709 8.86898 12.334Z" fill="url(#paint8_linear_523_587)"/>
<path id="Vector_10" d="M7.97559 12.9284C7.31629 12.9231 6.77461 12.382 6.76961 11.7236C6.76911 11.6506 6.77559 11.5791 6.78782 11.5098C6.5909 11.7215 6.47192 12.0048 6.47516 12.3174C6.48239 12.975 7.02481 13.5174 7.68242 13.5247C8.26731 13.5309 8.75117 13.1085 8.85066 12.5486C8.63293 12.7845 8.32199 12.931 7.97559 12.9284Z" fill="url(#paint9_linear_523_587)"/>
<path id="Vector_11" d="M8.86898 12.334C8.87054 12.997 8.33956 13.5321 7.68194 13.5252C7.02437 13.5179 6.48191 12.9755 6.47468 12.3179C6.46761 11.6602 7.00284 11.1293 7.66585 11.1309C8.32894 11.1327 8.8671 11.6709 8.86898 12.334Z" fill="url(#paint10_radial_523_587)"/>
<path id="Vector_12" d="M13.5252 7.68194C13.5322 8.33964 12.997 8.8705 12.334 8.86897C11.6709 8.86706 11.1327 8.32901 11.1309 7.66585C11.1293 7.00288 11.6602 6.46761 12.3179 6.47468C12.9755 6.48191 13.5179 7.02437 13.5252 7.68194Z" fill="url(#paint11_linear_523_587)"/>
<path id="Vector_13" d="M12.6313 8.27136C11.9688 8.26804 11.4304 7.72929 11.4274 7.06652C11.427 6.99305 11.4336 6.92133 11.4457 6.85156C11.2497 7.06441 11.1299 7.35043 11.1309 7.66523C11.1327 8.32828 11.6709 8.86648 12.334 8.86836C12.9234 8.86996 13.4117 8.44976 13.5077 7.8948C13.2911 8.12781 12.979 8.27324 12.6313 8.27136Z" fill="url(#paint12_linear_523_587)"/>
<path id="Vector_14" d="M13.5252 7.68194C13.5322 8.33964 12.997 8.8705 12.334 8.86897C11.6709 8.86706 11.1327 8.32901 11.1309 7.66585C11.1293 7.00288 11.6602 6.46761 12.3179 6.47468C12.9755 6.48191 13.5179 7.02437 13.5252 7.68194Z" fill="url(#paint13_radial_523_587)"/>
<path id="Vector_15" d="M8.86898 7.66585C8.8671 8.32889 8.32894 8.8671 7.66585 8.86897C7.00284 8.87049 6.46761 8.33964 6.47468 7.68194C6.48191 7.02429 7.02437 6.48191 7.68195 6.47468C8.3396 6.46761 8.87058 7.00276 8.86898 7.66585Z" fill="url(#paint14_linear_523_587)"/>
<path id="Vector_16" d="M7.96808 8.27004C7.30566 8.27243 6.7721 7.74192 6.78027 7.08332C6.78112 7.01027 6.78894 6.93879 6.80237 6.86914C6.60245 7.08453 6.47788 7.37035 6.47468 7.68297C6.46761 8.34067 7.00284 8.87153 7.66585 8.87001C8.25535 8.86821 8.74593 8.4427 8.84875 7.88211C8.62929 8.11942 8.31578 8.26856 7.96808 8.27004Z" fill="url(#paint15_linear_523_587)"/>
<path id="Vector_17" d="M8.86898 7.66585C8.8671 8.32889 8.32894 8.8671 7.66585 8.86897C7.00284 8.87049 6.46761 8.33964 6.47468 7.68194C6.48191 7.02429 7.02437 6.48191 7.68195 6.47468C8.3396 6.46761 8.87058 7.00276 8.86898 7.66585Z" fill="url(#paint16_radial_523_587)"/>
</g>
</g>
<defs>
<linearGradient id="paint0_linear_523_587" x1="2.92891" y1="17.0711" x2="17.0711" y2="2.92891" gradientUnits="userSpaceOnUse">
<stop stop-color="#FF4747"/>
<stop offset="1" stop-color="#FFF200"/>
</linearGradient>
<radialGradient id="paint1_radial_523_587" cx="0" cy="0" r="1" gradientUnits="userSpaceOnUse" gradientTransform="translate(10 10) scale(10)">
<stop stop-color="#FF4747" stop-opacity="0.8"/>
<stop offset="1" stop-color="#FFFA78" stop-opacity="0"/>
</radialGradient>
<linearGradient id="paint2_linear_523_587" x1="-21.4507" y1="41.4502" x2="16.8303" y2="3.16922" gradientUnits="userSpaceOnUse">
<stop stop-color="#FFFA78"/>
<stop offset="1" stop-color="white"/>
</linearGradient>
<linearGradient id="paint3_linear_523_587" x1="-34.3181" y1="54.3176" x2="16.9692" y2="3.03035" gradientUnits="userSpaceOnUse">
<stop stop-color="#FFCB00"/>
<stop offset="0.5" stop-color="#FFF200"/>
<stop offset="0.6048" stop-color="#FFF52F"/>
<stop offset="0.8789" stop-color="#FEFCA6"/>
<stop offset="1" stop-color="#FEFFD6"/>
</linearGradient>
<linearGradient id="paint4_linear_523_587" x1="-14.9948" y1="35.0914" x2="14.4595" y2="5.63711" gradientUnits="userSpaceOnUse">
<stop stop-color="#FFCB00"/>
<stop offset="0.5" stop-color="#FFF200"/>
<stop offset="0.6048" stop-color="#FFF52F"/>
<stop offset="0.8789" stop-color="#FEFCA6"/>
<stop offset="1" stop-color="#FEFFD6"/>
</linearGradient>
<linearGradient id="paint5_linear_523_587" x1="6.85843" y1="17.7914" x2="20.0362" y2="4.6138" gradientUnits="userSpaceOnUse">
<stop stop-color="#FF3838"/>
<stop offset="1" stop-color="#FFF200"/>
</linearGradient>
<linearGradient id="paint6_linear_523_587" x1="10.4453" y1="14.2048" x2="16.1511" y2="8.49897" gradientUnits="userSpaceOnUse">
<stop stop-color="#FF3838"/>
<stop offset="1" stop-color="#FFF200"/>
</linearGradient>
<radialGradient id="paint7_radial_523_587" cx="0" cy="0" r="1" gradientUnits="userSpaceOnUse" gradientTransform="translate(12.328 12.3281) scale(1.68168 1.68169)">
<stop stop-color="#FFB11D" stop-opacity="0"/>
<stop offset="1" stop-color="#FF3838" stop-opacity="0.8"/>
</radialGradient>
<linearGradient id="paint8_linear_523_587" x1="2.28136" y1="17.7185" x2="15.2832" y2="4.71669" gradientUnits="userSpaceOnUse">
<stop stop-color="#FF3838"/>
<stop offset="1" stop-color="#FFF200"/>
</linearGradient>
<linearGradient id="paint9_linear_523_587" x1="5.77028" y1="14.2301" x2="11.3841" y2="8.61632" gradientUnits="userSpaceOnUse">
<stop stop-color="#FF3838"/>
<stop offset="1" stop-color="#FFF200"/>
</linearGradient>
<radialGradient id="paint10_radial_523_587" cx="0" cy="0" r="1" gradientUnits="userSpaceOnUse" gradientTransform="translate(7.67183 12.3281) scale(1.68168 1.68168)">
<stop stop-color="#FFB11D" stop-opacity="0"/>
<stop offset="1" stop-color="#FF3838" stop-opacity="0.8"/>
</radialGradient>
<linearGradient id="paint11_linear_523_587" x1="6.93133" y1="13.0685" x2="19.9332" y2="0.0666202" gradientUnits="userSpaceOnUse">
<stop stop-color="#FF3838"/>
<stop offset="1" stop-color="#FFF200"/>
</linearGradient>
<linearGradient id="paint12_linear_523_587" x1="10.4691" y1="9.53081" x2="16.1065" y2="3.89343" gradientUnits="userSpaceOnUse">
<stop stop-color="#FF3838"/>
<stop offset="1" stop-color="#FFF200"/>
</linearGradient>
<radialGradient id="paint13_radial_523_587" cx="0" cy="0" r="1" gradientUnits="userSpaceOnUse" gradientTransform="translate(12.328 7.67183) scale(1.68168 1.68168)">
<stop stop-color="#FFB11D" stop-opacity="0"/>
<stop offset="1" stop-color="#FF3838" stop-opacity="0.8"/>
</radialGradient>
<linearGradient id="paint14_linear_523_587" x1="2.20838" y1="13.1413" x2="15.3861" y2="-0.0363717" gradientUnits="userSpaceOnUse">
<stop stop-color="#FF3838"/>
<stop offset="1" stop-color="#FFF200"/>
</linearGradient>
<linearGradient id="paint15_linear_523_587" x1="5.79683" y1="9.5547" x2="11.4944" y2="3.85711" gradientUnits="userSpaceOnUse">
<stop stop-color="#FF3838"/>
<stop offset="1" stop-color="#FFF200"/>
</linearGradient>
<radialGradient id="paint16_radial_523_587" cx="0" cy="0" r="1" gradientUnits="userSpaceOnUse" gradientTransform="translate(7.67183 7.67179) scale(1.68168 1.68168)">
<stop stop-color="#FFB11D" stop-opacity="0"/>
<stop offset="1" stop-color="#FF3838" stop-opacity="0.8"/>
</radialGradient>
<clipPath id="clip0_523_587">
<rect width="20" height="20" fill="white"/>
</clipPath>
</defs>
</svg>
