<svg width="20" height="20" viewBox="0 0 20 20" fill="none" xmlns="http://www.w3.org/2000/svg">
<g id="Icon " clip-path="url(#clip0_523_553)">
<g id="Group">
<path id="Vector" d="M10 20C15.5228 20 20 15.5228 20 10C20 4.47715 15.5228 0 10 0C4.47715 0 0 4.47715 0 10C0 15.5228 4.47715 20 10 20Z" fill="url(#paint0_linear_523_553)"/>
<path id="Vector_2" d="M10 20C15.5228 20 20 15.5228 20 10C20 4.47715 15.5228 0 10 0C4.47715 0 0 4.47715 0 10C0 15.5228 4.47715 20 10 20Z" fill="url(#paint1_radial_523_553)"/>
<path id="Vector_3" d="M14.7656 3.40082C14.375 3.38656 13.9844 3.37402 13.5938 3.36328C13.6752 6.37047 13.7012 9.3777 13.672 12.3849C14.6775 11.5804 15.6855 10.7816 16.6865 10.0003C16.6865 8.41176 16.6575 6.82324 16.5995 5.23469C16.562 4.2666 15.7338 3.43828 14.7656 3.40082Z" fill="url(#paint2_linear_523_553)"/>
<path id="Vector_4" d="M13.5939 3.36395C12.396 3.33094 11.1981 3.31445 10.0002 3.31445C8.60693 4.41687 7.17928 5.54156 5.74268 6.6555C7.14404 7.74812 8.57213 8.87452 10.0002 10.001C11.8286 10.8017 13.6571 11.6025 15.4683 12.3639C15.4798 11.5763 15.4855 10.7886 15.4855 10.001C15.4855 8.39941 15.4617 6.79792 15.4141 5.19636C15.383 4.21988 14.5621 3.39227 13.5939 3.36395Z" fill="url(#paint3_linear_523_553)"/>
<path id="Vector_5" d="M6.32801 7.61523C5.32246 8.41976 4.31445 9.21855 3.31348 9.9998C3.31348 11.5884 3.3425 13.1769 3.40051 14.7654C3.43797 15.7335 4.26625 16.5618 5.23438 16.5993C5.625 16.6135 6.01562 16.6261 6.40625 16.6368C6.32484 13.6296 6.29875 10.6224 6.32801 7.61523Z" fill="url(#paint4_linear_523_553)"/>
<path id="Vector_6" d="M10 9.99965C8.17157 9.19887 6.34309 8.39809 4.53192 7.63672C4.49699 10.0259 4.51504 12.415 4.58606 14.8042C4.61719 15.7808 5.43809 16.6083 6.40625 16.6366C7.60418 16.6696 8.80207 16.6861 10 16.6861C11.5886 15.5717 13.2168 14.4283 14.855 13.2993C13.2565 12.2285 11.6282 11.1141 10 9.99965Z" fill="url(#paint5_linear_523_553)"/>
<path id="Vector_7" d="M5.23438 3.40082C4.26625 3.43832 3.43797 4.26656 3.40051 5.23469C3.3425 6.82324 3.31348 8.41176 3.31348 10.0003H4.51465C5.11523 7.80805 5.76043 5.59176 6.40625 3.36328C6.01562 3.37406 5.625 3.38656 5.23438 3.40082Z" fill="url(#paint6_linear_523_553)"/>
<path id="Vector_8" d="M8.68266 5.37656C8.83727 5.45136 8.99207 5.5264 9.14707 5.60168C9.54117 5.79277 10.0004 5.5023 10 5.05933C10 4.47769 10 3.89605 10 3.31445C8.80207 3.31445 7.60418 3.33094 6.40625 3.36395C5.43809 3.3923 4.61719 4.21992 4.58605 5.19636C4.53844 6.79792 4.51465 8.39941 4.51465 10.001H5.0584C5.50121 10.0005 5.79188 10.4598 5.6007 10.8539C5.52543 11.0089 5.45039 11.1637 5.37559 11.3183C5.12234 11.8412 5.51668 12.4555 6.10535 12.4627C6.48047 12.4667 6.85555 12.4701 7.23066 12.4729C7.81918 12.4778 8.20246 11.8621 7.94441 11.3308C7.86809 11.1739 7.79176 11.0172 7.71551 10.8605C7.5216 10.4627 7.81223 10.0012 8.25512 10.0009H10C10 9.41929 10 8.83769 10 8.25605C9.99977 7.813 9.53828 7.52253 9.14043 7.71644C8.98375 7.79269 8.82699 7.86898 8.6702 7.94534C8.13879 8.20335 7.52328 7.82007 7.52805 7.2316C7.5309 6.85648 7.5343 6.4814 7.53828 6.10628C7.54539 5.51769 8.15969 5.12324 8.68266 5.37656Z" fill="url(#paint7_linear_523_553)"/>
<path id="Vector_9" d="M15.4854 10C14.8848 12.1923 14.2396 14.4086 13.5938 16.637C13.9844 16.6263 14.375 16.6138 14.7656 16.5995C15.7338 16.562 16.562 15.7338 16.5995 14.7656C16.6575 13.1771 16.6865 11.5886 16.6865 10C16.2861 10 15.8857 10 15.4854 10Z" fill="url(#paint8_linear_523_553)"/>
<path id="Vector_10" d="M15.414 14.8039C15.4616 13.2024 15.4854 11.6009 15.4854 9.99932C15.3041 9.99932 15.1229 9.99932 14.9417 9.99932C14.4987 9.99975 14.2082 9.5405 14.3993 9.14639C14.4746 8.99143 14.5496 8.83663 14.6245 8.68202C14.8777 8.15909 14.4834 7.54475 13.8947 7.53761C13.5196 7.53362 13.1445 7.53022 12.7694 7.52737C12.1809 7.52257 11.7976 8.13811 12.0556 8.66952C12.132 8.82636 12.2083 8.98307 12.2845 9.13975C12.4784 9.53757 12.1878 9.99913 11.7449 9.99936C11.1633 9.99936 10.5816 9.99936 10 9.99936V11.7443C10.0002 12.1872 10.4617 12.4778 10.8596 12.2839C11.0163 12.2076 11.173 12.1313 11.3298 12.055C11.8613 11.7969 12.4768 12.1802 12.472 12.7687C12.4691 13.1439 12.4657 13.5189 12.4618 13.8941C12.4546 14.4827 11.8403 14.8771 11.3173 14.6238C11.1627 14.549 11.0079 14.4739 10.853 14.3987C10.4588 14.2076 9.99957 14.498 10 14.941V16.6859C11.198 16.6859 12.3959 16.6694 13.5938 16.6364C14.562 16.6081 15.3829 15.7804 15.414 14.8039Z" fill="url(#paint9_linear_523_553)"/>
</g>
</g>
<defs>
<linearGradient id="paint0_linear_523_553" x1="2.92895" y1="17.0711" x2="17.0711" y2="2.92891" gradientUnits="userSpaceOnUse">
<stop stop-color="#364AFF"/>
<stop offset="1" stop-color="#FC54FF"/>
</linearGradient>
<radialGradient id="paint1_radial_523_553" cx="0" cy="0" r="1" gradientUnits="userSpaceOnUse" gradientTransform="translate(10 10) scale(10)">
<stop stop-color="#8D00DB" stop-opacity="0.7"/>
<stop offset="1" stop-color="#FC54FF" stop-opacity="0"/>
</radialGradient>
<linearGradient id="paint2_linear_523_553" x1="-2.2616" y1="24.0835" x2="22.0822" y2="-0.260273" gradientUnits="userSpaceOnUse">
<stop stop-color="#230BE0"/>
<stop offset="1" stop-color="#FC54FF"/>
</linearGradient>
<linearGradient id="paint3_linear_523_553" x1="4.44447" y1="15.6707" x2="21.6512" y2="-1.53604" gradientUnits="userSpaceOnUse">
<stop stop-color="#230BE0"/>
<stop offset="1" stop-color="#FC54FF"/>
</linearGradient>
<linearGradient id="paint4_linear_523_553" x1="2.72605" y1="15.4521" x2="42.0173" y2="-23.8392" gradientUnits="userSpaceOnUse">
<stop stop-color="#FC54FF"/>
<stop offset="0.1022" stop-color="#FD77FF"/>
<stop offset="0.2431" stop-color="#FDA0FF"/>
<stop offset="0.3875" stop-color="#FEC3FF"/>
<stop offset="0.5338" stop-color="#FEDDFF"/>
<stop offset="0.6827" stop-color="#FFF0FF"/>
<stop offset="0.8359" stop-color="#FFFBFF"/>
<stop offset="1" stop-color="white"/>
</linearGradient>
<linearGradient id="paint5_linear_523_553" x1="2.19254" y1="17.969" x2="29.8047" y2="-9.64312" gradientUnits="userSpaceOnUse">
<stop stop-color="#FC54FF"/>
<stop offset="0.1022" stop-color="#FD77FF"/>
<stop offset="0.2431" stop-color="#FDA0FF"/>
<stop offset="0.3875" stop-color="#FEC3FF"/>
<stop offset="0.5338" stop-color="#FEDDFF"/>
<stop offset="0.6827" stop-color="#FFF0FF"/>
<stop offset="0.8359" stop-color="#FFFBFF"/>
<stop offset="1" stop-color="white"/>
</linearGradient>
<linearGradient id="paint6_linear_523_553" x1="-4.36965" y1="15.5957" x2="14.7358" y2="-3.50973" gradientUnits="userSpaceOnUse">
<stop stop-color="#FC54FF"/>
<stop offset="0.1022" stop-color="#FD77FF"/>
<stop offset="0.2431" stop-color="#FDA0FF"/>
<stop offset="0.3875" stop-color="#FEC3FF"/>
<stop offset="0.5338" stop-color="#FEDDFF"/>
<stop offset="0.6827" stop-color="#FFF0FF"/>
<stop offset="0.8359" stop-color="#FFFBFF"/>
<stop offset="1" stop-color="white"/>
</linearGradient>
<linearGradient id="paint7_linear_523_553" x1="-6.65524" y1="21.2084" x2="15.0976" y2="-0.544521" gradientUnits="userSpaceOnUse">
<stop stop-color="#FC54FF"/>
<stop offset="0.1022" stop-color="#FD77FF"/>
<stop offset="0.2431" stop-color="#FDA0FF"/>
<stop offset="0.3875" stop-color="#FEC3FF"/>
<stop offset="0.5338" stop-color="#FEDDFF"/>
<stop offset="0.6827" stop-color="#FFF0FF"/>
<stop offset="0.8359" stop-color="#FFFBFF"/>
<stop offset="1" stop-color="white"/>
</linearGradient>
<linearGradient id="paint8_linear_523_553" x1="1.22789" y1="27.5463" x2="18.5294" y2="10.2448" gradientUnits="userSpaceOnUse">
<stop stop-color="#FC54FF"/>
<stop offset="0.1022" stop-color="#FD77FF"/>
<stop offset="0.2431" stop-color="#FDA0FF"/>
<stop offset="0.3875" stop-color="#FEC3FF"/>
<stop offset="0.5338" stop-color="#FEDDFF"/>
<stop offset="0.6827" stop-color="#FFF0FF"/>
<stop offset="0.8359" stop-color="#FFFBFF"/>
<stop offset="1" stop-color="white"/>
</linearGradient>
<linearGradient id="paint9_linear_523_553" x1="-1.82195" y1="27.2691" x2="22.6657" y2="2.78139" gradientUnits="userSpaceOnUse">
<stop stop-color="#FC54FF"/>
<stop offset="0.1022" stop-color="#FD77FF"/>
<stop offset="0.2431" stop-color="#FDA0FF"/>
<stop offset="0.3875" stop-color="#FEC3FF"/>
<stop offset="0.5338" stop-color="#FEDDFF"/>
<stop offset="0.6827" stop-color="#FFF0FF"/>
<stop offset="0.8359" stop-color="#FFFBFF"/>
<stop offset="1" stop-color="white"/>
</linearGradient>
<clipPath id="clip0_523_553">
<rect width="20" height="20" fill="white"/>
</clipPath>
</defs>
</svg>
