<svg width="20" height="20" viewBox="0 0 20 20" fill="none" xmlns="http://www.w3.org/2000/svg">
<g id="Icon " clip-path="url(#clip0_523_567)">
<g id="Group">
<path id="Vector" d="M10 20C15.5228 20 20 15.5228 20 10C20 4.47715 15.5228 0 10 0C4.47715 0 0 4.47715 0 10C0 15.5228 4.47715 20 10 20Z" fill="url(#paint0_linear_523_567)"/>
<path id="Vector_2" d="M10 20C15.5228 20 20 15.5228 20 10C20 4.47715 15.5228 0 10 0C4.47715 0 0 4.47715 0 10C0 15.5228 4.47715 20 10 20Z" fill="url(#paint1_radial_523_567)"/>
<path id="Vector_3" d="M7.98395 2.8408C7.34958 2.73791 6.73114 3.18916 6.60165 3.8397C6.05938 6.5899 5.53758 9.32588 5.08699 12.0383C4.98051 12.6794 5.42707 13.3014 6.07723 13.4275C6.86258 13.5787 7.64684 13.7277 8.42974 13.8733C9.02048 10.3374 9.67716 6.78486 10.292 3.23564C9.52048 3.09716 8.75103 2.96513 7.98395 2.8408Z" fill="url(#paint2_linear_523_567)"/>
<path id="Vector_4" d="M16.1163 4.37496C14.1634 3.96754 12.2208 3.58113 10.2918 3.23496C9.65344 3.12008 9.04101 3.56234 8.92113 4.21582C8.41879 6.97695 7.91121 9.73379 7.44918 12.477C7.34012 13.1257 7.7814 13.7514 8.42945 13.8726C10.3868 14.2366 12.3358 14.5795 14.2733 14.8819C14.9144 14.9817 15.5407 14.5324 15.6705 13.8869C16.2155 11.1564 16.7161 8.44703 17.1215 5.76801C17.2171 5.13512 16.7627 4.51109 16.1163 4.37496Z" fill="url(#paint3_linear_523_567)"/>
<path id="Vector_5" d="M6.26855 12.2591C6.72422 9.52934 7.2382 6.78102 7.7598 4.02344C8.14645 4.08629 8.53359 4.15078 8.92121 4.2168C9.44527 5.72934 9.98852 7.24844 10.5337 8.76762C9.50242 10.0085 8.46699 11.2515 7.44926 12.4779C7.0559 12.4054 6.6623 12.3324 6.26855 12.2591Z" fill="url(#paint4_linear_523_567)"/>
<path id="Vector_6" d="M8.92117 4.2168C8.41883 6.97793 7.91125 9.73477 7.44922 12.478C9.80946 12.9136 12.1622 13.334 14.5018 13.706C15.0309 10.9623 15.5284 8.23465 15.9436 5.53242C13.5896 5.06238 11.2469 4.61273 8.92117 4.2168Z" fill="url(#paint5_linear_523_567)"/>
<path id="Vector_7" d="M16.1167 4.37564C14.1638 3.96822 12.2211 3.58177 10.2921 3.23564C10.2901 3.22962 7.98188 2.83435 7.98395 2.8408C7.34958 2.73791 6.7311 3.18919 6.60165 3.8397C6.05939 6.5899 5.53763 9.32587 5.087 12.0383C4.98048 12.6794 5.42708 13.3014 6.07724 13.4275C6.86259 13.5787 7.64685 13.7277 8.42974 13.8733C8.43802 13.8976 14.2828 14.9129 14.2736 14.8826C14.9147 14.9824 15.541 14.5331 15.6708 13.8876C16.2158 11.1572 16.7163 8.44775 17.1218 5.76873C17.2175 5.13584 16.7631 4.51177 16.1167 4.37564Z" fill="url(#paint6_radial_523_567)"/>
<path id="Vector_8" d="M4.84472 5.9318C4.18702 5.94789 3.63827 6.48797 3.62561 7.1341C3.57409 9.86848 3.6037 12.6029 3.71444 15.3372C3.74155 15.9832 4.29268 16.5355 4.93874 16.5636C5.71999 16.5964 6.50124 16.6223 7.28249 16.641C7.20155 13.0569 7.18366 9.47277 7.22882 5.88867C6.43413 5.8991 5.63944 5.91352 4.84472 5.9318Z" fill="url(#paint7_linear_523_567)"/>
<path id="Vector_9" d="M8.61907 5.875C8.15552 5.87844 7.69192 5.88316 7.22833 5.88926C6.5706 5.89848 6.02716 6.44094 6.0188 7.0968C5.98548 9.87094 6.00462 12.6451 6.07626 15.4193C6.09415 16.0751 6.63595 16.6255 7.28204 16.6416C9.23516 16.6884 11.1883 16.6912 13.1414 16.65C13.7875 16.6359 14.3278 16.0861 14.3442 15.429C14.3738 14.1719 14.3936 12.9148 14.4035 11.6576C12.4872 9.75473 10.526 7.79277 8.61907 5.875Z" fill="url(#paint8_linear_523_567)"/>
<path id="Vector_10" d="M13.1889 5.88528C11.6657 5.86766 10.1425 5.86446 8.6193 5.87571C8.59555 9.07087 11.2093 11.6864 14.4038 11.6584C14.4158 10.1366 14.4135 8.61477 14.3969 7.09302C14.3892 6.43591 13.8466 5.89341 13.1889 5.88528Z" fill="url(#paint9_linear_523_567)"/>
<path id="Vector_11" d="M4.89558 15.3818C4.80441 12.6254 4.78003 9.86898 4.82245 7.11262C5.2214 7.10629 5.62034 7.10066 6.01929 7.0957C6.80054 8.47285 7.60398 9.86836 8.40816 11.2694C7.61269 12.6652 6.82835 14.0524 6.07675 15.4182C5.683 15.4075 5.28929 15.3954 4.89558 15.3818Z" fill="url(#paint10_linear_523_567)"/>
<path id="Vector_12" d="M8.73596 7.07422C7.83025 7.07848 6.92451 7.08625 6.0188 7.09754C5.98548 9.87168 6.00462 12.6459 6.07626 15.42C8.43853 15.4839 10.8008 15.4955 13.1631 15.4546C13.1845 14.1507 13.1986 12.8467 13.2053 11.5428C11.7222 10.0637 10.2172 8.55832 8.73596 7.07422Z" fill="url(#paint11_linear_523_567)"/>
<path id="Vector_13" d="M8.73633 7.07422C9.19625 9.30985 10.9707 11.0853 13.2057 11.5428C13.2134 10.0557 13.2116 8.56852 13.2002 7.08141C11.7123 7.06961 10.2243 7.06723 8.73633 7.07422Z" fill="url(#paint12_linear_523_567)"/>
<path id="Vector_14" d="M5.45293 14.3887C5.36793 14.5826 5.51746 14.8096 5.73305 14.8154C5.84273 14.8182 5.95242 14.821 6.06211 14.8236C6.24625 14.2498 6.43449 13.6741 6.62593 13.0967C6.42691 13.0939 6.22785 13.091 6.02883 13.0879C5.83445 13.5231 5.64231 13.9568 5.45293 14.3887Z" fill="url(#paint13_linear_523_567)"/>
<path id="Vector_15" d="M12.5913 14.4402C11.9944 13.0948 11.3793 11.7406 10.7616 10.385C10.1384 9.48067 9.51365 8.57528 8.89432 7.67383C8.82639 7.67391 8.75846 7.67402 8.69053 7.67418C8.57303 7.67441 8.466 7.74336 8.4167 7.85047C7.60818 9.60907 6.80088 11.3607 6.02881 13.0892C6.0376 13.6678 6.04873 14.2464 6.06209 14.825C6.16955 14.8276 6.27697 14.8301 6.38443 14.8325C6.50045 14.8351 6.60436 14.7692 6.65053 14.6641C6.82189 14.274 6.99521 13.8827 7.17014 13.4905C7.21729 13.3848 7.3226 13.3178 7.43939 13.3192C8.49006 13.3311 9.54072 13.3367 10.5914 13.3359C10.7082 13.3358 10.8142 13.4043 10.8624 13.5111C11.0416 13.9075 11.2198 14.3035 11.3967 14.6991C11.4444 14.8058 11.5494 14.8737 11.6653 14.8729C11.8826 14.8713 12.0998 14.8694 12.3171 14.8671C12.5325 14.8647 12.6788 14.6375 12.5913 14.4402ZM9.92697 12.1345C9.31584 12.1338 8.70471 12.1316 8.09357 12.128C7.9483 12.1272 7.85072 11.9763 7.91037 11.8445C8.21256 11.1773 8.51779 10.5082 8.82412 9.83797C8.89537 9.68215 9.11701 9.68211 9.18834 9.83801C9.49486 10.5086 9.80217 11.18 10.1084 11.8513C10.1688 11.984 10.0723 12.1347 9.92697 12.1345Z" fill="url(#paint14_linear_523_567)"/>
<path id="Vector_16" d="M10.7613 10.3835C10.376 9.53796 9.98967 8.69183 9.60604 7.84699C9.55756 7.74023 9.45139 7.67184 9.33424 7.67188C9.18752 7.67195 9.0408 7.67211 8.89404 7.6723C9.241 8.74757 9.89994 9.68655 10.7613 10.3835Z" fill="url(#paint15_linear_523_567)"/>
</g>
</g>
<defs>
<linearGradient id="paint0_linear_523_567" x1="2.92891" y1="17.0711" x2="17.0711" y2="2.92891" gradientUnits="userSpaceOnUse">
<stop stop-color="#FF4747"/>
<stop offset="1" stop-color="#FF9CEB"/>
</linearGradient>
<radialGradient id="paint1_radial_523_567" cx="0" cy="0" r="1" gradientUnits="userSpaceOnUse" gradientTransform="translate(10 10) scale(10)">
<stop stop-color="#FF2F2B"/>
<stop offset="1" stop-color="#FF9CEB" stop-opacity="0"/>
</radialGradient>
<linearGradient id="paint2_linear_523_567" x1="5.6897" y1="10.5323" x2="35.3129" y2="-19.0726" gradientUnits="userSpaceOnUse">
<stop stop-color="#FFB5D3"/>
<stop offset="0.4183" stop-color="#FFDBEA"/>
<stop offset="0.7836" stop-color="#FFF5F9"/>
<stop offset="1" stop-color="white"/>
</linearGradient>
<linearGradient id="paint3_linear_523_567" x1="4.4298" y1="16.9096" x2="30.9188" y2="-9.57937" gradientUnits="userSpaceOnUse">
<stop stop-color="#FFB5D3"/>
<stop offset="0.4183" stop-color="#FFDBEA"/>
<stop offset="0.7836" stop-color="#FFF5F9"/>
<stop offset="1" stop-color="white"/>
</linearGradient>
<linearGradient id="paint4_linear_523_567" x1="3.52063" y1="12.3343" x2="25.9431" y2="-10.0741" gradientUnits="userSpaceOnUse">
<stop stop-color="#FFB5D3"/>
<stop offset="0.4183" stop-color="#FFDBEA"/>
<stop offset="0.7836" stop-color="#FFF5F9"/>
<stop offset="1" stop-color="white"/>
</linearGradient>
<linearGradient id="paint5_linear_523_567" x1="6.53512" y1="14.1378" x2="20.5832" y2="0.0897421" gradientUnits="userSpaceOnUse">
<stop stop-color="#FFB5D3"/>
<stop offset="0.4183" stop-color="#FFDBEA"/>
<stop offset="0.7836" stop-color="#FFF5F9"/>
<stop offset="1" stop-color="white"/>
</linearGradient>
<radialGradient id="paint6_radial_523_567" cx="0" cy="0" r="1" gradientUnits="userSpaceOnUse" gradientTransform="translate(9.00548 11.2829) scale(10.9048 10.9048)">
<stop offset="0.1084" stop-color="#FF2F2B"/>
<stop offset="0.1798" stop-color="#FF4552" stop-opacity="0.92"/>
<stop offset="0.2671" stop-color="#FF5C7B" stop-opacity="0.822"/>
<stop offset="0.36" stop-color="#FF709D" stop-opacity="0.718"/>
<stop offset="0.458" stop-color="#FF80BA" stop-opacity="0.608"/>
<stop offset="0.5628" stop-color="#FF8CD0" stop-opacity="0.49"/>
<stop offset="0.6776" stop-color="#FF95DF" stop-opacity="0.362"/>
<stop offset="0.8099" stop-color="#FF9AE8" stop-opacity="0.213"/>
<stop offset="1" stop-color="#FF9CEB" stop-opacity="0"/>
</radialGradient>
<linearGradient id="paint7_linear_523_567" x1="-4.14485" y1="21.2516" x2="22.8844" y2="-5.77761" gradientUnits="userSpaceOnUse">
<stop stop-color="#FFB5D3"/>
<stop offset="0.4183" stop-color="#FFDBEA"/>
<stop offset="0.7836" stop-color="#FFF5F9"/>
<stop offset="1" stop-color="white"/>
</linearGradient>
<linearGradient id="paint8_linear_523_567" x1="-15.5796" y1="37.0248" x2="27.9627" y2="-6.51742" gradientUnits="userSpaceOnUse">
<stop stop-color="#FFB5D3"/>
<stop offset="0.4118" stop-color="#FFDBEA"/>
<stop offset="0.7713" stop-color="#FFF5F9"/>
<stop offset="0.9843" stop-color="white"/>
</linearGradient>
<linearGradient id="paint9_linear_523_567" x1="-14.0826" y1="34.3612" x2="19.529" y2="0.749623" gradientUnits="userSpaceOnUse">
<stop stop-color="#FFB5D3"/>
<stop offset="0.4183" stop-color="#FFDBEA"/>
<stop offset="0.7836" stop-color="#FFF5F9"/>
<stop offset="1" stop-color="white"/>
</linearGradient>
<linearGradient id="paint10_linear_523_567" x1="-5.57808" y1="22.293" x2="14.1389" y2="2.57597" gradientUnits="userSpaceOnUse">
<stop stop-color="#FFB5D3"/>
<stop offset="0.4183" stop-color="#FFDBEA"/>
<stop offset="0.7836" stop-color="#FFF5F9"/>
<stop offset="1" stop-color="white"/>
</linearGradient>
<linearGradient id="paint11_linear_523_567" x1="-11.037" y1="31.9039" x2="15.9339" y2="4.93299" gradientUnits="userSpaceOnUse">
<stop stop-color="#FFB5D3"/>
<stop offset="0.4183" stop-color="#FFDBEA"/>
<stop offset="0.7836" stop-color="#FFF5F9"/>
<stop offset="1" stop-color="white"/>
</linearGradient>
<linearGradient id="paint12_linear_523_567" x1="-18.4729" y1="38.7524" x2="12.5946" y2="7.68475" gradientUnits="userSpaceOnUse">
<stop stop-color="#FFB5D3"/>
<stop offset="0.4183" stop-color="#FFDBEA"/>
<stop offset="0.7836" stop-color="#FFF5F9"/>
<stop offset="1" stop-color="white"/>
</linearGradient>
<linearGradient id="paint13_linear_523_567" x1="4.48204" y1="15.5192" x2="21.3806" y2="-1.37926" gradientUnits="userSpaceOnUse">
<stop stop-color="#FF3838"/>
<stop offset="1" stop-color="#FF9CEB"/>
</linearGradient>
<linearGradient id="paint14_linear_523_567" x1="2.2758" y1="19.4968" x2="18.1025" y2="3.67014" gradientUnits="userSpaceOnUse">
<stop stop-color="#FF3838"/>
<stop offset="1" stop-color="#FF9CEB"/>
</linearGradient>
<linearGradient id="paint15_linear_523_567" x1="2.40275" y1="16.4528" x2="12.1537" y2="6.70186" gradientUnits="userSpaceOnUse">
<stop stop-color="#FF3838"/>
<stop offset="1" stop-color="#FF9CEB"/>
</linearGradient>
<clipPath id="clip0_523_567">
<rect width="20" height="20" fill="white"/>
</clipPath>
</defs>
</svg>
