<svg width="20" height="20" viewBox="0 0 20 20" fill="none" xmlns="http://www.w3.org/2000/svg">
<g id="Icon " clip-path="url(#clip0_523_608)">
<g id="Group">
<path id="Vector" d="M10 20C15.5228 20 20 15.5228 20 10C20 4.47715 15.5228 0 10 0C4.47715 0 0 4.47715 0 10C0 15.5228 4.47715 20 10 20Z" fill="url(#paint0_linear_523_608)"/>
<path id="Vector_2" d="M10 20C15.5228 20 20 15.5228 20 10C20 4.47715 15.5228 0 10 0C4.47715 0 0 4.47715 0 10C0 15.5228 4.47715 20 10 20Z" fill="url(#paint1_radial_523_608)"/>
<path id="Vector_3" d="M10 20C15.5228 20 20 15.5228 20 10C20 4.47715 15.5228 0 10 0C4.47715 0 0 4.47715 0 10C0 15.5228 4.47715 20 10 20Z" fill="url(#paint2_radial_523_608)"/>
<path id="Vector_4" d="M12.9282 2.82325C10.6755 2.7727 8.82243 4.67782 8.80618 6.99552C8.7984 9.31404 10.6856 11.2012 13.0041 11.1935C15.3218 11.1774 17.227 9.32408 17.1764 7.07154C17.1191 4.81974 15.1799 2.88059 12.9282 2.82325Z" fill="url(#paint3_linear_523_608)"/>
<path id="Vector_5" d="M16.0464 6.46566C15.6551 6.40835 15.3333 6.72808 15.3885 7.11652C15.4262 7.38109 15.6444 7.59707 15.9119 7.63387C16.3044 7.68777 16.6288 7.36937 16.5717 6.98402C16.5328 6.72125 16.313 6.5046 16.0464 6.46566Z" fill="url(#paint4_linear_523_608)"/>
<path id="Vector_6" d="M16.057 7.34125C15.7897 7.30386 15.5712 7.08769 15.533 6.82328C15.5238 6.76008 15.5256 6.69895 15.5352 6.64062C15.4227 6.76125 15.362 6.93101 15.3885 7.11679C15.4262 7.38136 15.6445 7.59734 15.9119 7.63414C16.2403 7.67929 16.5205 7.46304 16.5696 7.16586C16.4468 7.29648 16.2615 7.36992 16.057 7.34125Z" fill="url(#paint5_linear_523_608)"/>
<path id="Vector_7" d="M15.3917 5.56204C15.1967 5.53293 15.0368 5.69243 15.0653 5.887C15.0847 6.01958 15.1941 6.12833 15.3273 6.14767C15.5228 6.17595 15.6833 6.01696 15.6541 5.82302C15.6343 5.69094 15.5246 5.58184 15.3917 5.56204Z" fill="url(#paint6_linear_523_608)"/>
<path id="Vector_8" d="M13.6062 9.99896C11.2845 9.99935 9.39903 8.1147 9.40579 5.7941C9.40649 5.35778 9.47325 4.93691 9.59536 4.54102C9.10434 5.23238 8.80887 6.08102 8.80618 6.99641C8.7984 9.31493 10.6856 11.2021 13.0041 11.1944C14.8865 11.1858 16.496 9.95118 17.0079 8.29231C16.2585 9.31693 15.0113 9.99904 13.6062 9.99896Z" fill="url(#paint7_linear_523_608)"/>
<path id="Vector_9" d="M13.004 11.194C13.0055 10.6721 13.0059 10.1502 13.0051 9.6284C12.6286 9.62781 12.252 9.62734 11.8755 9.62695C12.1564 10.1937 12.5328 10.7246 13.004 11.194Z" fill="url(#paint8_linear_523_608)"/>
<path id="Vector_10" d="M12.928 2.82422C11.1587 4.63352 10.7704 7.41152 11.8755 9.62746C12.1119 9.73438 12.3601 9.8198 12.6174 9.88176C13.484 8.94254 14.5719 5.74914 12.928 2.82422Z" fill="url(#paint9_linear_523_608)"/>
<path id="Vector_11" d="M12.6172 9.88184C12.6887 10.273 12.812 10.706 13.0037 11.1945C13.3767 10.8231 13.6896 10.416 13.9422 9.98566C13.8299 9.79145 13.7174 9.59703 13.6048 9.40234C13.2758 9.5616 12.9466 9.72152 12.6172 9.88184Z" fill="url(#paint10_linear_523_608)"/>
<path id="Vector_12" d="M12.9278 2.82422C14.4064 6.44992 12.0901 6.98762 12.6173 9.88172C12.9344 9.95813 13.2653 9.99879 13.6058 9.99898C13.7192 9.99906 13.8313 9.99414 13.9423 9.98555C15.2795 7.73062 14.8815 4.81766 12.9278 2.82422Z" fill="url(#paint11_linear_523_608)"/>
<path id="Vector_13" d="M12.9282 2.82325C10.6755 2.7727 8.82243 4.67782 8.80618 6.99552C8.7984 9.31404 10.6856 11.2012 13.0041 11.1935C15.3218 11.1774 17.227 9.32408 17.1764 7.07154C17.1191 4.81974 15.1799 2.88059 12.9282 2.82325Z" fill="url(#paint12_radial_523_608)"/>
<path id="Vector_14" d="M7.86314 6.74812C4.90532 6.78011 2.42368 9.20827 2.46036 12.0992C2.51232 14.9892 5.01091 17.4878 7.90091 17.5398C10.7918 17.5764 13.22 15.0948 13.252 12.137C13.2669 9.17835 10.8218 6.73315 7.86314 6.74812Z" fill="url(#paint13_linear_523_608)"/>
<path id="Vector_15" d="M4.89382 8.77195C4.50175 8.72566 4.16902 9.05394 4.21703 9.44069C4.24976 9.7044 4.4657 9.91721 4.73335 9.95042C5.12621 9.99924 5.45668 9.67139 5.40855 9.28194C5.37578 9.01667 5.16105 8.80359 4.89382 8.77195Z" fill="url(#paint14_linear_523_608)"/>
<path id="Vector_16" d="M4.88399 9.6534C4.61641 9.62055 4.40078 9.40781 4.36844 9.14398C4.3607 9.08086 4.36399 9.01953 4.37508 8.96094C4.25887 9.08457 4.19402 9.25559 4.21699 9.44082C4.24969 9.7045 4.46567 9.91739 4.73332 9.95055C5.06211 9.99141 5.34633 9.76825 5.40231 9.46594C5.2761 9.60086 5.08871 9.67852 4.88399 9.6534Z" fill="url(#paint15_linear_523_608)"/>
<path id="Vector_17" d="M8.47692 16.3463C5.56176 16.312 3.07387 13.8336 3.04997 10.9304C3.04696 10.3139 3.15587 9.72238 3.35696 9.16992C2.77946 10.0154 2.44559 11.0182 2.46044 12.0993C2.51239 14.9893 5.01098 17.4879 7.90098 17.5398C10.1897 17.572 12.1663 16.0254 12.9324 13.9265C11.9507 15.3822 10.318 16.3618 8.47692 16.3463Z" fill="url(#paint16_linear_523_608)"/>
<path id="Vector_18" d="M3.84814 13.6641C4.00678 15.7572 5.8026 17.5066 7.90081 17.5397C7.88413 16.2649 7.87178 14.9901 7.86378 13.7154C6.52522 13.7069 5.1867 13.6898 3.84814 13.6641Z" fill="url(#paint17_linear_523_608)"/>
<path id="Vector_19" d="M5.93435 9.94922C4.66451 10.6259 3.80955 11.9425 3.83861 13.4546C3.8399 13.5248 3.8431 13.5948 3.8481 13.6642C4.51384 14.7389 5.53822 15.593 6.73494 16.0298C6.45443 13.9986 6.18341 11.9713 5.93435 9.94922Z" fill="url(#paint18_linear_523_608)"/>
<path id="Vector_20" d="M7.86316 6.74805C7.8518 8.13695 7.85172 11.147 7.85359 11.147C7.85266 11.1461 5.93484 9.94675 5.93457 9.94909C6.2868 8.78441 6.93504 7.67984 7.86316 6.74805Z" fill="url(#paint19_linear_523_608)"/>
<path id="Vector_21" d="M7.86328 6.74812C8.48395 9.2748 9.1366 11.812 9.7716 14.3471C11.0294 13.6684 11.8945 12.3201 11.8965 10.7849C11.8963 8.55972 10.0791 6.73503 7.86328 6.74812Z" fill="url(#paint20_linear_523_608)"/>
<path id="Vector_22" d="M11.2958 10.7863C11.2791 10.6526 11.171 10.5446 11.0372 10.5278C10.8408 10.5032 10.6755 10.6683 10.7002 10.8647C10.717 10.9985 10.8249 11.1064 10.9587 11.1232C11.155 11.1477 11.3204 10.9825 11.2958 10.7863Z" fill="url(#paint21_linear_523_608)"/>
<path id="Vector_23" d="M12.0427 13.9404C12.027 13.807 11.9202 13.6999 11.7873 13.6839C11.592 13.6603 11.4269 13.8262 11.4505 14.0222C11.4665 14.1558 11.5731 14.2631 11.7058 14.279C11.9005 14.3024 12.0658 14.1361 12.0427 13.9404Z" fill="url(#paint22_linear_523_608)"/>
<path id="Vector_24" d="M7.90068 17.5393C7.89416 17.0412 7.8883 16.5431 7.88311 16.045C7.50037 16.0409 7.11764 16.0357 6.73486 16.0293C7.05701 16.5658 7.44627 17.0743 7.90068 17.5393Z" fill="url(#paint23_linear_523_608)"/>
<path id="Vector_25" d="M7.86291 6.74805C7.85518 8.13719 7.08295 9.3405 5.93431 9.9491C5.3215 11.9593 5.60966 14.1588 6.7349 16.0297C6.97549 16.1173 7.22322 16.188 7.47689 16.2401C7.45971 16.2522 10.1889 11.1132 7.86291 6.74805Z" fill="url(#paint24_linear_523_608)"/>
<path id="Vector_26" d="M7.86309 6.74805C9.90603 8.79738 10.5544 11.7436 9.77142 14.3471C9.76122 14.3511 7.88876 17.5449 7.90087 17.5397C5.7768 12.2495 9.91849 12.0347 7.86309 6.74805Z" fill="url(#paint25_linear_523_608)"/>
<path id="Vector_27" d="M8.08873 16.328C7.96119 16.7058 7.89513 17.113 7.90072 17.5393C8.26447 17.167 8.58365 16.762 8.8588 16.3341C8.85775 16.1388 8.85673 15.9434 8.85576 15.748C8.59923 15.9421 8.34349 16.1354 8.08873 16.328Z" fill="url(#paint26_linear_523_608)"/>
<path id="Vector_28" d="M9.76902 14.3489C8.97945 14.7731 8.37641 15.476 8.08887 16.329C8.21703 16.3397 8.34633 16.3458 8.47676 16.3468C8.60531 16.3478 8.7327 16.3435 8.85891 16.3351C9.25887 15.713 9.56488 15.0424 9.77137 14.3477C9.77062 14.3481 9.76984 14.3485 9.76902 14.3489Z" fill="url(#paint27_linear_523_608)"/>
</g>
</g>
<defs>
<linearGradient id="paint0_linear_523_608" x1="2.92891" y1="17.0711" x2="17.0711" y2="2.92895" gradientUnits="userSpaceOnUse">
<stop stop-color="#560DFF"/>
<stop offset="1" stop-color="#73ECFF"/>
</linearGradient>
<radialGradient id="paint1_radial_523_608" cx="0" cy="0" r="1" gradientUnits="userSpaceOnUse" gradientTransform="translate(7.94012 12.0598) scale(13.2214)">
<stop stop-color="#6B23EA"/>
<stop offset="0.0345" stop-color="#6A2DEB" stop-opacity="0.966"/>
<stop offset="0.1924" stop-color="#6859EE" stop-opacity="0.808"/>
<stop offset="0.3527" stop-color="#667DF0" stop-opacity="0.647"/>
<stop offset="0.5132" stop-color="#6598F2" stop-opacity="0.487"/>
<stop offset="0.6742" stop-color="#64ACF4" stop-opacity="0.326"/>
<stop offset="0.836" stop-color="#63B8F5" stop-opacity="0.164"/>
<stop offset="1" stop-color="#63BCF5" stop-opacity="0"/>
</radialGradient>
<radialGradient id="paint2_radial_523_608" cx="0" cy="0" r="1" gradientUnits="userSpaceOnUse" gradientTransform="translate(12.9313 7.06867) scale(14.3621)">
<stop stop-color="#6B23EA"/>
<stop offset="0.0062" stop-color="#6B27EA" stop-opacity="0.99"/>
<stop offset="0.0667" stop-color="#694FED" stop-opacity="0.888"/>
<stop offset="0.1314" stop-color="#6771F0" stop-opacity="0.78"/>
<stop offset="0.2001" stop-color="#668CF2" stop-opacity="0.665"/>
<stop offset="0.2742" stop-color="#64A1F3" stop-opacity="0.541"/>
<stop offset="0.3562" stop-color="#64B0F4" stop-opacity="0.404"/>
<stop offset="0.4524" stop-color="#63B9F5" stop-opacity="0.243"/>
<stop offset="0.5979" stop-color="#63BCF5" stop-opacity="0"/>
</radialGradient>
<linearGradient id="paint3_linear_523_608" x1="6.28446" y1="13.7152" x2="18.8451" y2="1.15463" gradientUnits="userSpaceOnUse">
<stop stop-color="#73ECFF"/>
<stop offset="1" stop-color="white"/>
</linearGradient>
<linearGradient id="paint4_linear_523_608" x1="14.7016" y1="8.32747" x2="19.0029" y2="4.02612" gradientUnits="userSpaceOnUse">
<stop stop-color="#73ECFF"/>
<stop offset="1" stop-color="white"/>
</linearGradient>
<linearGradient id="paint5_linear_523_608" x1="15.7277" y1="7.30203" x2="19.954" y2="3.07574" gradientUnits="userSpaceOnUse">
<stop stop-color="#73ECFF"/>
<stop offset="1" stop-color="white"/>
</linearGradient>
<linearGradient id="paint6_linear_523_608" x1="14.6257" y1="6.58877" x2="17.0129" y2="4.20168" gradientUnits="userSpaceOnUse">
<stop stop-color="#73ECFF"/>
<stop offset="1" stop-color="white"/>
</linearGradient>
<linearGradient id="paint7_linear_523_608" x1="10.4511" y1="9.592" x2="23.7584" y2="-3.7153" gradientUnits="userSpaceOnUse">
<stop stop-color="#73ECFF"/>
<stop offset="1" stop-color="white"/>
</linearGradient>
<linearGradient id="paint8_linear_523_608" x1="9.16842" y1="13.6818" x2="17.3747" y2="5.47552" gradientUnits="userSpaceOnUse">
<stop stop-color="#389FFF"/>
<stop offset="0.1209" stop-color="#45AFFA"/>
<stop offset="0.5726" stop-color="#73E9E7"/>
<stop offset="0.79" stop-color="#85FFE0"/>
<stop offset="0.881" stop-color="#9DFFE6"/>
<stop offset="1" stop-color="#C2FFF0"/>
</linearGradient>
<linearGradient id="paint9_linear_523_608" x1="3.19856" y1="15.9272" x2="17.7773" y2="1.34852" gradientUnits="userSpaceOnUse">
<stop stop-color="#389FFF"/>
<stop offset="0.1209" stop-color="#45AFFA"/>
<stop offset="0.5726" stop-color="#73E9E7"/>
<stop offset="0.79" stop-color="#85FFE0"/>
<stop offset="0.881" stop-color="#9DFFE6"/>
<stop offset="1" stop-color="#C2FFF0"/>
</linearGradient>
<linearGradient id="paint10_linear_523_608" x1="12.0261" y1="11.3225" x2="19.7388" y2="3.60988" gradientUnits="userSpaceOnUse">
<stop stop-color="#389FFF"/>
<stop offset="0.1209" stop-color="#45AFFA"/>
<stop offset="0.5726" stop-color="#73E9E7"/>
<stop offset="0.79" stop-color="#85FFE0"/>
<stop offset="0.881" stop-color="#9DFFE6"/>
<stop offset="1" stop-color="#C2FFF0"/>
</linearGradient>
<linearGradient id="paint11_linear_523_608" x1="9.08073" y1="10.7593" x2="17.4474" y2="2.39262" gradientUnits="userSpaceOnUse">
<stop stop-color="#389FFF"/>
<stop offset="0.1209" stop-color="#45AFFA"/>
<stop offset="0.5726" stop-color="#73E9E7"/>
<stop offset="0.79" stop-color="#85FFE0"/>
<stop offset="0.881" stop-color="#9DFFE6"/>
<stop offset="1" stop-color="#C2FFF0"/>
</linearGradient>
<radialGradient id="paint12_radial_523_608" cx="0" cy="0" r="1" gradientUnits="userSpaceOnUse" gradientTransform="translate(7.85789 12.1418) scale(12.0607 12.0607)">
<stop offset="0.2559" stop-color="#6B23EA"/>
<stop offset="0.3352" stop-color="#6E66F1" stop-opacity="0.739"/>
<stop offset="0.412" stop-color="#70A0F7" stop-opacity="0.485"/>
<stop offset="0.4773" stop-color="#72C9FB" stop-opacity="0.27"/>
<stop offset="0.5285" stop-color="#73E3FE" stop-opacity="0.101"/>
<stop offset="0.5592" stop-color="#73ECFF" stop-opacity="0"/>
</radialGradient>
<linearGradient id="paint13_linear_523_608" x1="-4.59323" y1="24.5933" x2="12.2265" y2="7.77358" gradientUnits="userSpaceOnUse">
<stop stop-color="#73ECFF"/>
<stop offset="1" stop-color="white"/>
</linearGradient>
<linearGradient id="paint14_linear_523_608" x1="3.03636" y1="11.1392" x2="7.45404" y2="6.72154" gradientUnits="userSpaceOnUse">
<stop stop-color="#73ECFF"/>
<stop offset="1" stop-color="white"/>
</linearGradient>
<linearGradient id="paint15_linear_523_608" x1="3.88586" y1="10.2903" x2="8.21237" y2="5.96378" gradientUnits="userSpaceOnUse">
<stop stop-color="#73ECFF"/>
<stop offset="1" stop-color="white"/>
</linearGradient>
<linearGradient id="paint16_linear_523_608" x1="3.38173" y1="16.6857" x2="11.9825" y2="8.08496" gradientUnits="userSpaceOnUse">
<stop stop-color="#73ECFF"/>
<stop offset="0.9396" stop-color="white"/>
</linearGradient>
<linearGradient id="paint17_linear_523_608" x1="3.29346" y1="18.1829" x2="14.1306" y2="7.34572" gradientUnits="userSpaceOnUse">
<stop stop-color="#389FFF"/>
<stop offset="0.1209" stop-color="#45AFFA"/>
<stop offset="0.5726" stop-color="#73E9E7"/>
<stop offset="0.79" stop-color="#85FFE0"/>
<stop offset="0.881" stop-color="#9DFFE6"/>
<stop offset="1" stop-color="#C2FFF0"/>
</linearGradient>
<linearGradient id="paint18_linear_523_608" x1="-0.749633" y1="19.949" x2="16.2909" y2="2.90844" gradientUnits="userSpaceOnUse">
<stop stop-color="#389FFF"/>
<stop offset="0.1209" stop-color="#45AFFA"/>
<stop offset="0.5726" stop-color="#73E9E7"/>
<stop offset="0.79" stop-color="#85FFE0"/>
<stop offset="0.881" stop-color="#9DFFE6"/>
<stop offset="1" stop-color="#C2FFF0"/>
</linearGradient>
<linearGradient id="paint19_linear_523_608" x1="-12.2759" y1="29.0817" x2="9.48641" y2="7.31934" gradientUnits="userSpaceOnUse">
<stop stop-color="#389FFF"/>
<stop offset="0.1209" stop-color="#45AFFA"/>
<stop offset="0.5726" stop-color="#73E9E7"/>
<stop offset="0.79" stop-color="#85FFE0"/>
<stop offset="0.881" stop-color="#9DFFE6"/>
<stop offset="1" stop-color="#C2FFF0"/>
</linearGradient>
<linearGradient id="paint20_linear_523_608" x1="3.76047" y1="15.7231" x2="12.1999" y2="7.28362" gradientUnits="userSpaceOnUse">
<stop stop-color="#389FFF"/>
<stop offset="0.1209" stop-color="#45AFFA"/>
<stop offset="0.5726" stop-color="#73E9E7"/>
<stop offset="0.79" stop-color="#85FFE0"/>
<stop offset="0.881" stop-color="#9DFFE6"/>
<stop offset="1" stop-color="#C2FFF0"/>
</linearGradient>
<linearGradient id="paint21_linear_523_608" x1="8.17779" y1="13.6455" x2="13.3455" y2="8.47776" gradientUnits="userSpaceOnUse">
<stop stop-color="#389FFF"/>
<stop offset="0.1209" stop-color="#45AFFA"/>
<stop offset="0.5726" stop-color="#73E9E7"/>
<stop offset="0.79" stop-color="#85FFE0"/>
<stop offset="0.881" stop-color="#9DFFE6"/>
<stop offset="1" stop-color="#C2FFF0"/>
</linearGradient>
<linearGradient id="paint22_linear_523_608" x1="10.3719" y1="15.3558" x2="13.5911" y2="12.1367" gradientUnits="userSpaceOnUse">
<stop stop-color="#73ECFF"/>
<stop offset="1" stop-color="white"/>
</linearGradient>
<linearGradient id="paint23_linear_523_608" x1="7.32854" y1="16.7735" x2="15.2249" y2="8.87719" gradientUnits="userSpaceOnUse">
<stop stop-color="#389FFF"/>
<stop offset="0.1209" stop-color="#45AFFA"/>
<stop offset="0.5726" stop-color="#73E9E7"/>
<stop offset="0.79" stop-color="#85FFE0"/>
<stop offset="0.881" stop-color="#9DFFE6"/>
<stop offset="1" stop-color="#C2FFF0"/>
</linearGradient>
<linearGradient id="paint24_linear_523_608" x1="4.12122" y1="15.0427" x2="16.6484" y2="2.51555" gradientUnits="userSpaceOnUse">
<stop stop-color="#389FFF"/>
<stop offset="0.1209" stop-color="#45AFFA"/>
<stop offset="0.5726" stop-color="#73E9E7"/>
<stop offset="0.79" stop-color="#85FFE0"/>
<stop offset="0.881" stop-color="#9DFFE6"/>
<stop offset="1" stop-color="#C2FFF0"/>
</linearGradient>
<linearGradient id="paint25_linear_523_608" x1="-1.28244" y1="21.3082" x2="10.7007" y2="9.32509" gradientUnits="userSpaceOnUse">
<stop stop-color="#170794"/>
<stop offset="1" stop-color="#63BCF5"/>
</linearGradient>
<linearGradient id="paint26_linear_523_608" x1="-0.038735" y1="24.9672" x2="11.1758" y2="13.7526" gradientUnits="userSpaceOnUse">
<stop stop-color="#170794"/>
<stop offset="1" stop-color="#63BCF5"/>
</linearGradient>
<linearGradient id="paint27_linear_523_608" x1="0.666759" y1="23.8817" x2="10.1186" y2="14.4298" gradientUnits="userSpaceOnUse">
<stop stop-color="#170794"/>
<stop offset="1" stop-color="#63BCF5"/>
</linearGradient>
<clipPath id="clip0_523_608">
<rect width="20" height="20" fill="white"/>
</clipPath>
</defs>
</svg>
