<svg width="20" height="20" viewBox="0 0 20 20" fill="none" xmlns="http://www.w3.org/2000/svg">
<g id="Icon " clip-path="url(#clip0_523_510)">
<g id="Group">
<g id="Group_2">
<g id="Group_3">
<g id="Group_4">
<g id="XMLID 2783">
<g id="XMLID 2784">
<g id="XMLID 2785">
<g id="XMLID 2786">
<g id="XMLID 2787">
<g id="XMLID 2788">
<g id="XMLID 2789">
<g id="XMLID 2790">
<g id="XMLID 2791">
<g id="XMLID 2792">
<g id="XMLID 2793">
<g id="XMLID 2794">
<g id="XMLID 2795">
<g id="XMLID 2818">
<g id="XMLID 3411">
<path id="Vector" d="M10 20C15.5228 20 20 15.5228 20 10C20 4.47715 15.5228 0 10 0C4.47715 0 0 4.47715 0 10C0 15.5228 4.47715 20 10 20Z" fill="#FF4D05"/>
</g>
</g>
</g>
</g>
</g>
</g>
</g>
</g>
</g>
</g>
</g>
</g>
</g>
</g>
</g>
</g>
</g>
</g>
<path id="Vector_2" d="M10.3772 5.80422L7.646 3.07023L4.39252 6.32376L7.62201 9.552L6.41533 11.1756L4.88197 9.64224L4.11748 10.8925L3.359 11.1652L4.70752 12.5137L2.15479 14.5927L7.14791 19.5858C8.05186 19.8544 9.00896 19.9992 10.0001 19.9992C15.5229 19.9992 20.0001 15.5221 20.0001 9.99923C20.0001 8.89931 19.8219 7.84106 19.4939 6.85118L15.6603 3.01758L10.3772 5.80422Z" fill="#C30047"/>
<g id="Group_5">
<g id="Group_6">
<path id="Vector_3" d="M17.8477 14.5918L15.9176 16.5219L13.0602 13.6645L14.9902 11.7344L17.8477 14.5918Z" fill="#FF9D21"/>
<g id="Group_7">
<g id="Group_8">
<path id="Vector_4" d="M13.0537 13.6641L14.0188 12.699L16.8764 15.5565L15.9113 16.5216L13.0537 13.6641Z" fill="#FF7D47"/>
</g>
</g>
<path id="Vector_5" d="M4.33936 3.01758L7.64553 3.07023L15.0269 12.0259L13.3477 13.7051L4.39205 6.32375L4.33936 3.01758Z" fill="#DAEAEC"/>
<path id="Vector_6" d="M4.39197 6.32363L12.0905 12.669L13.1661 13.5554L13.3478 13.705L14.1873 12.8655L4.33936 3.01758L4.39197 6.32363Z" fill="#CEDFE2"/>
<path id="Vector_7" d="M16.6431 11.166L12.4901 15.319L10.9673 13.7963L15.1203 9.64329L16.6431 11.166Z" fill="#FFDD54"/>
<path id="Vector_8" d="M10.9614 13.7949L13.038 11.7184L14.5608 13.2412L12.4842 15.3177L10.9614 13.7949Z" fill="#FF9D21"/>
</g>
<g id="Group_9">
<path id="Vector_9" d="M5.01318 11.7324L6.94326 13.6625L4.08585 16.5199L2.15577 14.5898L5.01318 11.7324Z" fill="#5ECBF1"/>
<g id="Group_10">
<g id="Group_11">
<path id="Vector_10" d="M3.11816 15.5566L5.97575 12.699L6.94086 13.6642L4.08328 16.5218L3.11816 15.5566Z" fill="#0FA7DA"/>
</g>
</g>
<path id="Vector_11" d="M15.6596 3.01758L12.3535 3.07023L4.97217 12.0259L6.65131 13.7051L15.607 6.32375L15.6596 3.01758Z" fill="white"/>
<path id="Vector_12" d="M15.6074 6.32363L7.90881 12.669L6.83322 13.5554L6.6515 13.705L5.81201 12.8655L15.66 3.01758L15.6074 6.32363Z" fill="#F1F4F6"/>
<path id="Vector_13" d="M4.88281 9.64062L9.03584 13.7936L7.51311 15.3164L3.36008 11.1634L4.88281 9.64062Z" fill="#00E4EF"/>
<path id="Vector_14" d="M5.43408 13.2422L6.95687 11.7194L9.03341 13.7959L7.51062 15.3187L5.43408 13.2422Z" fill="#5ECBF1"/>
</g>
</g>
</g>
</g>
<defs>
<clipPath id="clip0_523_510">
<rect width="20" height="20" fill="white"/>
</clipPath>
</defs>
</svg>
