<svg width="484" height="422" viewBox="0 0 484 422" fill="none" xmlns="http://www.w3.org/2000/svg">
<g opacity="0.4" clip-path="url(#clip0_2060_215)">
<path d="M362.248 68.9145C368.239 87.119 371.696 105.784 373.309 123.989C374.922 144.498 374 164.776 370.313 184.594C368.47 194.733 365.935 204.642 362.939 214.551C344.504 273.082 303.947 324.008 247.721 353.965C235.277 360.648 221.912 366.408 208.086 370.787C196.103 374.704 183.89 377.7 171.677 379.543C153.011 382.539 134.346 383.23 115.911 381.848C106.693 381.156 97.4758 380.004 88.4888 378.161C58.9929 372.4 30.8796 361.108 5.76196 345.208C-25.8079 325.16 -52.9994 297.738 -72.5866 264.555C-73.9692 262.251 -75.3518 259.716 -76.7344 257.181C-83.6475 244.507 -89.6389 230.681 -94.2476 216.394C-94.4781 215.933 -94.7085 215.242 -94.7085 214.551C-95.1694 213.398 -95.3998 212.246 -95.8607 211.094C-96.3216 209.711 -96.552 208.559 -97.0129 207.177C-97.2433 206.024 -97.7042 204.872 -97.9346 203.95C-98.1651 202.798 -98.6259 201.646 -98.8564 200.494C-99.0868 199.342 -99.5477 198.19 -99.7781 197.037C-100.7 193.581 -101.391 189.894 -102.082 186.437C-104.156 174.915 -105.539 163.163 -106 151.641C-106.691 132.515 -105.078 113.389 -101.391 94.9538C-97.7042 78.1319 -92.1737 61.0796 -85.0302 44.949C-79.2692 32.275 -72.5866 20.0619 -64.7517 8.54001C-35.7167 -34.3212 7.14458 -67.965 59.9146 -85.2478C87.567 -94.2348 115.45 -97.9218 142.872 -96.7696C147.02 -96.5392 150.937 -96.3088 155.085 -96.0783C156.468 -96.0783 157.85 -95.8479 159.002 -95.6174C161.768 -95.387 164.303 -94.9261 167.068 -94.6957C167.99 -94.4653 168.911 -94.4653 170.063 -94.2348C171.677 -94.0044 173.29 -93.774 174.672 -93.5435C175.594 -93.3131 176.746 -93.0826 177.668 -93.0826C179.05 -92.8522 180.664 -92.6218 182.046 -92.1609C183.89 -91.9305 185.503 -91.4696 187.346 -91.0087C189.651 -90.5478 192.185 -89.8565 194.49 -89.3957C196.103 -88.9348 197.716 -88.4739 199.098 -88.013C199.559 -87.7826 200.251 -87.7826 200.712 -87.5522C202.555 -87.0913 204.399 -86.4 206.242 -85.9391C208.316 -85.2478 210.39 -84.5565 212.233 -83.8652C213.846 -83.4043 215.46 -82.713 217.303 -82.0217C221.22 -80.6391 225.138 -79.026 229.055 -77.1825C229.747 -76.9521 230.668 -76.4912 231.36 -76.2608C232.742 -75.7999 233.894 -75.1086 235.277 -74.6477C237.581 -73.726 239.655 -72.5738 241.729 -71.4216C253.482 -65.6607 264.543 -58.7476 275.143 -51.1431C289.199 -41.0039 302.104 -29.2516 313.626 -16.3472C318.695 -10.5863 323.534 -4.59489 328.143 1.85735C335.978 12.4574 342.891 23.9793 348.882 35.962C353.952 46.3316 358.33 57.3926 362.248 68.9145Z" fill="url(#paint0_linear_2060_215)"/>
<path d="M166.837 -94.6957C166.376 -94.0044 165.916 -93.3131 165.455 -92.8522C162.229 -88.9348 157.389 -86.6304 152.781 -84.326C125.359 -71.4216 97.7063 -58.2867 70.2843 -45.3822C59.6842 -40.3126 48.8537 -35.0126 41.9406 -25.5646C31.3405 -10.8167 33.184 10.614 21.2013 23.9793C5.07069 41.9534 -29.034 37.8055 -40.5558 59.2361C-47.2385 71.4493 -42.8602 87.3494 -49.082 99.793C-55.9951 113.389 -73.7387 119.38 -79.0388 133.898C-85.491 150.95 -70.5126 169.846 -74.6605 187.589C-77.1953 198.881 -86.6432 206.946 -94.7085 215.242C-97.7042 205.794 -100.009 196.346 -101.852 186.898C-103.926 175.376 -105.309 163.624 -105.769 152.102C-106.461 132.976 -104.848 113.85 -101.161 95.4147C-97.7042 78.132 -92.1737 61.0796 -85.0301 44.9491C-79.2692 32.275 -72.5865 20.0619 -64.7517 8.54002C-35.7166 -34.3212 7.14462 -67.965 59.9147 -85.2478C87.5671 -94.2348 115.45 -97.9218 142.872 -96.7696C150.937 -96.5392 159.003 -95.8479 166.837 -94.6957Z" fill="url(#paint1_linear_2060_215)"/>
<path d="M362.248 68.9149C368.239 87.1194 371.696 105.785 373.309 123.989C374.922 144.498 374 164.777 370.313 184.594C368.47 194.733 365.935 204.642 362.939 214.551C344.504 273.082 303.947 324.009 247.721 353.965C235.277 360.648 221.912 366.409 208.086 370.787C196.103 374.705 183.89 377.7 171.677 379.544C153.011 382.54 134.346 383.231 115.911 381.848C106.693 381.157 97.476 380.005 88.489 378.161C58.993 372.4 30.8797 361.109 5.76211 345.209C-25.8077 325.161 -52.9993 297.739 -72.5864 264.556C-53.6906 259.947 -33.4122 261.33 -15.899 270.086C11.7535 283.913 32.4928 313.178 61.9887 319.4C63.8322 319.861 65.9061 320.091 67.7496 320.322C85.9541 322.165 102.776 314.33 119.828 306.956C129.507 302.578 139.415 298.43 149.785 296.356C166.377 292.669 183.659 294.513 200.481 292.208C217.303 289.904 235.047 282.069 241.729 266.399C249.795 247.273 238.503 225.842 235.277 205.103C233.895 196.347 233.664 187.82 237.351 179.755C248.873 153.485 291.504 147.724 295.191 119.15C296.343 110.624 293.347 102.789 288.969 95.4152C284.821 88.2716 279.521 81.1281 275.373 73.9845C263.851 54.3974 260.395 30.432 254.634 8.07959C253.482 3.24042 252.099 -1.59875 250.486 -6.20749C247.49 -15.6554 243.343 -24.412 237.812 -32.2469C234.586 -36.8556 230.669 -41.0035 226.06 -44.46C214.307 -53.6775 199.099 -58.0558 186.885 -66.8124C178.129 -73.2646 170.755 -83.8647 170.524 -94.2344C172.138 -94.0039 173.751 -93.7735 175.133 -93.5431C176.055 -93.3126 177.207 -93.0822 178.129 -93.0822C179.512 -92.8518 181.125 -92.6213 182.507 -92.1604C184.351 -91.93 185.964 -91.4691 187.807 -91.0083C190.112 -90.5474 192.646 -89.8561 194.951 -89.3952C196.564 -88.9343 198.177 -88.4735 199.56 -88.0126C200.02 -87.7821 200.712 -87.7821 201.173 -87.5517C203.016 -87.0908 204.86 -86.3995 206.703 -85.9386C208.777 -85.2473 210.851 -84.556 212.694 -83.8647C214.307 -83.4038 215.921 -82.7125 217.764 -82.0212C221.681 -80.6386 225.599 -79.0255 229.516 -77.182C230.208 -76.9516 231.129 -76.4907 231.821 -76.2603C233.203 -75.7994 234.355 -75.1081 235.738 -74.6472C238.042 -73.7255 240.116 -72.5733 242.19 -71.4211C253.943 -65.6602 265.004 -58.7471 275.604 -51.1427C289.66 -41.0035 302.565 -29.2512 314.087 -16.3467C319.156 -10.5858 323.995 -4.59443 328.604 1.8578C336.439 12.4579 343.352 23.9797 349.344 35.9625C353.952 46.3321 358.331 57.3931 362.248 68.9149Z" fill="url(#paint2_linear_2060_215)"/>
<path d="M362.248 68.9145C368.239 87.119 371.696 105.784 373.309 123.989C374.922 144.498 374 164.776 370.313 184.594C368.47 194.733 365.935 204.642 362.939 214.551C344.504 273.082 303.947 324.008 247.721 353.965C235.277 360.648 221.912 366.409 208.086 370.787C196.103 374.704 183.89 377.7 171.676 379.543C153.011 382.539 134.346 383.23 115.911 381.848C106.693 381.156 97.4758 380.004 88.4888 378.161C100.702 370.095 112.454 361.339 126.05 356.5C127.202 356.039 128.354 355.808 129.507 355.348C143.794 350.969 158.772 350.739 173.981 350.508C179.281 350.508 184.811 350.508 190.111 350.278C211.542 349.587 235.047 344.978 249.103 328.617C259.473 316.634 263.16 299.582 273.99 288.06C277.908 283.682 282.747 280.225 287.817 276.769C297.725 269.855 307.865 263.634 312.013 252.803C313.626 248.655 314.086 244.277 313.856 239.899C313.626 234.138 312.013 228.146 310.399 222.155C307.404 211.555 303.947 200.724 306.021 190.355C310.169 169.615 334.826 156.711 336.669 135.511C336.9 133.437 336.9 131.593 336.669 129.75C335.287 117.306 326.761 105.784 322.843 93.5713C320.769 87.119 319.847 80.6668 319.617 73.7537C319.387 58.3144 323.304 42.6447 326.069 27.2055C327.682 18.9097 328.604 10.1531 328.604 1.62695C336.439 12.227 343.352 23.7489 349.343 35.7316C353.952 46.3317 358.33 57.3927 362.248 68.9145Z" fill="url(#paint3_linear_2060_215)"/>
<g opacity="0.25">
<path opacity="0.25" d="M33.184 186.437C30.6492 189.894 26.9622 192.198 23.5057 194.272C11.0621 201.646 -2.07285 207.637 -15.6686 212.246C-20.5078 213.859 -25.8078 215.472 -29.2644 219.39C-32.7209 223.077 -34.1036 228.377 -36.6384 232.985C-42.3993 243.585 -53.6907 249.577 -64.9821 253.494C-68.6691 254.877 -72.817 256.029 -76.504 257.642C-83.4171 244.968 -89.4084 231.372 -94.0172 216.855C-97.2433 206.946 -99.7781 196.807 -101.622 186.667H-101.391C-88.7171 181.367 -74.6605 179.985 -61.2951 182.52C-53.6907 183.902 -46.0863 186.898 -38.2514 186.898C-30.4166 186.898 -22.8122 184.363 -15.4382 181.598C-6.22071 178.372 2.99677 174.915 12.2142 171.689C16.1317 170.306 20.2795 168.924 24.4274 168.924C28.5753 168.924 33.184 170.998 35.0275 174.685C36.871 178.372 35.7188 182.98 33.184 186.437Z" fill="white"/>
<path opacity="0.25" d="M241.499 -71.4214C241.499 -71.191 241.499 -70.7301 241.499 -70.4997C241.499 -56.4431 243.803 -41.2342 235.968 -29.7124C230.438 -21.8775 221.22 -17.7297 212.003 -15.1949C202.785 -12.8905 193.338 -11.9687 184.12 -8.74263C160.385 -0.677338 143.794 20.2924 129.737 41.0317C115.68 61.7711 102.085 84.1234 80.6539 97.0279C71.4365 102.558 58.0711 105.554 50.9276 97.2583C45.858 91.4974 46.7797 82.2799 50.6971 75.8277C54.3841 69.145 60.6059 64.3059 66.1364 59.0058C71.6669 53.7058 76.9669 47.484 78.3496 40.11C80.8844 25.8229 68.2103 10.3836 74.893 -2.52083C77.6583 -8.05132 83.4192 -11.5079 88.4888 -14.9644C98.3976 -21.6471 107.154 -29.9428 114.759 -39.1603C128.124 -55.2909 137.572 -74.4171 142.411 -94.6956C142.641 -95.3869 142.641 -95.8478 142.872 -96.5391C177.437 -95.6173 211.081 -86.6303 241.499 -71.4214Z" fill="white"/>
<path opacity="0.25" d="M147.481 87.1193C147.481 96.3368 153.242 106.015 149.324 114.541C147.481 118.459 143.794 121.224 140.798 124.45C137.802 127.676 135.498 132.055 136.881 136.202C138.494 141.042 144.485 142.885 149.324 141.502C154.163 140.12 158.081 136.663 161.537 133.207C177.668 117.537 193.798 102.098 210.159 86.428C215.229 81.5889 220.529 76.5192 223.294 70.067C234.816 44.719 207.625 30.2014 186.655 39.8798C178.359 43.5668 173.059 51.1712 166.607 57.1626C158.081 65.4583 147.481 73.9844 147.481 87.1193Z" fill="white"/>
<path opacity="0.25" d="M362.248 68.9153C368.239 87.1198 371.696 105.785 373.309 123.99C360.865 125.833 348.421 127.446 335.978 129.52C322.382 131.825 309.017 134.82 296.112 139.659C285.512 143.577 275.142 149.107 268.921 158.555C264.542 165.238 262.929 173.073 259.473 180.216C254.403 191.047 245.416 199.803 234.816 205.103C231.82 206.486 228.825 207.638 225.599 208.56C219.377 210.173 211.542 210.173 208.316 204.643C205.09 199.573 207.855 192.66 212.233 188.512C216.612 184.364 222.372 182.06 227.212 178.373C245.416 164.086 243.342 135.281 257.399 116.846C265.234 106.707 276.986 101.176 288.277 95.1851C291.043 93.8025 293.808 92.1894 296.573 90.5764C304.638 85.7372 312.012 79.9763 318.695 73.524C321.46 70.7588 324.226 67.9936 326.76 64.9979C334.826 56.0108 340.817 44.9499 348.421 35.502C353.952 46.3325 358.33 57.3935 362.248 68.9153Z" fill="white"/>
<path opacity="0.25" d="M313.395 -16.3486C300.03 -7.13109 285.512 0.70377 270.534 7.156C265.003 9.46037 258.551 11.5343 253.712 8.07774C250.025 5.54294 248.642 0.242889 249.564 -4.13541C250.255 -8.51371 252.79 -12.6616 255.095 -16.579C260.856 -26.0269 266.847 -41.4662 274.912 -51.1445C288.969 -41.0053 301.873 -29.4835 313.395 -16.3486Z" fill="white"/>
<path opacity="0.25" d="M35.9493 220.083C32.0319 223.539 30.1884 228.379 28.5753 233.218C26.9622 238.057 25.3492 243.127 22.3535 247.044C19.5883 250.501 15.9013 253.035 12.9056 256.031C9.90991 259.027 7.37511 263.405 8.06642 267.783C8.98817 273.314 15.21 276.54 20.7404 276.309C26.2709 276.079 31.3405 273.083 36.1797 270.318C54.8451 259.488 73.2801 248.657 91.9454 237.596C94.7107 235.983 97.4759 234.37 98.8585 231.605C102.085 225.613 96.7846 218.009 90.3324 216.165C83.8801 214.092 76.967 215.935 70.5148 217.318C60.606 219.392 44.245 212.709 35.9493 220.083Z" fill="white"/>
<path opacity="0.25" d="M152.55 262.021C146.328 267.551 138.263 270.777 131.12 275.386C123.976 279.995 117.293 286.677 116.833 294.973C116.372 299.351 117.754 303.269 119.598 307.186C122.363 312.947 126.741 318.708 129.276 324.699C133.424 334.608 132.502 345.439 129.276 355.808C127.433 361.8 124.667 367.561 121.672 372.861C119.828 376.087 117.754 379.313 115.911 382.539C106.693 381.848 97.4758 380.695 88.4888 378.852C58.9929 373.091 30.8796 361.8 5.76196 345.899C26.7317 343.826 46.7797 334.378 61.9886 319.86C67.2886 314.791 72.1278 309.03 76.0452 302.577C80.6539 294.973 84.3409 286.677 90.3323 280.225C102.085 267.551 122.133 261.79 127.202 245.429C128.354 241.512 128.585 237.594 129.737 233.677C130.889 229.99 133.654 226.072 137.572 225.381C141.028 224.69 144.715 226.533 147.711 228.377C152.55 231.142 157.389 234.368 159.463 239.438C163.15 247.273 158.772 256.26 152.55 262.021Z" fill="white"/>
<path opacity="0.25" d="M288.739 281.147C290.813 293.129 281.365 303.96 271.456 311.334C261.777 318.708 250.717 326.082 247.26 337.604C245.647 343.134 246.108 348.665 247.49 354.195C235.047 360.878 221.681 366.639 207.855 371.017C195.873 374.934 183.659 377.93 171.446 379.774C170.985 370.095 171.446 360.186 173.52 350.739C173.981 348.204 174.672 345.669 175.364 343.134C181.125 324.008 195.181 306.264 214.308 300.273C225.368 296.816 239.425 296.125 244.495 285.755C248.643 276.999 244.725 264.094 252.79 258.794C258.09 255.338 265.004 257.873 270.304 260.868C277.217 264.555 284.13 269.855 287.126 276.999C288.047 278.381 288.508 279.764 288.739 281.147Z" fill="white"/>
<path opacity="0.25" d="M370.313 184.824C368.47 194.963 365.935 204.872 362.939 214.781C359.944 214.32 356.948 213.859 353.952 213.859C346.578 213.629 338.743 214.781 333.213 219.62C329.295 223.077 326.761 227.916 323.765 232.294C321.23 235.751 317.774 238.977 313.626 240.129C312.704 240.36 311.782 240.59 310.861 240.59C305.56 240.59 300.491 234.599 303.256 229.99C304.639 227.685 307.174 226.533 309.017 224.459C309.478 223.768 309.939 223.077 310.169 222.385C311.552 218.698 310.4 214.32 310.4 210.172C310.4 196.346 321.921 190.816 333.674 189.663C345.656 188.281 357.87 185.976 370.313 184.824Z" fill="white"/>
</g>
</g>
<path d="M265.436 163.132L271.462 166.185L270.924 167.208C277.048 173.85 278.034 184.628 273.506 193.614C268.832 202.867 259.057 208.727 249.704 207.544L249.183 208.533L243.854 205.83C233.8 200.993 229.521 187.797 235.801 175.357C242.081 162.916 255.415 158.235 265.436 163.132Z" fill="#FA902C"/>
<path d="M252.928 208.003C262.341 211.056 273.11 205.477 277.944 195.912C282.777 186.347 280.772 174.563 272.585 169.083C263.232 162.826 249.566 166.963 243.402 179.17C237.239 191.378 242.176 204.518 252.928 208.003Z" fill="#FA902C"/>
<path d="M249.566 206.291C258.98 209.344 269.749 203.77 274.582 194.201C279.416 184.632 277.427 172.821 269.224 167.363C259.87 161.102 249.553 166.547 243.398 178.755C237.243 190.962 238.814 202.807 249.566 206.291Z" fill="#FAC02C"/>
<path d="M271.729 170.771C263.189 165.205 250.862 169.07 245.301 180.077C239.74 191.084 244.087 203.032 253.789 206.301C262.375 209.199 272.297 204.142 276.752 195.32C281.206 186.498 279.291 175.703 271.729 170.771ZM273.45 167.373C282.257 173.419 284.34 186.131 279.123 196.469C273.906 206.806 262.337 212.878 252.075 209.704C240.222 206.012 234.669 191.667 241.461 178.212C248.253 164.756 263.262 160.378 273.45 167.373Z" fill="#FAE22C"/>
<path d="M251.425 184.152C252.734 183.915 254.081 184.027 255.329 184.476L255.467 184.204C254.899 183.733 254.413 183.172 254.025 182.542C252.953 180.788 252.906 178.595 253.896 176.794C254.8 175.002 256.096 173.957 257.77 173.672C258.842 173.504 259.939 173.603 260.964 173.966L263.348 169.246L265.337 170.257L264.084 175.507L266.107 176.691L268.298 172.347L270.287 173.357L268.909 178.323L273.498 181L271.423 185.107L270.36 184.528C269.701 184.256 268.944 184.571 268.673 185.232C268.673 185.236 268.668 185.24 268.668 185.245L264.179 194.132C263.826 194.84 264.024 195.626 264.609 195.889L265.72 196.373L263.645 200.479L258.708 198.502L255.489 202.643L253.5 201.632L255.691 197.292L253.539 196.429L250.005 200.643L248.016 199.633L250.388 194.939C249.407 194.33 248.567 193.514 247.93 192.547C246.971 191.053 246.988 189.295 247.991 187.309C248.903 185.439 250.061 184.39 251.425 184.152ZM262.664 180.361C262.302 180.128 261.85 180.08 261.446 180.231C260.994 180.482 260.637 180.879 260.443 181.358L259.952 182.321C259.681 182.766 259.573 183.289 259.638 183.803C259.75 184.226 260.051 184.567 260.451 184.735L261.704 185.366L263.895 181.026L262.664 180.361ZM257.882 192.948L260.18 188.393L258.747 187.71C258.364 187.495 257.903 187.464 257.499 187.633C257.042 187.892 256.69 188.293 256.487 188.777L255.906 189.965C255.635 190.401 255.523 190.923 255.596 191.433C255.73 191.843 256.048 192.162 256.457 192.296L257.882 192.948Z" fill="#FA902C"/>
<path d="M253.414 185.164C254.723 184.927 256.07 185.039 257.318 185.488L257.456 185.216C256.888 184.745 256.401 184.184 256.014 183.553C254.942 181.8 254.895 179.607 255.885 177.806C256.789 176.014 258.084 174.969 259.759 174.684C260.83 174.516 261.928 174.615 262.952 174.978L265.337 170.258L268.298 172.115L266.073 176.519L268.096 177.702L270.287 173.358L273.046 175.085L270.894 179.335L275.478 182.012L273.407 186.118L272.344 185.54C271.686 185.268 270.928 185.583 270.657 186.244C270.657 186.248 270.652 186.252 270.652 186.257L266.163 195.143C265.81 195.851 266.008 196.637 266.594 196.901L267.704 197.384L265.629 201.491L260.693 199.513L258.54 203.767L255.48 202.644L257.675 198.3L255.497 197.436L253.272 201.845L249.979 200.64L252.351 195.942C251.365 195.333 250.522 194.517 249.88 193.55C248.92 192.056 248.938 190.298 249.941 188.312C250.892 186.451 252.032 185.402 253.414 185.164ZM264.652 181.373C264.291 181.14 263.839 181.092 263.434 181.243C262.982 181.494 262.625 181.891 262.431 182.37L261.941 183.342C261.67 183.787 261.562 184.309 261.627 184.823C261.738 185.246 262.04 185.587 262.44 185.756L263.693 186.386L265.883 182.042L264.652 181.373ZM259.866 193.982L262.169 189.426L260.736 188.744C260.352 188.528 259.892 188.498 259.487 188.666C259.031 188.925 258.678 189.327 258.476 189.81L257.878 190.998C257.606 191.434 257.494 191.957 257.568 192.466C257.701 192.876 258.02 193.196 258.429 193.33L259.866 193.982Z" fill="#FAF02C"/>
<path d="M350.775 319.065L353.806 315.753L354.365 316.284C359.715 313.538 366.787 314.846 371.716 319.385C376.795 324.061 378.774 331.407 376.338 337.219L376.855 337.715L374.182 340.634C369.279 346.248 360.064 346.611 353.242 340.328C346.42 334.045 345.839 324.636 350.775 319.065Z" fill="#FA902C"/>
<path d="M377.221 335.186C380.871 329.68 379.239 321.743 373.984 316.903C368.728 312.062 360.839 311.237 355.863 315.521C350.169 320.426 350.358 329.969 357.055 336.136C363.753 342.302 373.054 341.494 377.221 335.186Z" fill="#FA902C"/>
<path d="M375.525 337.053C379.171 331.543 377.544 323.607 372.288 318.77C367.033 313.934 359.143 313.105 354.163 317.388C348.477 322.281 350.1 329.911 356.797 336.069C363.495 342.226 371.354 343.349 375.525 337.053Z" fill="#FAC02C"/>
<path d="M356.793 316.393C351.697 320.883 351.946 329.515 357.985 335.077C364.024 340.639 372.447 339.995 376.287 334.343C379.687 329.334 378.241 322.036 373.399 317.58C368.556 313.124 361.308 312.398 356.793 316.393ZM354.929 314.665C360.383 310.084 368.892 311.034 374.561 316.254C380.229 321.475 382.02 330.033 378.146 336.049C373.652 343.014 363.473 344.003 356.091 337.21C348.709 330.418 348.615 319.938 354.92 314.665H354.929Z" fill="#FAE22C"/>
<path d="M361.695 331.874C361.777 330.988 362.091 330.142 362.608 329.417L362.457 329.278C362.053 329.559 361.609 329.771 361.136 329.909C360.555 330.073 359.944 330.095 359.35 329.974C358.626 329.827 357.964 329.473 357.434 328.955C356.53 328.216 356.048 327.076 356.143 325.91C356.229 325.189 356.496 324.503 356.909 323.907L354.327 321.523L355.329 320.426L358.463 322.153L359.582 321.065L357.197 318.872L358.205 317.775L361.132 319.554L363.671 317.084L365.922 319.161L365.363 319.74C365.07 320.115 365.134 320.659 365.509 320.953L365.513 320.957L370.394 325.448C370.691 325.789 371.208 325.824 371.548 325.522C371.565 325.509 371.578 325.491 371.595 325.478L372.107 324.852L374.358 326.925L372.206 329.749L374.272 332.595L373.269 333.692L370.885 331.498L369.934 332.742L371.995 335.764L370.988 336.865L368.406 334.49C367.842 335.013 367.17 335.406 366.439 335.643C365.307 335.989 364.187 335.643 363.099 334.659C362.066 333.726 361.605 332.793 361.695 331.874ZM361.299 323.954C361.084 324.144 360.968 324.425 360.994 324.714C361.067 325.055 361.256 325.362 361.532 325.578L362.066 326.07C362.302 326.325 362.616 326.489 362.956 326.541C363.245 326.545 363.52 326.416 363.701 326.187L364.33 325.491L361.949 323.298L361.299 323.954ZM368.483 329.3L365.987 326.998L365.294 327.797C365.087 328.005 364.984 328.294 365.018 328.588C365.1 328.929 365.294 329.235 365.569 329.451L366.219 330.051C366.447 330.298 366.749 330.462 367.08 330.513C367.364 330.509 367.631 330.367 367.794 330.129L368.483 329.3Z" fill="#FA902C"/>
<path d="M362.703 330.772C362.785 329.887 363.099 329.041 363.611 328.319L363.46 328.181C363.056 328.462 362.612 328.674 362.139 328.807C361.558 328.971 360.947 328.997 360.357 328.876C359.634 328.73 358.967 328.376 358.442 327.857C357.456 326.951 357.021 325.931 357.15 324.835C357.236 324.114 357.499 323.427 357.912 322.831L355.33 320.447L357.051 318.871L359.466 321.099L360.585 320.011L358.205 317.818L359.806 316.354L362.139 318.513L364.674 316.043L366.929 318.12L366.366 318.699C366.073 319.074 366.137 319.618 366.512 319.912C366.516 319.912 366.516 319.916 366.521 319.916L371.38 324.39C371.686 324.731 372.206 324.757 372.546 324.45C372.559 324.442 372.568 324.429 372.581 324.42L373.093 323.794L375.344 325.867L373.192 328.691L375.529 330.85L374.272 332.594L371.888 330.401L370.941 331.644L373.338 333.89L371.978 335.79L369.396 333.419C368.828 333.942 368.156 334.335 367.424 334.572C366.292 334.918 365.173 334.594 364.084 333.588C363.069 332.638 362.608 331.701 362.703 330.772ZM362.302 322.857C362.087 323.047 361.975 323.328 361.997 323.617C362.07 323.958 362.264 324.265 362.539 324.481L363.081 324.956C363.31 325.206 363.611 325.37 363.942 325.426C364.231 325.426 364.506 325.297 364.683 325.068L365.311 324.377L362.931 322.183L362.302 322.857ZM369.49 328.203L366.99 325.901L366.297 326.7C366.09 326.907 365.987 327.197 366.021 327.49C366.103 327.831 366.297 328.134 366.572 328.354L367.222 328.954C367.455 329.205 367.764 329.369 368.105 329.416C368.393 329.408 368.655 329.265 368.819 329.028L369.49 328.203Z" fill="#FAF02C"/>
<path d="M75.5591 364.254L78.925 360.851L79.4975 361.438C85.3039 358.74 92.7717 360.424 97.8292 365.459C103.037 370.64 104.841 378.543 102.009 384.623L102.564 385.193L99.5939 388.185C94.149 393.941 84.3311 393.958 77.3282 386.989C70.3252 380.019 70.0669 369.971 75.5591 364.254Z" fill="#FA902C"/>
<path d="M103.02 382.519C107.126 376.81 105.723 368.295 100.334 362.932C94.9454 357.569 86.5823 356.355 81.1073 360.704C74.8533 365.674 74.651 375.817 81.5377 382.674C88.4245 389.532 98.3242 389.039 103.02 382.519Z" fill="#FA902C"/>
<path d="M101.135 384.41C105.246 378.702 103.842 370.186 98.4491 364.819C93.056 359.452 84.6972 358.247 79.2222 362.595C72.9768 367.57 74.3842 375.774 81.2538 382.593C88.1233 389.411 96.4434 390.944 101.135 384.41Z" fill="#FAC02C"/>
<path d="M82.0629 361.658C76.4674 366.226 76.3641 375.42 82.5579 381.59C88.7517 387.761 97.7432 387.42 102.06 381.564C105.887 376.383 104.643 368.558 99.6844 363.614C94.7259 358.67 87.0343 357.612 82.0629 361.658ZM80.1518 359.754C86.1433 355.107 95.1563 356.467 100.971 362.258C106.786 368.049 108.362 377.22 103.984 383.469C98.9139 390.693 88.0587 391.324 80.4746 383.784C72.8906 376.245 73.2306 365.125 80.1604 359.754H80.1518Z" fill="#FAE22C"/>
<path d="M86.6381 378.331C86.7629 377.389 87.1331 376.495 87.7099 375.74L87.5549 375.584C87.1159 375.869 86.6295 376.076 86.1216 376.202C84.7141 376.53 83.2378 376.085 82.2478 375.031C81.2406 374.03 80.8188 372.924 80.9867 371.741C81.1115 370.977 81.4171 370.256 81.882 369.638L79.2263 366.995L80.341 365.868L83.6036 367.863L84.839 366.749L82.3942 364.318L83.5089 363.191L86.552 365.208L89.3326 362.703L91.6439 365.005L91.0241 365.601C90.697 365.985 90.7443 366.559 91.1231 366.887C91.1274 366.892 91.1317 366.896 91.136 366.896L96.1375 371.888C96.4259 372.268 96.9683 372.337 97.3427 372.048C97.3728 372.026 97.3987 372 97.4288 371.974L97.997 371.326L100.295 373.615L97.8851 376.526L99.9683 379.613L98.8578 380.74L96.413 378.309L95.3499 379.604L97.4159 382.916L96.3011 384.039L93.6368 381.388C93.0127 381.923 92.2767 382.312 91.4847 382.532C90.2666 382.856 89.0872 382.463 87.9681 381.349C86.9566 380.321 86.5004 379.306 86.6381 378.331ZM86.5434 369.889C86.3067 370.083 86.1733 370.381 86.1862 370.687C86.255 371.05 86.4444 371.374 86.7285 371.611L87.2751 372.156C87.5119 372.436 87.839 372.626 88.2006 372.695C88.5105 372.713 88.8075 372.583 89.0097 372.346L89.707 371.633L87.2622 369.202L86.5434 369.889ZM93.9682 375.878L91.3857 373.326L90.6152 374.146C90.3871 374.358 90.2666 374.664 90.2924 374.975C90.3656 375.342 90.5593 375.671 90.839 375.912L91.5105 376.577C91.7429 376.858 92.0701 377.044 92.4273 377.104C92.7329 377.113 93.0256 376.97 93.2064 376.724L93.9682 375.878Z" fill="#FA902C"/>
<path d="M87.7532 377.204C87.8737 376.259 88.2439 375.365 88.8249 374.613L88.67 374.458C88.2309 374.743 87.7446 374.95 87.2367 375.075C86.6126 375.227 85.9626 375.227 85.3385 375.075C84.5766 374.885 83.8837 374.484 83.3414 373.91C82.3342 372.903 81.9123 371.802 82.0802 370.615C82.2007 369.85 82.5106 369.129 82.9755 368.516L80.3198 365.869L82.2179 364.267L84.6972 366.737L85.9325 365.627L83.4877 363.192L85.2524 361.702L87.6456 364.116L90.4476 361.59L92.7762 363.878L92.1521 364.474C91.825 364.863 91.8766 365.442 92.264 365.77L97.2526 370.753C97.5409 371.133 98.0833 371.202 98.4578 370.913C98.4879 370.891 98.5137 370.865 98.5438 370.839L99.112 370.192L101.423 372.493L99.013 375.404L101.385 377.787L99.9599 379.618L97.5194 377.187L96.4563 378.482L98.9441 380.957L97.4161 382.926L94.7734 380.292C94.1492 380.827 93.4132 381.216 92.6212 381.436C91.4075 381.76 90.2281 381.367 89.109 380.253C88.0717 379.195 87.6111 378.18 87.7532 377.204ZM87.6585 368.767C87.4217 368.961 87.2883 369.255 87.3012 369.561C87.3701 369.924 87.5595 370.248 87.8392 370.485L88.3859 371.025C88.6269 371.306 88.9541 371.496 89.3156 371.565C89.6255 371.582 89.9225 371.452 90.1205 371.215L90.8221 370.507L88.3773 368.071L87.6585 368.767ZM95.0832 374.752L92.5007 372.2L91.7303 373.02C91.5021 373.232 91.3816 373.538 91.4075 373.849C91.4806 374.216 91.67 374.544 91.9541 374.786L92.6255 375.451C92.858 375.732 93.1851 375.917 93.5423 375.978C93.8479 375.987 94.1406 375.844 94.3214 375.598L95.0832 374.752Z" fill="#FAF02C"/>
<path d="M366.525 131.368C366.533 152.544 383.651 169.7 404.759 169.691C425.867 169.683 442.968 152.509 442.959 131.333C442.951 110.157 425.833 93.0011 404.725 93.0098C398.845 93.0141 393.043 94.3743 387.775 96.9954C387.551 97.1034 387.331 97.2156 387.116 97.3322C374.462 103.935 366.52 117.058 366.525 131.368Z" fill="url(#paint4_linear_2060_215)" fill-opacity="0.2"/>
<path d="M404.29 130.591C397.094 130.591 391.261 125.605 391.261 119.455C391.261 113.304 397.094 108.318 404.29 108.318C411.486 108.318 417.319 113.304 417.319 119.455C417.319 125.605 411.486 130.591 404.29 130.591Z" fill="url(#paint5_linear_2060_215)" fill-opacity="0.2"/>
<path d="M396.715 135.129C393.116 135.129 390.198 132.635 390.198 129.559C390.198 126.482 393.116 123.988 396.715 123.988C400.314 123.988 403.231 126.482 403.231 129.559C403.231 132.635 400.314 135.129 396.715 135.129Z" fill="url(#paint6_linear_2060_215)" fill-opacity="0.2"/>
<path d="M421.602 155.17C418.003 155.17 415.085 152.676 415.085 149.6C415.085 146.523 418.003 144.029 421.602 144.029C425.201 144.029 428.118 146.523 428.118 149.6C428.118 152.676 425.201 155.17 421.602 155.17Z" fill="url(#paint7_linear_2060_215)" fill-opacity="0.2"/>
<path d="M378 123.987C375.86 123.987 374.126 122.504 374.126 120.675C374.126 118.846 375.86 117.363 378 117.363C380.139 117.363 381.874 118.846 381.874 120.675C381.874 122.504 380.139 123.987 378 123.987Z" fill="url(#paint8_linear_2060_215)" fill-opacity="0.2"/>
<path d="M412.782 104.418C411.009 104.418 409.571 103.189 409.571 101.672C409.571 100.155 411.009 98.9258 412.782 98.9258C414.556 98.9258 415.993 100.155 415.993 101.672C415.993 103.189 414.556 104.418 412.782 104.418Z" fill="url(#paint9_linear_2060_215)" fill-opacity="0.2"/>
<path d="M314.758 97.397L312.076 96.4124C311.422 96.1749 311.082 95.4495 311.319 94.7931C311.448 94.439 311.723 94.1627 312.076 94.0331L314.758 93.0486C315.107 92.9234 315.382 92.647 315.507 92.2972L316.488 89.607C316.729 88.9507 317.452 88.6139 318.107 88.8557C318.455 88.9852 318.726 89.2573 318.856 89.607L319.841 92.2972C319.966 92.647 320.242 92.9234 320.59 93.0486L323.272 94.0331C323.926 94.2793 324.262 95.009 324.016 95.6654C323.887 96.0109 323.616 96.2829 323.272 96.4124L320.59 97.397C320.242 97.5222 319.966 97.7986 319.841 98.1483L318.856 100.839C318.615 101.495 317.891 101.832 317.237 101.59C316.889 101.46 316.617 101.188 316.488 100.839L315.507 98.1483C315.382 97.7986 315.107 97.5222 314.758 97.397Z" fill="white"/>
<path d="M203.524 179.956L200.838 178.971C200.184 178.725 199.848 177.995 200.093 177.339C200.222 176.993 200.494 176.721 200.838 176.592L203.524 175.607C203.872 175.482 204.148 175.206 204.273 174.856L205.254 172.166C205.495 171.509 206.218 171.172 206.872 171.414C207.221 171.544 207.492 171.816 207.621 172.166L208.603 174.856C208.732 175.206 209.007 175.482 209.356 175.607L212.038 176.592C212.692 176.838 213.028 177.568 212.782 178.224C212.653 178.569 212.382 178.842 212.038 178.971L209.356 179.956C209.007 180.081 208.732 180.357 208.603 180.707L207.621 183.397C207.38 184.054 206.657 184.39 206.003 184.149C205.654 184.019 205.383 183.747 205.254 183.397L204.273 180.707C204.148 180.357 203.872 180.085 203.524 179.956Z" fill="white"/>
<path d="M23.973 185.94L21.2915 184.955C20.6373 184.714 20.3016 183.988 20.5426 183.332C20.6717 182.982 20.9429 182.71 21.2915 182.58L23.973 181.596C24.3174 181.462 24.5928 181.19 24.7219 180.84L25.7033 178.15C25.9443 177.494 26.6675 177.157 27.3217 177.399C27.6703 177.528 27.9415 177.8 28.0706 178.15L29.0563 180.84C29.1811 181.19 29.4566 181.466 29.8052 181.596L32.4867 182.58C33.1409 182.822 33.4767 183.548 33.2356 184.204C33.1065 184.554 32.8353 184.826 32.4867 184.955L29.8052 185.94C29.4566 186.069 29.1811 186.346 29.0563 186.696L28.0706 189.386C27.8296 190.042 27.1065 190.379 26.4522 190.137C26.1036 190.008 25.8324 189.736 25.7033 189.386L24.7219 186.696C24.5928 186.35 24.3174 186.074 23.973 185.94Z" fill="white"/>
<path d="M363.081 227.028L360.4 226.043C359.746 225.801 359.41 225.076 359.651 224.42C359.78 224.07 360.051 223.798 360.4 223.668L363.081 222.684C363.43 222.554 363.706 222.278 363.835 221.928L364.816 219.238C365.057 218.582 365.78 218.245 366.434 218.487C366.783 218.616 367.054 218.888 367.183 219.238L368.165 221.928C368.294 222.278 368.569 222.554 368.918 222.684L371.599 223.668C372.254 223.91 372.589 224.636 372.348 225.292C372.219 225.642 371.948 225.914 371.599 226.043L368.918 227.028C368.569 227.157 368.294 227.434 368.165 227.784L367.183 230.474C366.942 231.13 366.219 231.467 365.565 231.225C365.216 231.096 364.945 230.823 364.816 230.474L363.835 227.784C363.706 227.434 363.43 227.162 363.081 227.028Z" fill="white"/>
<path d="M183.858 264.587C183.858 264.587 195.479 258.196 201.828 271.306C201.828 271.306 195.841 265.485 183.858 264.587Z" fill="#FAF02C"/>
<path d="M163.395 321.367C163.395 321.367 161.751 328.276 166.998 335.764C166.998 335.764 162.263 335.138 161.123 330.448C159.982 325.759 163.395 321.367 163.395 321.367Z" fill="#FAF02C"/>
<defs>
<linearGradient id="paint0_linear_2060_215" x1="192.801" y1="237.282" x2="19.9855" y2="-39.7683" gradientUnits="userSpaceOnUse">
<stop stop-color="#5E49F9"/>
<stop offset="1" stop-color="#AF5EFA"/>
</linearGradient>
<linearGradient id="paint1_linear_2060_215" x1="56.8193" y1="81.0159" x2="-24.5236" y2="-0.39349" gradientUnits="userSpaceOnUse">
<stop stop-color="#5E49F9" stop-opacity="0"/>
<stop offset="1" stop-color="#E8A0FB"/>
</linearGradient>
<linearGradient id="paint2_linear_2060_215" x1="249.803" y1="280.688" x2="-70.0312" y2="-99.5771" gradientUnits="userSpaceOnUse">
<stop stop-color="#3624C3"/>
<stop offset="1" stop-color="#AF5EFA"/>
</linearGradient>
<linearGradient id="paint3_linear_2060_215" x1="341.886" y1="301.979" x2="-204.998" y2="-155.559" gradientUnits="userSpaceOnUse">
<stop stop-color="#1C1C79"/>
<stop offset="1" stop-color="#AF5EFA"/>
</linearGradient>
<linearGradient id="paint4_linear_2060_215" x1="404.742" y1="93.0098" x2="404.742" y2="169.691" gradientUnits="userSpaceOnUse">
<stop stop-color="white"/>
<stop offset="1" stop-color="white" stop-opacity="0"/>
</linearGradient>
<linearGradient id="paint5_linear_2060_215" x1="404.29" y1="108.318" x2="404.29" y2="130.591" gradientUnits="userSpaceOnUse">
<stop stop-color="white"/>
<stop offset="1" stop-color="white" stop-opacity="0"/>
</linearGradient>
<linearGradient id="paint6_linear_2060_215" x1="396.715" y1="123.988" x2="396.715" y2="135.129" gradientUnits="userSpaceOnUse">
<stop stop-color="white"/>
<stop offset="1" stop-color="white" stop-opacity="0"/>
</linearGradient>
<linearGradient id="paint7_linear_2060_215" x1="421.602" y1="144.029" x2="421.602" y2="155.17" gradientUnits="userSpaceOnUse">
<stop stop-color="white"/>
<stop offset="1" stop-color="white" stop-opacity="0"/>
</linearGradient>
<linearGradient id="paint8_linear_2060_215" x1="378" y1="117.363" x2="378" y2="123.987" gradientUnits="userSpaceOnUse">
<stop stop-color="white"/>
<stop offset="1" stop-color="white" stop-opacity="0"/>
</linearGradient>
<linearGradient id="paint9_linear_2060_215" x1="412.782" y1="98.9258" x2="412.782" y2="104.418" gradientUnits="userSpaceOnUse">
<stop stop-color="white"/>
<stop offset="1" stop-color="white" stop-opacity="0"/>
</linearGradient>
<clipPath id="clip0_2060_215">
<rect width="480" height="480" fill="white" transform="translate(-106 -97)"/>
</clipPath>
</defs>
</svg>
